<svg width="130" height="130" viewBox="0 0 130 130" fill="none" xmlns="http://www.w3.org/2000/svg">
<path fill-rule="evenodd" clip-rule="evenodd" d="M124.733 116.2C124.733 120.913 120.913 124.733 116.2 124.733H13.8C9.0872 124.733 5.26667 120.913 5.26667 116.2V114.067C5.26667 112.889 6.22187 111.933 7.4 111.933H47.9333V114.067C47.9333 117.601 50.7987 120.467 54.3333 120.467H75.6667C79.2013 120.467 82.0667 117.601 82.0667 114.067V111.933H122.6C123.778 111.933 124.733 112.889 124.733 114.067V116.2ZM52.2 111.933H77.8V114.067C77.8 115.245 76.8448 116.2 75.6667 116.2H54.3333C53.1552 116.2 52.2 115.245 52.2 114.067V111.933ZM9.53333 41.5333C9.53333 40.3552 10.4885 39.4 11.6667 39.4H30.8667V75.6667H15.9333C14.7552 75.6667 13.8 76.6219 13.8 77.8V86.3333C13.8069 93.3997 19.5336 99.1264 26.6 99.1333H86.3333C93.3997 99.1264 99.1264 93.3997 99.1333 86.3333V39.4H118.333C119.511 39.4 120.467 40.3552 120.467 41.5333V107.667H9.53333V41.5333ZM73.5333 79.9333V86.3333C73.5341 89.4864 74.7051 92.5272 76.8187 94.8667H26.6C21.8872 94.8667 18.0667 91.0461 18.0667 86.3333V79.9333H73.5333ZM43.6667 5.26667H98.152C96.0384 7.60613 94.8675 10.6469 94.8667 13.8V86.3333C94.8667 91.0461 91.0461 94.8667 86.3333 94.8667C81.6205 94.8667 77.8 91.0461 77.8 86.3333V77.8C77.8 76.6219 76.8448 75.6667 75.6667 75.6667H35.1333V13.8C35.1333 9.0872 38.9539 5.26667 43.6667 5.26667ZM116.2 13.8V22.3333H99.1333V13.8C99.1333 9.0872 102.954 5.26667 107.667 5.26667C112.379 5.26667 116.2 9.0872 116.2 13.8ZM124.733 108.059V41.5333C124.733 37.9987 121.868 35.1333 118.333 35.1333H99.1333V26.6H118.333C119.511 26.6 120.467 25.6448 120.467 24.4667V13.8C120.46 6.7336 114.733 1.00693 107.667 1H43.6667C36.6003 1.00693 30.8736 6.7336 30.8667 13.8V35.1333H11.6667C8.132 35.1333 5.26667 37.9987 5.26667 41.5333V108.059C2.71867 108.96 1.0112 111.364 1 114.067V116.2C1.00693 123.266 6.7336 128.993 13.8 129H116.2C123.266 128.993 128.993 123.266 129 116.2V114.067C128.989 111.364 127.281 108.96 124.733 108.059Z" fill="#161514" stroke="white" stroke-width="0.5"/>
<path fill-rule="evenodd" clip-rule="evenodd" d="M65 28.7333C69.7128 28.7333 73.5333 32.5539 73.5333 37.2667C73.5333 41.9795 69.7128 45.8 65 45.8C60.2872 45.8 56.4666 41.9795 56.4666 37.2667C56.4666 32.5539 60.2872 28.7333 65 28.7333ZM65 50.0667C72.0693 50.0667 77.8 44.336 77.8 37.2667C77.8 30.1973 72.0693 24.4667 65 24.4667C57.9306 24.4667 52.2 30.1973 52.2 37.2667C52.2069 44.3331 57.9336 50.0597 65 50.0667Z" fill="#FF5F32"/>
</svg>
