<svg width="612" height="517" viewBox="0 0 612 517" fill="none" xmlns="http://www.w3.org/2000/svg">
<g clip-path="url(#clip0)">
<path d="M19.3065 398.569V398.668C19.3065 399.936 20.4158 400.992 21.6835 400.992H61.5661L47.5142 426.77C37.4778 445.153 27.4941 463.482 17.5105 481.865L0.976725 512.186C0.395666 513.242 0.871075 514.616 1.98037 515.249L2.19166 515.355C3.30095 515.989 4.7272 515.619 5.25543 514.616L67.1118 400.992H108.314L170.17 514.616C170.699 515.619 172.125 515.936 173.234 515.355L173.446 515.249C174.555 514.616 175.03 513.242 174.449 512.186L157.915 481.865C147.879 463.482 137.895 445.153 127.912 426.77L113.86 400.992H166.737C168.058 400.992 169.114 399.936 169.114 398.668V398.404C169.114 397.136 168.005 396.08 166.737 396.08H130.817C107.416 396.08 83.9625 396.08 60.5088 396.08H23.9704L19.5178 360.054C16.454 335.544 13.4431 310.981 10.3793 286.418L5.36107 245.849C5.2026 244.423 3.98766 243.367 2.66707 243.525L2.40295 243.578C1.13519 243.736 0.237192 245.057 0.395663 246.378L19.2537 398.298C19.2674 398.391 19.285 398.481 19.3065 398.569Z" fill="#D8DEED"/>
<g clip-path="url(#clip1)">
<path d="M442.511 -0.00708008H161.49C155.655 -0.00708008 150.925 4.7229 150.925 10.5576V433.674C150.925 439.509 155.655 444.239 161.49 444.239H442.511C448.345 444.239 453.075 439.509 453.075 433.674V10.5576C453.075 4.7229 448.345 -0.00708008 442.511 -0.00708008Z" fill="#F2F6FB"/>
<path d="M169.677 21.1361C172.449 21.1361 174.695 19.1259 174.695 16.6461C174.695 14.1664 172.449 12.1561 169.677 12.1561C166.906 12.1561 164.659 14.1664 164.659 16.6461C164.659 19.1259 166.906 21.1361 169.677 21.1361Z" fill="#FF5645"/>
<path d="M186.317 21.1361C188.942 21.1361 191.071 19.1259 191.071 16.6461C191.071 14.1664 188.942 12.1561 186.317 12.1561C183.691 12.1561 181.562 14.1664 181.562 16.6461C181.562 19.1259 183.691 21.1361 186.317 21.1361Z" fill="#FFCB3D"/>
<path d="M202.428 21.1361C204.908 21.1361 206.918 19.1259 206.918 16.6461C206.918 14.1664 204.908 12.1561 202.428 12.1561C199.948 12.1561 197.938 14.1664 197.938 16.6461C197.938 19.1259 199.948 21.1361 202.428 21.1361Z" fill="#3ABF7C"/>
<path d="M278.758 12.1561H325.771C326.646 12.1561 327.356 12.8656 327.356 13.7408V19.5514C327.356 20.4266 326.646 21.1361 325.771 21.1361H278.758C277.883 21.1361 277.173 20.4266 277.173 19.5514V13.7408C277.173 12.8656 277.883 12.1561 278.758 12.1561ZM412.93 12.1561H438.285C439.16 12.1561 439.87 12.8656 439.87 13.7408V19.5514C439.87 20.4266 439.16 21.1361 438.285 21.1361H412.93C412.054 21.1361 411.345 20.4266 411.345 19.5514V13.7408C411.345 12.8656 412.054 12.1561 412.93 12.1561ZM378.066 12.1561H402.893C403.768 12.1561 404.478 12.8656 404.478 13.7408V19.5514C404.478 20.4266 403.768 21.1361 402.893 21.1361H378.066C377.191 21.1361 376.481 20.4266 376.481 19.5514V13.7408C376.481 12.8656 377.191 12.1561 378.066 12.1561ZM244.423 152.826H360.634C361.218 152.826 361.691 153.299 361.691 153.883V162.875C361.691 163.459 361.218 163.932 360.634 163.932H244.423C243.839 163.932 243.366 163.459 243.366 162.875V153.883C243.366 153.299 243.839 152.826 244.423 152.826ZM223.293 134.846H380.707C381.291 134.846 381.764 135.319 381.764 135.902V144.895C381.764 145.478 381.291 145.951 380.707 145.951H223.293C222.71 145.951 222.237 145.478 222.237 144.895V135.902C222.237 135.319 222.71 134.846 223.293 134.846ZM169.413 193.324C169.413 192.159 170.364 191.214 171.527 191.214H433.53C434.697 191.214 435.644 192.159 435.644 193.324V364.678C435.644 365.843 434.693 366.787 433.53 366.787H171.527C170.36 366.787 169.413 365.843 169.413 364.678V193.324ZM171.065 380.322H291.896C292.838 380.322 293.18 380.42 293.524 380.605C293.868 380.789 294.139 381.059 294.323 381.403C294.507 381.748 294.605 382.089 294.605 383.031V418.863C294.605 419.805 294.507 420.146 294.323 420.491C294.139 420.835 293.868 421.105 293.524 421.289C293.18 421.473 292.838 421.571 291.896 421.571H171.065C170.123 421.571 169.782 421.473 169.438 421.289C169.093 421.105 168.823 420.835 168.639 420.491C168.455 420.146 168.357 419.805 168.357 418.863V383.031C168.357 382.089 168.455 381.748 168.639 381.403C168.823 381.059 169.093 380.789 169.438 380.605C169.782 380.42 170.123 380.322 171.065 380.322ZM312.104 380.322H432.935C433.877 380.322 434.218 380.42 434.563 380.605C434.907 380.789 435.177 381.059 435.362 381.403C435.546 381.748 435.644 382.089 435.644 383.031V418.863C435.644 419.805 435.546 420.146 435.362 420.491C435.177 420.835 434.907 421.105 434.563 421.289C434.218 421.473 433.877 421.571 432.935 421.571H312.104C311.162 421.571 310.821 421.473 310.476 421.289C310.132 421.105 309.862 420.835 309.678 420.491C309.494 420.146 309.396 419.805 309.396 418.863V383.031C309.396 382.089 309.494 381.748 309.678 381.403C309.862 381.059 310.132 380.789 310.476 380.605C310.821 380.42 311.162 380.322 312.104 380.322Z" fill="#E1E5F0"/>
<path d="M346.874 250.425C354.587 250.425 360.839 244.147 360.839 236.403C360.839 228.658 354.587 222.38 346.874 222.38C339.162 222.38 332.909 228.658 332.909 236.403C332.909 244.147 339.162 250.425 346.874 250.425Z" fill="#F2F6FB"/>
<path d="M302.264 121.571V119.458C305.203 119.458 308.089 119.074 310.872 118.325L311.422 120.365C308.46 121.163 305.389 121.571 302.264 121.571ZM319.947 116.803L318.881 114.978C321.391 113.513 323.699 111.721 325.743 109.654L327.245 111.14C325.071 113.338 322.617 115.244 319.947 116.803ZM332.825 103.775L330.988 102.731C332.422 100.209 333.518 97.5054 334.243 94.6832L336.289 95.2089C335.518 98.2131 334.351 101.091 332.825 103.775ZM337.389 85.9914L335.276 86.0181C335.239 83.0817 334.819 80.2003 334.033 77.4261L336.066 76.8502C336.902 79.8027 337.35 82.8688 337.389 85.9914ZM332.391 68.3679L330.58 69.4566C329.082 66.9662 327.261 64.6818 325.168 62.6649L326.634 61.1433C328.86 63.2885 330.798 65.7184 332.391 68.3679ZM319.2 55.6604L318.18 57.5108C315.639 56.1104 312.923 55.0499 310.09 54.3615L310.59 52.3084C313.604 53.0411 316.496 54.17 319.2 55.6604ZM301.36 51.3271L301.413 53.4394C298.479 53.5136 295.602 53.9715 292.837 54.794L292.234 52.7688C295.178 51.8934 298.239 51.4061 301.36 51.3271ZM283.802 56.5533L284.914 58.35C282.443 59.8794 280.182 61.73 278.192 63.8492L276.652 62.4029C278.768 60.1488 281.173 58.1804 283.802 56.5533ZM271.264 69.9077L273.128 70.9037C271.761 73.4614 270.736 76.1916 270.084 79.0333L268.025 78.5611C268.718 75.5361 269.809 72.6299 271.264 69.9077ZM267.163 87.8023L269.274 87.7219C269.386 90.6539 269.881 93.5245 270.74 96.2803L268.722 96.9091C267.808 93.9759 267.281 90.9209 267.163 87.8023ZM272.615 105.29L274.397 104.155C275.959 106.606 277.838 108.843 279.982 110.805L278.556 112.364C276.275 110.277 274.276 107.897 272.615 105.29ZM286.128 117.654L287.1 115.778C289.675 117.111 292.418 118.101 295.269 118.716L294.823 120.781C291.788 120.126 288.869 119.073 286.128 117.654ZM324.379 335.339L306.051 335.422L306.102 335.339H226.05C221.092 335.339 219.204 331.931 221.834 327.727L276.539 240.281C279.169 236.077 283.523 236.017 286.265 240.156L326.915 302.003L341.295 278.969C343.614 275.255 347.459 275.197 349.887 278.842L383.18 328.825C385.607 332.469 384.05 335.104 379.666 334.968L355.32 335.2L347.632 335.234L347.696 335.339C347.696 335.339 343.68 335.339 338.718 335.339H324.379Z" fill="#474BFF"/>
<path opacity="0.176986" d="M347.479 335.459C347.479 335.459 343.462 335.459 338.5 335.459H225.833C220.874 335.459 218.987 332.051 221.617 327.847L276.322 240.401C278.952 236.197 283.305 236.137 286.048 240.276L333.354 312.251" fill="#444444"/>
</g>
<g clip-path="url(#clip2)">
<path d="M609.433 517.135H555.289C554.021 517.135 552.912 516.221 552.912 515.124V514.392C552.912 513.295 553.968 512.381 555.289 512.381H609.433C610.701 512.381 611.81 513.295 611.81 514.392V515.124C611.81 516.221 610.754 517.135 609.433 517.135ZM485.034 512.381C486.346 512.381 487.411 513.445 487.411 514.758C487.411 516.071 486.346 517.135 485.034 517.135H398.931C397.618 517.135 396.554 516.071 396.554 514.758C396.554 513.445 397.618 512.381 398.931 512.381H485.034Z" fill="#DE3190"/>
<path d="M609.722 512.397C609.627 512.387 609.53 512.381 609.433 512.381H555.471L559.74 485.434L597.562 480.31L609.722 512.397ZM485.348 512.402C485.245 512.388 485.14 512.381 485.034 512.381H399.305C399.249 512.092 399.22 511.727 399.228 511.255C399.287 510.887 399.295 510.464 399.408 510.043C400.086 507.519 400.907 505.843 403.311 504.353C405.714 502.863 408.168 501.532 410.724 500.362C420.153 495.93 423.374 495.986 429.574 491.92C432.139 490.222 434.498 488.255 436.701 486.128C438.17 484.709 441.169 482.405 445.698 479.215L486.423 480.127L485.348 512.402Z" fill="#474961"/>
<path d="M542.668 188.688C546.688 196.515 557.57 220.803 567.285 270.243C568.085 274.345 568.853 278.338 569.59 282.216L569.664 282.126C582.977 332.29 592.218 367.408 597.387 387.481C602.696 408.096 595.334 407.775 599.36 425.118C601.681 435.118 609.458 443.159 609.391 453.571C609.38 455.216 609.42 458.505 609.51 463.437C609.671 472.247 603.232 479.791 594.507 481.018L559.264 485.971C549.73 487.311 540.916 480.668 539.576 471.135C539.564 471.047 539.552 470.959 539.541 470.871C538.59 463.266 538.109 458.745 538.097 457.308C538.071 454.33 538.034 451.618 537.976 449.148C535.946 440.838 533.83 432.19 532.127 425.218C529.83 421.668 527.126 416.762 524.996 408.823C523.594 403.601 520.408 383.273 515.438 347.841C515.342 347.366 515.161 345.901 514.893 343.446L507.935 317.838C507.645 320.829 507.349 323.855 507.05 326.907C507.663 369.348 507.647 393.189 507.001 398.433C504.969 414.933 498.889 419.477 498.711 424.662C498.537 429.741 499.309 437.143 500.776 448.268C500.964 449.693 501.117 454.237 501.234 461.9C501.235 461.989 501.236 462.078 501.236 462.167C501.236 469.882 496.222 476.427 489.276 478.722C484.905 482.701 477.869 479.674 459.392 479.8C459.392 479.8 456.549 479.825 452.794 479.598L448.214 479.598C445.503 479.598 442.924 478.976 440.62 477.859C438.435 477.247 436.629 476.443 435.622 475.385C434.781 474.477 434.251 473.447 434.251 473.447C434 472.885 433.82 472.332 433.69 471.809C432.229 469.611 431.25 467.054 430.911 464.277C430.314 459.38 429.895 456.118 429.656 454.491C428.14 444.189 434.722 435.144 435.629 424.919C437.202 407.183 429.956 408.527 432.344 387.373C434.648 366.967 439.007 343.414 445.421 316.711C449.131 274.656 454.013 227.402 459.392 211.523C459.481 211.24 462.836 199.984 467.687 192.039C467.835 192.199 467.989 192.352 468.148 192.498C468.755 193.069 469.359 193.481 469.962 193.788C471.168 194.506 472.168 194.753 472.168 194.753C472.168 194.753 472.218 194.752 472.268 194.804C472.268 194.804 504.654 202.903 536.787 193.678L536.885 193.623C536.885 193.623 537.876 193.342 539.057 192.581C539.598 192.255 540.237 191.768 540.824 191.23C541.561 190.51 542.168 189.643 542.668 188.688Z" fill="#A339FF"/>
<path opacity="0.176986" d="M474.615 195.32L491.525 257.667L507.919 318.006C507.634 320.942 507.344 323.912 507.05 326.907C507.663 369.348 507.647 393.189 507.001 398.432C504.969 414.933 498.889 419.477 498.711 424.662C498.537 429.741 499.309 437.143 500.776 448.268C500.964 449.693 501.117 454.237 501.234 461.9C501.235 461.989 501.236 462.078 501.236 462.167C501.236 469.882 496.222 476.427 489.276 478.722C484.905 482.701 477.869 479.674 459.392 479.8C459.392 479.8 456.549 479.825 452.794 479.598L448.214 479.598C445.503 479.598 442.924 478.976 440.62 477.859C438.435 477.247 436.629 476.443 435.622 475.385C434.781 474.477 434.251 473.447 434.251 473.447C434 472.885 433.82 472.332 433.69 471.809C432.229 469.611 431.25 467.054 430.911 464.277C430.314 459.38 429.895 456.118 429.656 454.491C428.14 444.189 434.722 435.144 435.629 424.919C437.202 407.183 429.956 408.527 432.344 387.373C434.648 366.967 439.007 343.414 445.421 316.711C449.131 274.656 454.013 227.402 459.392 211.523C459.481 211.24 462.836 199.984 467.687 192.039C467.835 192.199 467.989 192.352 468.148 192.498C468.755 193.069 469.359 193.481 469.962 193.788C471.168 194.506 472.168 194.753 472.168 194.753C472.168 194.753 472.218 194.752 472.268 194.804C472.268 194.804 473.095 195.011 474.615 195.32Z" fill="#444444"/>
<path d="M543.229 122.376C543.29 122.983 543.35 123.611 543.408 124.257L543.411 124.416L543.555 127.002C544.406 155.781 544.831 168.717 545.069 173.785C545.069 173.785 545.028 174.314 545.092 175.105C545.232 177.427 545.448 186.986 541.045 191.289C540.457 191.828 539.819 192.314 539.277 192.641C538.096 193.401 537.106 193.683 537.106 193.683L537.008 193.737C504.875 202.962 472.489 194.863 472.489 194.863C472.489 194.863 471.185 194.574 469.979 193.855C469.376 193.549 468.737 193.105 468.13 192.535C463.629 188.387 463.75 178.849 463.809 176.524C463.796 175.784 463.786 175.203 463.786 175.203C463.842 170.37 463.823 158.63 463.691 133.163C451.075 131.993 445.967 128.354 448.368 122.246C453.822 108.371 457.435 95.0584 479.058 93.5201C484.364 90.8748 490.157 89.9892 494.19 89.7194C496.526 89.573 498.268 89.5954 498.965 89.6361C499.264 89.6309 499.663 89.6767 500.41 89.7165C501.157 89.7563 502.003 89.7944 502.95 89.8307C503.894 89.7614 504.739 89.6938 505.484 89.628C506.229 89.5621 506.576 89.5032 506.925 89.4971C507.67 89.4313 509.36 89.349 511.7 89.4138C512.258 89.4316 512.85 89.4596 513.47 89.501C513.782 89.4292 514.099 89.3586 514.421 89.2891C536.647 84.4925 543.674 96.6362 552.697 108.848C556.308 113.736 553.153 118.245 543.229 122.376Z" fill="#DE3190"/>
<path opacity="0.176986" d="M478.723 93.5183C475.636 95.0747 472.719 97.2314 470.418 100.215C469.397 101.554 468.089 103.584 467.095 106.507C466.953 106.932 466.81 107.304 466.668 107.73C466.336 108.634 465.623 110.548 465.012 112.619C464.356 114.955 463.837 119.402 463.497 125.589L463.5 125.748L463.445 128.337C463.454 129.968 463.462 131.549 463.47 133.079C451.165 131.867 446.2 128.241 448.574 122.203C453.982 108.445 457.58 95.2389 478.723 93.5183Z" fill="#444444"/>
<path d="M539.581 251.599C539.141 251.94 538.88 252.093 538.88 252.093C531.946 250.929 541.861 225.246 544.816 217.976L519.925 128.939C535.377 125.672 545.57 122.111 550.503 118.256C563.922 172.252 571.173 206.884 572.256 222.152C572.339 222.636 572.39 223.155 572.408 223.709C572.697 232.594 569.745 246.191 563.551 264.501C563.502 264.609 547.393 272.518 536.059 265.831L539.581 251.599ZM471.798 43.1498C471.821 43.1204 471.843 43.0905 471.865 43.0602C476.501 37.8643 485.036 38.0177 488.879 38.8466C489.347 38.9488 491.006 39.3357 493.406 39.7473C494.708 39.9904 495.759 40.1008 496.383 40.2196C504.178 41.3575 507.377 40.7377 511.096 43.2532C511.793 43.6982 513.375 44.8205 514.652 46.8138C518.256 52.4509 516.551 59.0703 516.078 61.039C514.503 66.9285 510.65 70.2415 509.439 71.6546C508.538 72.7231 507.287 73.9158 506.071 74.9934L507.248 92.042C507.261 92.4116 507.116 92.7867 506.804 92.9561C505.461 93.8487 503.541 94.8671 501.131 95.4799C496.785 96.6359 493.011 96.0277 490.877 95.468C490.451 95.3771 490.119 94.9659 490.105 94.5435L489.467 83.3636C489.004 83.4844 488.511 83.6096 487.985 83.7406C483.343 84.9524 483.622 84.8224 483.296 84.8943C479.898 85.387 477.072 84.9838 476.558 84.8235C474.683 84.4671 472.852 82.6812 471.348 79.8143C469.307 75.988 467.738 70.193 467.284 63.3996C467.173 62.4319 467.22 61.4808 467.267 60.5297L468.045 51.104C468.213 48.9971 468.907 46.9454 470.156 45.1646C470.665 44.3682 471.157 43.7295 471.743 43.2068C471.761 43.1877 471.78 43.1688 471.798 43.1498ZM448.413 127.421C450.093 130.454 455.186 132.365 463.692 133.154C463.784 150.972 463.821 162.07 463.816 168.784C451.131 184.407 442.643 181.97 442.643 181.97C436.732 182.226 432.211 179.538 430.505 178.505C415.624 169.531 387.374 119.584 382.501 110.834C376.069 109.953 370.065 108.263 364.487 105.764C355.592 101.778 352.008 97.9969 353.734 94.4197L399.32 97.363L399.445 97.2763L438.98 138.884C443.123 134.482 445.938 130.887 448.413 127.421Z" fill="#F2A98A"/>
<path opacity="0.2" d="M448.584 127.421C450.263 130.454 455.356 132.365 463.862 133.154C463.954 150.972 463.992 162.07 463.986 168.784C451.301 184.407 442.813 181.97 442.813 181.97C436.902 182.226 432.381 179.538 430.675 178.505C415.794 169.531 387.544 119.584 382.672 110.834C376.24 109.953 370.235 108.263 364.658 105.764C355.762 101.778 352.178 97.997 353.904 94.4198L399.49 97.3631L399.615 97.2764L439.15 138.884C443.293 134.482 446.108 130.887 448.584 127.421Z" fill="#8C2A00"/>
<path d="M488.611 83.5489L496.393 81.0656L490.026 90.7935L488.611 83.5489Z" fill="#482D1F"/>
<path d="M507.584 62.2084C507.64 60.9285 507.377 59.6146 506.688 58.4056C505.256 55.8648 502.242 54.2202 499.632 54.7957C498.164 55.1194 497.102 56.1232 496.986 56.2173C495.38 57.8543 494.866 59.7124 494.866 59.7124L494.608 60.9458C475.676 53.7236 472.005 44.6085 471.019 44.0336C471.32 43.6935 471.616 43.4059 471.801 43.1598C476.49 37.9693 485.182 38.1394 489.078 38.9738C489.598 39.0815 491.257 39.4683 493.71 39.8855C495.065 40.1341 496.115 40.2445 496.74 40.3633C504.692 41.5178 507.944 40.9035 511.715 43.4245C512.412 43.8695 514.046 44.9973 515.324 46.9906C519.309 53.0396 517.494 59.7006 516.803 61.2214C516.319 62.286 515.559 62.9497 515.559 62.9497C512.761 62.5302 510.153 62.3444 507.584 62.2084ZM465.924 57.9003C465.402 57.7672 465.279 57.0731 465.668 56.7232C466.165 56.3261 467.031 55.9483 468.086 56.0036C470.249 56.117 472.495 57.6629 470.036 58.1687C468.592 58.4633 466.915 58.1639 465.924 57.9003ZM476.771 58.8391C476.249 58.7059 476.127 58.0119 476.568 57.6647C477.065 57.2676 477.931 56.8898 479.039 56.9479C481.202 57.0612 483.445 58.6599 480.988 59.113C479.437 59.4548 477.762 59.1026 476.771 58.8391Z" fill="#482D1F"/>
<path d="M469.845 61.8086C469.745 62.7026 469.509 64.1713 468.954 64.6712C468.016 65.4155 466.994 62.7171 467.765 61.1177C468.065 60.4458 468.44 60.3596 468.859 60.4345C469.486 60.5732 469.878 61.1756 469.845 61.8086ZM479.293 62.1979C479.298 63.0975 479.221 64.5745 478.66 65.1799C477.822 66.0352 476.478 63.4257 477.094 61.7653C477.341 61.0906 477.718 60.9517 478.14 60.9738C478.773 61.007 479.273 61.5622 479.293 62.1979Z" fill="#482D1F"/>
<path d="M474.401 72.7852C474.775 72.699 475.686 72.4823 475.875 71.9103C475.88 71.8048 475.941 71.6493 475.894 71.541C475.702 71.1607 475.058 71.3385 474.106 71.3415C472.412 71.3586 471.049 71.1284 471.049 71.1284C471.049 71.1284 471.363 72.2028 471.61 72.5331C472.096 73.3521 473.812 72.913 474.401 72.7852Z" fill="#482D1F"/>
<path d="M471.369 61.9942L471.378 61.9213L471.371 61.9574L471.369 61.9942ZM470.291 67.5242C470.161 68.1139 470.591 68.7223 471.187 68.854C471.318 68.8731 471.318 68.8731 471.403 68.8841C472.29 68.9992 472.845 69.0538 473.8 69.1039C474.091 69.1192 474.34 68.8954 474.355 68.604C474.37 68.3127 474.147 68.0642 473.855 68.0489C472.93 68.0004 472.401 67.9483 471.539 67.8365L471.369 67.8144C471.368 67.812 471.323 67.7488 471.325 67.7388L472.415 62.1225L472.424 62.0495L472.587 58.9372C472.603 58.6459 472.379 58.3973 472.087 58.3821C471.796 58.3668 471.548 58.5906 471.532 58.8819L471.371 61.9574L470.291 67.5242Z" fill="#482D1F"/>
<path d="M507.549 61.3931C507.628 62.9577 507.175 64.6044 506.334 65.8786C505.307 67.4876 504.014 68.2882 502.395 68.8386C502.119 68.9325 501.971 69.2325 502.065 69.5087C502.159 69.7849 502.459 69.9327 502.735 69.8388C503.447 69.5968 504.018 69.3509 504.692 68.9331C505.686 68.3177 506.549 67.505 507.221 66.4538C508.18 64.999 508.695 63.1301 508.604 61.34C508.59 61.0487 508.342 60.8244 508.05 60.839C507.759 60.8537 507.535 61.1018 507.549 61.3931Z" fill="#482D1F"/>
<path d="M547.912 248.959C547.995 248.529 548.411 248.249 548.841 248.333C549.27 248.417 549.551 248.833 549.467 249.262C548.941 251.96 548.466 254.043 547.356 258.671C546.251 263.278 545.779 265.346 545.259 268.014C545.175 268.444 544.759 268.724 544.33 268.64C543.9 268.557 543.62 268.141 543.704 267.711C544.23 265.013 544.705 262.93 545.815 258.302C546.92 253.695 547.392 251.627 547.912 248.959ZM558.626 246.634C558.736 246.211 559.168 245.957 559.592 246.067C560.015 246.177 560.269 246.61 560.159 247.033C559.405 249.935 558.871 252.196 557.721 257.244C556.568 262.306 556.031 264.579 555.271 267.501C555.161 267.924 554.729 268.178 554.305 268.068C553.882 267.958 553.627 267.525 553.738 267.102C554.492 264.201 555.026 261.939 556.176 256.892C557.329 251.829 557.866 249.556 558.626 246.634Z" fill="#482D1F"/>
</g>
<g clip-path="url(#clip3)">
<path d="M134.407 511.531C134.083 511.368 133.72 511.276 133.339 511.276H104.775L52.3552 472.222L72.2177 444.397L104.017 467.481C105.761 473.397 107.557 479.314 109.353 485.283C110.303 488.399 111.254 491.463 112.205 494.527C115.163 495.689 117.699 496.745 119.495 497.538C122.928 499.017 125.834 500.39 129.003 502.45C129.003 502.45 131.75 504.141 133.282 506.571C133.757 507.363 134.18 508.261 134.444 509.212C134.549 509.634 134.549 510.057 134.602 510.427C134.586 510.773 134.507 511.162 134.407 511.531ZM233.346 511.443C233.173 511.403 232.991 511.381 232.805 511.381H147.759C147.6 511.381 147.445 511.397 147.294 511.427L146.468 478.497L186.407 478.381C191.288 481.571 194.463 483.875 195.932 485.294C198.135 487.421 200.494 489.388 203.059 491.087C209.259 495.152 212.48 495.096 221.909 499.528C224.465 500.698 226.919 502.029 229.322 503.519C231.726 505.009 232.547 506.685 233.225 509.21C233.338 509.63 233.346 510.053 233.405 510.422C233.412 510.839 233.391 511.172 233.346 511.443Z" fill="#474961"/>
<path d="M102.851 515.604C102.798 515.571 102.747 515.535 102.697 515.498L49.6618 475.986C48.6054 475.193 48.3941 473.661 49.1864 472.605C49.9788 471.548 51.5107 471.337 52.5671 472.13L105.035 511.219H133.598C134.919 511.219 136.028 512.328 136.028 513.649C136.028 514.969 134.919 516.079 133.598 516.079H104.281C103.744 516.079 103.251 515.904 102.851 515.604ZM148.019 511.325H233.065C234.378 511.325 235.442 512.389 235.442 513.702C235.442 515.014 234.378 516.079 233.065 516.079H148.019C146.706 516.079 145.642 515.014 145.642 513.702C145.642 512.389 146.706 511.325 148.019 511.325Z" fill="#FF5645"/>
<path d="M204.285 377.004C200.349 397.693 198.739 428.016 202.599 447.104C202.599 447.104 206.608 479.907 203.799 480.119C203.119 480.171 195.876 480.488 195.111 480.541C176.049 481.809 142.947 484.344 138.011 484.344C134.721 484.344 133.075 482.232 133.075 478.006L132.002 466.659V466.566C128.361 470.91 124.582 475.414 120.665 480.078C114.836 481.808 106.02 479.33 94.2166 472.644C82.413 465.958 73.2767 459.367 66.8078 452.87C63.6912 450.863 56.1064 439.761 58.1137 436.856L71.3724 417.523L79.2959 405.954C81.5145 402.679 83.1893 400.508 85.5664 397.075C85.5664 397.022 85.9919 396.393 85.9919 396.34C85.1468 396.34 86.1102 395.654 80.0883 395.601C74.0664 395.548 41.6328 394.861 29.2192 376.954C24.2673 369.811 23.8841 361.9 23.5143 358.36C22.1409 344.591 25.7733 333.432 34.4116 324.884C36.7254 323.184 38.4281 322.176 39.5198 321.859C41.263 321.331 50.4543 321.067 52.2503 320.961L89.1211 320.486C106.667 320.253 121.315 320.054 133.068 319.891L133.075 319.799L133.068 319.891C156.816 319.56 168.738 319.371 168.832 319.324C169.043 319.218 191.832 320.169 197.959 323.708C209.696 330.585 215.868 352.253 204.285 377.004Z" fill="#FFCB3D"/>
<path opacity="0.176986" d="M204.17 377.211C200.25 397.897 198.653 428.143 202.505 447.195C202.505 447.195 206.514 479.998 203.706 480.21C203.025 480.263 195.783 480.579 195.017 480.632C175.955 481.9 142.853 484.436 137.917 484.436C134.627 484.436 132.982 482.323 132.982 478.097L131.91 466.768C177.417 412.463 201.236 383.166 203.367 378.877C203.643 378.32 203.911 377.765 204.17 377.211ZM132.96 320.149L132.982 319.89L132.96 320.149ZM152.911 319.864C152.901 319.864 152.891 319.864 152.88 319.864L152.129 319.732H152.214C152.447 319.776 152.679 319.82 152.911 319.864Z" fill="#8C2A00"/>
<path d="M109.95 361.106C107.344 365.048 104.599 368.878 97.935 377.995C91.2482 387.142 88.4949 390.984 85.8628 394.965C85.541 395.452 85.6747 396.108 86.1615 396.429C86.6482 396.751 87.3036 396.617 87.6254 396.131C90.2316 392.188 92.9764 388.358 99.6407 379.242C106.328 370.094 109.081 366.252 111.713 362.271C112.035 361.784 111.901 361.129 111.414 360.807C110.928 360.485 110.272 360.619 109.95 361.106Z" fill="#482D1F"/>
<path d="M198.372 225.715C200.165 227.116 200.483 229.705 199.082 231.498C199.061 231.526 199.039 231.553 199.017 231.58L177.192 258.103C176.071 259.465 174.07 259.685 172.68 258.599C171.291 257.514 171.02 255.518 172.07 254.102L192.526 226.508C193.881 224.68 196.461 224.297 198.289 225.652C198.317 225.672 198.345 225.694 198.372 225.715Z" fill="#474961"/>
<path d="M193.855 231.201C198.453 234.793 205.035 234.052 208.555 229.546C210.248 227.379 207.893 222.865 208.477 216.169C208.614 214.604 209.7 212.076 211.735 208.584L211.735 208.584C211.882 208.332 211.797 208.009 211.545 207.862C211.422 207.79 211.275 207.771 211.138 207.809C200.574 210.737 194.164 213.646 191.905 216.537C188.384 221.043 189.258 227.609 193.855 231.201Z" fill="white"/>
<path d="M198.853 224.862C199.936 225.708 203.486 223.519 204.005 224.665C205.743 228.506 205.689 233.701 208.54 230.052C210.319 227.775 207.94 223.104 208.63 216.123C208.792 214.488 209.954 211.831 212.117 208.153L212.117 208.153C212.265 207.901 212.181 207.577 211.929 207.429C211.804 207.356 211.654 207.337 211.514 207.377C200.53 210.563 193.85 213.677 191.474 216.718C189.345 219.444 191.053 220.858 194.298 221.303C195.432 221.459 196.2 220.124 197.799 219.816C199.577 219.473 197.799 224.039 198.853 224.862Z" fill="#474BFF"/>
<path d="M95.8458 225.741C108.977 230.299 117.293 243.777 114.839 258.029L103.814 320.291L42.8098 321.384C39.3176 320.757 36.8551 319.296 35.4223 317C33.273 313.555 33.8586 309.19 34.1514 307.509L45.1612 245.945C47.8822 230.323 62.614 219.806 78.2205 222.279L79.2879 217.257C79.4092 216.686 79.9702 216.322 80.541 216.443L96.0417 219.738C96.6125 219.859 96.9768 220.42 96.8555 220.991L95.8458 225.741Z" fill="#FF5645"/>
<path d="M83.2084 199.514C82.0983 210.784 81.5025 216.475 81.4209 216.588C81.3371 216.704 86.1236 217.738 95.7804 219.688L96.638 215.329C96.8632 215.413 97.095 215.499 97.3335 215.586C101.801 217.305 101.535 217.151 101.853 217.251C105.196 218.091 108.047 217.988 108.575 217.926C113.006 217.532 118.041 209.361 120.161 197.648C120.355 196.693 120.392 195.742 120.481 194.789L120.738 185.328C120.807 183.213 120.347 181.108 119.312 179.277C118.875 178.492 118.44 177.76 117.954 177.188C112.387 169.994 102.375 171.49 100.583 171.732C100.372 171.736 100.162 171.792 99.9504 171.796C97.9517 172.306 96.1495 171.968 94.2472 171.948C93.4022 171.963 92.7276 172.662 92.6895 173.508L92.6614 187.033C92.6307 188.302 88.9713 185.409 87.5435 185.328C85.0046 185.161 82.2372 189.117 81.3317 191.722C80.3242 194.539 81.219 197.376 82.8886 199.196C82.9938 199.307 83.1005 199.413 83.2084 199.514ZM118.141 293.032C119.263 292.651 120.382 292.268 121.498 291.883C130.037 288.937 138.441 285.934 147.561 282.597C150.633 281.505 151.952 280.958 154.157 280.082C161.342 277.201 188.38 266.134 189.675 265.103C194.23 263.151 191.24 246.926 191.24 240.999C183.693 244.318 173.319 248.569 160.117 253.751C157.453 255.123 155.532 256.906 154.157 258.392C151.912 258.561 133.96 261.685 117.42 264.451C117.873 264.374 118.327 264.296 118.781 264.219C118.674 259.997 117.895 253.555 114.542 246.559C115.377 250.209 115.517 254.09 114.839 258.029L113.588 265.089C103.913 266.694 95.2151 268.081 91.1305 268.545C90.8992 267.877 89.0808 259.993 85.6751 244.893L54.1908 253.751C54.9133 258.089 56.647 265.043 59.392 274.611C63.5094 288.964 65.099 299.683 75.8693 302.823C78.3798 303.558 81.634 303.444 88.8587 301.698C95.6593 300.053 101.977 298.244 108.053 296.338L103.823 320.22L103.8 320.22L103.813 320.291L161.757 319.484C164.816 319.389 161.252 317.3 151.066 313.215C140.88 309.131 130.498 305.658 119.919 302.796L119.601 292.538C119.115 292.703 118.628 292.868 118.141 293.032ZM47.317 239.09C55.0581 242.441 62.5522 242.831 69.7992 240.26C77.0463 237.689 80.7285 231.916 80.8459 222.941C74.5192 221.015 67.8765 221.539 60.9178 224.513C53.9591 227.487 49.4255 232.346 47.317 239.09Z" fill="#DB9E75"/>
<path d="M95.8181 219.371L91.3728 213.025L96.6424 215.331L95.8181 219.371Z" fill="#482D1F"/>
<path d="M117.187 195.525C117.248 194.886 117.742 194.374 118.374 194.33C118.796 194.301 119.18 194.486 119.389 195.212C119.876 196.873 118.412 199.411 117.661 198.51C117.089 197.915 117.144 196.428 117.187 195.525ZM107.785 195.865C107.847 195.225 108.34 194.714 108.973 194.67C109.394 194.64 109.778 194.825 109.987 195.552C110.474 197.213 109.01 199.751 108.259 198.85C107.688 198.255 107.69 196.772 107.785 195.865Z" fill="#482D1F"/>
<path d="M111.164 206.325C110.788 206.245 109.87 205.992 109.672 205.423C109.664 205.318 109.601 205.164 109.646 205.054C109.835 204.724 110.531 204.834 111.487 204.873C113.184 204.913 114.543 204.659 114.543 204.659C114.543 204.659 114.195 205.742 113.95 206.024C113.482 206.904 111.755 206.443 111.164 206.325Z" fill="#482D1F"/>
<path d="M120.856 191.191C121.375 191.049 121.542 190.402 121.147 190.059C120.643 189.671 119.816 189.199 118.758 189.22C116.591 189.266 114.308 190.696 116.678 191.272C118.19 191.695 119.865 191.419 120.856 191.191ZM110.633 191.906C111.152 191.764 111.319 191.117 110.872 190.778C110.368 190.389 109.541 189.917 108.43 189.942C106.262 189.988 103.983 191.471 106.35 191.994C107.915 192.414 109.59 192.138 110.633 191.906ZM83.2395 207.305C85.1936 205.996 86.5212 203.941 87.2225 201.139C86.2587 200.866 84.7748 200.277 83.5706 198.92C81.9539 197.1 81.0599 194.315 82.0692 191.603C82.9747 188.998 85.5805 186.945 88.1193 187.112C89.5472 187.193 90.6701 187.966 90.8304 188.069C92.5964 189.359 93.3653 191.036 93.3653 191.036L94.5074 193.935C96.3238 192.659 99.9788 187.818 105.472 179.413C108.524 179.046 110.88 178.791 112.541 178.65C115.033 178.437 117.707 178.688 118.713 178.284C118.641 178.462 118.568 178.642 118.496 178.822C118.676 178.51 118.767 178.336 118.767 178.336C118.817 178.176 117.958 177.399 117.956 177.293C112.711 170.358 103.054 171.002 101.262 171.245C101.05 171.249 100.84 171.305 100.628 171.256C97.6756 171.624 95.1942 171.721 93.5051 171.803C85.4799 172.101 82.3453 171.1 78.3136 173.178C77.5806 173.56 75.8534 174.488 74.354 176.364C73.4867 177.414 72.8361 178.529 72.352 179.657C67.7471 179.507 64.4775 181.796 62.5432 186.524C59.9604 192.837 63.9211 198.556 68.8541 200.894C70.9336 206.075 76.6366 209.807 81.2312 208.315C82.058 208.047 82.7274 207.71 83.2395 207.305Z" fill="#482D1F"/>
<path d="M114.477 196.156L114.469 196.08L114.476 196.118L114.477 196.156ZM115.496 201.674L115.503 201.733C115.543 202.308 115.187 202.869 114.62 203.005C114.515 203.023 114.457 203.031 114.398 203.039C113.844 203.114 113.444 203.147 112.008 203.248C111.717 203.268 111.465 203.049 111.444 202.758C111.424 202.467 111.643 202.214 111.935 202.194C113.345 202.095 113.733 202.063 114.256 201.992C114.311 201.984 114.365 201.977 114.42 201.969C114.408 201.97 114.448 201.905 114.45 201.827L113.43 196.271L113.422 196.194L113.31 193.078C113.299 192.786 113.527 192.541 113.818 192.531C114.11 192.521 114.355 192.748 114.365 193.04L114.476 196.118L115.496 201.674Z" fill="#482D1F"/>
<path d="M85.1212 244.528L85.1212 240.269C85.1212 239.832 85.476 239.477 85.9136 239.477C86.3512 239.477 86.7059 239.832 86.7059 240.269L86.7059 244.528C86.7059 244.966 86.3512 245.32 85.9136 245.32C85.476 245.32 85.1212 244.966 85.1212 244.528Z" fill="#482D1F"/>
<path opacity="0.2" d="M114.559 246.559C115.466 248.408 116.36 250.812 117.241 253.772C118.121 256.732 118.628 260.215 118.761 264.222L113.583 265.068C114.053 262.507 114.379 260.672 114.559 259.564C114.899 257.476 115.268 255.631 115.268 254.183C115.268 251.588 115.031 249.046 114.559 246.559ZM108.051 296.337L119.598 292.539L119.919 302.796C138.774 308.447 151.983 313.147 159.546 316.896C161.069 317.651 162.015 318.191 162.384 318.516C162.539 318.66 162.661 318.785 162.75 318.891C162.966 319.149 162.75 319.415 162.062 319.464C161.604 319.496 142.184 319.755 103.8 320.239L108.051 296.337Z" fill="#8C2A00"/>
</g>
<g clip-path="url(#clip4)">
<path d="M379.122 96.8568C395.168 96.8568 408.175 83.9494 408.175 68.0273C408.175 52.1053 395.168 39.1979 379.122 39.1979C363.077 39.1979 350.069 52.1053 350.069 68.0273C350.069 83.9494 363.077 96.8568 379.122 96.8568Z" fill="#474BFF"/>
<path d="M379.201 67.3548C375.996 67.3548 373.397 64.828 373.397 61.711C373.397 58.594 375.996 56.0671 379.201 56.0671C382.407 56.0671 385.005 58.594 385.005 61.711C385.005 64.828 382.407 67.3548 379.201 67.3548ZM379.201 70.1767C385.011 70.1767 389.721 74.7566 389.721 80.4062H368.681C368.681 74.7566 373.391 70.1767 379.201 70.1767Z" fill="#F2F6FB"/>
</g>
</g>
<defs>
<clipPath id="clip0">
<rect width="612" height="517" fill="white"/>
</clipPath>
<clipPath id="clip1">
<rect width="345.466" height="444.246" fill="white" transform="translate(129.267 -0.00708008)"/>
</clipPath>
<clipPath id="clip2">
<rect width="536.687" height="500.239" fill="white" transform="translate(214.313 16.8965)"/>
</clipPath>
<clipPath id="clip3">
<rect width="275.739" height="399.346" fill="white" transform="translate(-21.28 116.733)"/>
</clipPath>
<clipPath id="clip4">
<rect width="58.1059" height="58.1059" fill="white" transform="translate(350.069 39.0823)"/>
</clipPath>
</defs>
</svg>
