<svg width="898" height="634" viewBox="0 0 898 634" fill="none" xmlns="http://www.w3.org/2000/svg">
<g clip-path="url(#clip0)">
<path d="M589.511 55.9929H308.489C302.655 55.9929 297.925 60.7229 297.925 66.5576V489.674C297.925 495.509 302.655 500.239 308.489 500.239H589.511C595.345 500.239 600.075 495.509 600.075 489.674V66.5576C600.075 60.7229 595.345 55.9929 589.511 55.9929Z" fill="#F2F6FB"/>
<path d="M316.677 77.1361C319.449 77.1361 321.695 75.1259 321.695 72.6461C321.695 70.1664 319.449 68.1561 316.677 68.1561C313.906 68.1561 311.659 70.1664 311.659 72.6461C311.659 75.1259 313.906 77.1361 316.677 77.1361Z" fill="#FF5645"/>
<path d="M333.316 77.1361C335.942 77.1361 338.071 75.1259 338.071 72.6461C338.071 70.1664 335.942 68.1561 333.316 68.1561C330.691 68.1561 328.562 70.1664 328.562 72.6461C328.562 75.1259 330.691 77.1361 333.316 77.1361Z" fill="#FFCB3D"/>
<path d="M349.428 77.1361C351.907 77.1361 353.918 75.1259 353.918 72.6461C353.918 70.1664 351.907 68.1561 349.428 68.1561C346.948 68.1561 344.938 70.1664 344.938 72.6461C344.938 75.1259 346.948 77.1361 349.428 77.1361Z" fill="#3ABF7C"/>
<path d="M425.758 68.1561H472.771C473.646 68.1561 474.355 68.8656 474.355 69.7408V75.5514C474.355 76.4266 473.646 77.1361 472.771 77.1361H425.758C424.882 77.1361 424.173 76.4266 424.173 75.5514V69.7408C424.173 68.8656 424.882 68.1561 425.758 68.1561ZM559.929 68.1561H585.285C586.16 68.1561 586.869 68.8656 586.869 69.7408V75.5514C586.869 76.4266 586.16 77.1361 585.285 77.1361H559.929C559.054 77.1361 558.345 76.4266 558.345 75.5514V69.7408C558.345 68.8656 559.054 68.1561 559.929 68.1561ZM525.066 68.1561H549.893C550.768 68.1561 551.478 68.8656 551.478 69.7408V75.5514C551.478 76.4266 550.768 77.1361 549.893 77.1361H525.066C524.191 77.1361 523.481 76.4266 523.481 75.5514V69.7408C523.481 68.8656 524.191 68.1561 525.066 68.1561ZM391.422 208.826H507.634C508.218 208.826 508.691 209.299 508.691 209.883V218.875C508.691 219.459 508.218 219.932 507.634 219.932H391.422C390.839 219.932 390.366 219.459 390.366 218.875V209.883C390.366 209.299 390.839 208.826 391.422 208.826ZM370.293 190.846H527.707C528.291 190.846 528.764 191.319 528.764 191.902V200.895C528.764 201.478 528.291 201.951 527.707 201.951H370.293C369.709 201.951 369.236 201.478 369.236 200.895V191.902C369.236 191.319 369.709 190.846 370.293 190.846ZM316.413 249.324C316.413 248.159 317.364 247.214 318.527 247.214H580.53C581.697 247.214 582.644 248.159 582.644 249.324V420.678C582.644 421.843 581.693 422.787 580.53 422.787H318.527C317.359 422.787 316.413 421.843 316.413 420.678V249.324ZM318.065 436.322H438.896C439.838 436.322 440.179 436.42 440.524 436.605C440.868 436.789 441.138 437.059 441.322 437.403C441.507 437.748 441.605 438.089 441.605 439.031V474.863C441.605 475.805 441.507 476.146 441.322 476.491C441.138 476.835 440.868 477.105 440.524 477.289C440.179 477.473 439.838 477.571 438.896 477.571H318.065C317.123 477.571 316.782 477.473 316.437 477.289C316.093 477.105 315.823 476.835 315.639 476.491C315.455 476.146 315.356 475.805 315.356 474.863V439.031C315.356 438.089 315.455 437.748 315.639 437.403C315.823 437.059 316.093 436.789 316.437 436.605C316.782 436.42 317.123 436.322 318.065 436.322ZM459.104 436.322H579.935C580.877 436.322 581.218 436.42 581.563 436.605C581.907 436.789 582.177 437.059 582.361 437.403C582.545 437.748 582.644 438.089 582.644 439.031V474.863C582.644 475.805 582.545 476.146 582.361 476.491C582.177 476.835 581.907 477.105 581.563 477.289C581.218 477.473 580.877 477.571 579.935 477.571H459.104C458.162 477.571 457.821 477.473 457.476 477.289C457.132 477.105 456.862 476.835 456.677 476.491C456.493 476.146 456.395 475.805 456.395 474.863V439.031C456.395 438.089 456.493 437.748 456.677 437.403C456.862 437.059 457.132 436.789 457.476 436.605C457.821 436.42 458.162 436.322 459.104 436.322Z" fill="#E1E5F0"/>
<path d="M493.874 306.425C501.587 306.425 507.839 300.147 507.839 292.403C507.839 284.658 501.587 278.38 493.874 278.38C486.162 278.38 479.909 284.658 479.909 292.403C479.909 300.147 486.162 306.425 493.874 306.425Z" fill="#F2F6FB"/>
<path d="M449.264 177.571V175.458C452.202 175.458 455.089 175.074 457.872 174.325L458.421 176.365C455.46 177.163 452.388 177.571 449.264 177.571ZM466.946 172.803L465.881 170.978C468.391 169.513 470.699 167.721 472.742 165.654L474.245 167.14C472.071 169.338 469.616 171.244 466.946 172.803ZM479.825 159.775L477.988 158.731C479.422 156.209 480.518 153.505 481.243 150.683L483.289 151.209C482.517 154.213 481.351 157.091 479.825 159.775ZM484.389 141.991L482.276 142.018C482.239 139.082 481.818 136.2 481.033 133.426L483.066 132.85C483.902 135.803 484.35 138.869 484.389 141.991ZM479.39 124.368L477.579 125.457C476.082 122.966 474.261 120.682 472.167 118.665L473.633 117.143C475.86 119.289 477.797 121.718 479.39 124.368ZM466.199 111.66L465.179 113.511C462.639 112.11 459.922 111.05 457.09 110.362L457.589 108.308C460.604 109.041 463.496 110.17 466.199 111.66ZM448.36 107.327L448.413 109.439C445.479 109.514 442.602 109.972 439.837 110.794L439.234 108.769C442.177 107.893 445.239 107.406 448.36 107.327ZM430.801 112.553L431.914 114.35C429.443 115.879 427.182 117.73 425.192 119.849L423.651 118.403C425.768 116.149 428.173 114.18 430.801 112.553ZM418.264 125.908L420.128 126.904C418.761 129.461 417.736 132.192 417.084 135.033L415.025 134.561C415.718 131.536 416.809 128.63 418.264 125.908ZM414.162 143.802L416.274 143.722C416.385 146.654 416.88 149.525 417.739 152.28L415.722 152.909C414.808 149.976 414.281 146.921 414.162 143.802ZM419.615 161.29L421.397 160.155C422.958 162.606 424.838 164.843 426.982 166.805L425.556 168.364C423.275 166.277 421.276 163.897 419.615 161.29ZM433.128 173.654L434.1 171.778C436.675 173.111 439.417 174.101 442.268 174.716L441.823 176.781C438.788 176.126 435.868 175.073 433.128 173.654ZM471.379 391.339L453.05 391.422L453.102 391.339H373.05C368.091 391.339 366.204 387.931 368.834 383.727L423.539 296.281C426.169 292.077 430.522 292.017 433.265 296.156L473.915 358.003L488.295 334.969C490.614 331.255 494.459 331.197 496.887 334.842L530.18 384.825C532.607 388.469 531.049 391.104 526.665 390.968L502.319 391.2L494.632 391.234L494.696 391.339C494.696 391.339 490.679 391.339 485.718 391.339H471.379Z" fill="#474BFF"/>
<path opacity="0.176986" d="M494.479 391.459C494.479 391.459 490.462 391.459 485.5 391.459H372.833C367.874 391.459 365.987 388.051 368.616 383.847L423.321 296.401C425.951 292.197 430.305 292.137 433.048 296.276L480.354 368.251" fill="#444444"/>
</g>
<g clip-path="url(#clip1)">
<path d="M756.433 573.135H702.289C701.021 573.135 699.912 572.221 699.912 571.124V570.392C699.912 569.295 700.968 568.381 702.289 568.381H756.433C757.701 568.381 758.81 569.295 758.81 570.392V571.124C758.81 572.221 757.754 573.135 756.433 573.135ZM632.034 568.381C633.346 568.381 634.411 569.445 634.411 570.758C634.411 572.071 633.346 573.135 632.034 573.135H545.931C544.618 573.135 543.554 572.071 543.554 570.758C543.554 569.445 544.618 568.381 545.931 568.381H632.034Z" fill="#DE3190"/>
<path d="M756.721 568.397C756.627 568.387 756.53 568.381 756.433 568.381H702.471L706.74 541.434L744.562 536.31L756.721 568.397ZM632.348 568.402C632.245 568.388 632.14 568.381 632.034 568.381H546.305C546.249 568.092 546.22 567.727 546.228 567.255C546.287 566.887 546.295 566.464 546.408 566.043C547.086 563.519 547.907 561.843 550.311 560.353C552.714 558.863 555.168 557.532 557.724 556.362C567.153 551.93 570.374 551.986 576.574 547.92C579.139 546.222 581.498 544.255 583.701 542.128C585.17 540.709 588.169 538.405 592.698 535.215L633.423 536.127L632.348 568.402Z" fill="#474961"/>
<path d="M689.668 244.688C693.688 252.515 704.57 276.803 714.285 326.243C715.085 330.345 715.853 334.338 716.59 338.216L716.664 338.126C729.977 388.29 739.218 423.408 744.388 443.481C749.697 464.096 742.334 463.775 746.36 481.118C748.681 491.118 756.458 499.159 756.391 509.571C756.38 511.216 756.42 514.505 756.51 519.437C756.671 528.247 750.232 535.791 741.507 537.018L706.264 541.971C696.731 543.311 687.916 536.668 686.576 527.135C686.564 527.047 686.552 526.959 686.541 526.871C685.59 519.266 685.109 514.745 685.097 513.308C685.071 510.33 685.034 507.618 684.977 505.148C682.946 496.838 680.83 488.19 679.127 481.218C676.83 477.668 674.127 472.762 671.996 464.823C670.595 459.601 667.408 439.273 662.438 403.841C662.342 403.366 662.161 401.901 661.893 399.446L654.935 373.838C654.645 376.829 654.349 379.855 654.05 382.907C654.663 425.348 654.647 449.189 654.002 454.433C651.969 470.933 645.889 475.477 645.711 480.662C645.537 485.741 646.309 493.143 647.776 504.268C647.964 505.693 648.117 510.237 648.234 517.9C648.235 517.989 648.236 518.078 648.236 518.167C648.236 525.882 643.223 532.427 636.276 534.722C631.905 538.701 624.869 535.674 606.392 535.8C606.392 535.8 603.549 535.825 599.794 535.598L595.215 535.598C592.504 535.598 589.924 534.976 587.62 533.859C585.436 533.247 583.629 532.443 582.622 531.385C581.781 530.477 581.251 529.447 581.251 529.447C581 528.885 580.82 528.332 580.69 527.809C579.229 525.611 578.25 523.054 577.911 520.277C577.314 515.38 576.895 512.118 576.656 510.49C575.14 500.189 581.722 491.144 582.629 480.919C584.202 463.183 576.956 464.527 579.344 443.373C581.648 422.967 586.007 399.414 592.421 372.711C596.131 330.656 601.013 283.402 606.392 267.523C606.481 267.24 609.837 255.984 614.687 248.039C614.835 248.199 614.989 248.352 615.148 248.498C615.755 249.069 616.359 249.481 616.962 249.788C618.168 250.506 619.168 250.753 619.168 250.753C619.168 250.753 619.218 250.752 619.268 250.804C619.268 250.804 651.654 258.903 683.787 249.678L683.886 249.623C683.886 249.623 684.876 249.342 686.057 248.581C686.598 248.255 687.237 247.768 687.825 247.23C688.561 246.51 689.168 245.643 689.668 244.688Z" fill="#A339FF"/>
<path opacity="0.176986" d="M621.615 251.32L638.525 313.667L654.919 374.006C654.634 376.942 654.344 379.912 654.05 382.907C654.663 425.348 654.647 449.189 654.002 454.432C651.969 470.933 645.889 475.477 645.711 480.662C645.537 485.741 646.309 493.143 647.776 504.268C647.964 505.693 648.117 510.237 648.234 517.9C648.235 517.989 648.236 518.078 648.236 518.167C648.236 525.882 643.223 532.427 636.276 534.722C631.905 538.701 624.869 535.674 606.392 535.8C606.392 535.8 603.549 535.825 599.794 535.598L595.215 535.598C592.504 535.598 589.924 534.976 587.62 533.859C585.436 533.247 583.629 532.443 582.622 531.385C581.781 530.477 581.251 529.447 581.251 529.447C581 528.885 580.82 528.332 580.69 527.809C579.229 525.611 578.25 523.054 577.911 520.277C577.314 515.38 576.895 512.118 576.656 510.49C575.14 500.189 581.722 491.144 582.629 480.919C584.202 463.183 576.956 464.527 579.344 443.373C581.648 422.967 586.007 399.414 592.421 372.711C596.131 330.656 601.013 283.402 606.392 267.523C606.481 267.24 609.837 255.984 614.687 248.039C614.835 248.199 614.989 248.352 615.148 248.498C615.755 249.069 616.359 249.481 616.962 249.788C618.168 250.506 619.168 250.753 619.168 250.753C619.168 250.753 619.218 250.752 619.268 250.804C619.268 250.804 620.095 251.011 621.615 251.32Z" fill="#444444"/>
<path d="M690.229 178.376C690.29 178.983 690.35 179.611 690.408 180.257L690.411 180.416L690.555 183.002C691.406 211.781 691.831 224.717 692.069 229.785C692.069 229.785 692.028 230.314 692.092 231.105C692.232 233.427 692.448 242.986 688.045 247.289C687.457 247.828 686.819 248.314 686.277 248.641C685.096 249.401 684.106 249.683 684.106 249.683L684.008 249.737C651.875 258.962 619.489 250.863 619.489 250.863C619.489 250.863 618.185 250.574 616.979 249.855C616.376 249.549 615.737 249.105 615.13 248.535C610.629 244.387 610.75 234.849 610.809 232.524C610.796 231.784 610.786 231.203 610.786 231.203C610.842 226.37 610.823 214.63 610.691 189.163C598.075 187.993 592.967 184.354 595.368 178.246C600.822 164.371 604.435 151.058 626.058 149.52C631.364 146.875 637.157 145.989 641.19 145.719C643.526 145.573 645.268 145.595 645.965 145.636C646.264 145.631 646.663 145.677 647.41 145.717C648.157 145.756 649.003 145.794 649.95 145.831C650.894 145.761 651.739 145.694 652.484 145.628C653.229 145.562 653.576 145.503 653.925 145.497C654.67 145.431 656.36 145.349 658.7 145.414C659.258 145.432 659.85 145.46 660.47 145.501C660.782 145.429 661.099 145.359 661.421 145.289C683.647 140.493 690.674 152.636 699.697 164.848C703.308 169.736 700.153 174.245 690.229 178.376Z" fill="#DE3190"/>
<path opacity="0.176986" d="M625.723 149.518C622.636 151.075 619.719 153.231 617.418 156.215C616.397 157.554 615.089 159.584 614.095 162.507C613.953 162.932 613.81 163.304 613.668 163.73C613.336 164.634 612.623 166.548 612.012 168.619C611.356 170.955 610.837 175.402 610.497 181.589L610.5 181.748L610.445 184.337C610.454 185.968 610.462 187.549 610.47 189.079C598.165 187.867 593.2 184.241 595.574 178.203C600.982 164.445 604.58 151.239 625.723 149.518Z" fill="#444444"/>
<path d="M686.581 307.599C686.141 307.94 685.88 308.093 685.88 308.093C678.946 306.929 688.861 281.246 691.816 273.976L666.925 184.939C682.377 181.672 692.57 178.111 697.503 174.256C710.922 228.252 718.173 262.884 719.256 278.152C719.339 278.636 719.39 279.155 719.408 279.709C719.697 288.594 716.745 302.191 710.551 320.501C710.502 320.609 694.393 328.518 683.059 321.831L686.581 307.599ZM618.798 99.1498C618.821 99.1204 618.843 99.0905 618.865 99.0602C623.501 93.8643 632.036 94.0177 635.879 94.8466C636.347 94.9488 638.006 95.3357 640.406 95.7473C641.708 95.9904 642.759 96.1008 643.383 96.2196C651.178 97.3575 654.377 96.7377 658.096 99.2532C658.793 99.6982 660.375 100.82 661.652 102.814C665.256 108.451 663.551 115.07 663.078 117.039C661.503 122.929 657.65 126.242 656.439 127.655C655.538 128.723 654.287 129.916 653.071 130.993L654.248 148.042C654.261 148.412 654.116 148.787 653.804 148.956C652.461 149.849 650.541 150.867 648.131 151.48C643.785 152.636 640.011 152.028 637.877 151.468C637.451 151.377 637.119 150.966 637.105 150.544L636.467 139.364C636.004 139.484 635.511 139.61 634.985 139.741C630.343 140.952 630.622 140.822 630.296 140.894C626.898 141.387 624.072 140.984 623.558 140.823C621.683 140.467 619.852 138.681 618.348 135.814C616.307 131.988 614.738 126.193 614.284 119.4C614.173 118.432 614.22 117.481 614.267 116.53L615.045 107.104C615.213 104.997 615.907 102.945 617.156 101.165C617.665 100.368 618.157 99.7295 618.743 99.2068C618.761 99.1877 618.78 99.1688 618.798 99.1498ZM595.413 183.421C597.093 186.454 602.186 188.365 610.692 189.154C610.784 206.972 610.821 218.07 610.816 224.784C598.131 240.407 589.643 237.97 589.643 237.97C583.732 238.226 579.211 235.538 577.505 234.505C562.624 225.531 534.374 175.584 529.501 166.834C523.069 165.953 517.065 164.263 511.487 161.764C502.592 157.778 499.008 153.997 500.734 150.42L546.32 153.363L546.445 153.276L585.98 194.884C590.123 190.482 592.938 186.887 595.413 183.421Z" fill="#F2A98A"/>
<path opacity="0.2" d="M595.584 183.421C597.264 186.454 602.356 188.365 610.862 189.154C610.954 206.972 610.992 218.07 610.987 224.784C598.301 240.407 589.814 237.97 589.814 237.97C583.902 238.226 579.381 235.538 577.676 234.505C562.794 225.531 534.544 175.584 529.672 166.834C523.24 165.953 517.235 164.263 511.658 161.764C502.763 157.778 499.178 153.997 500.905 150.42L546.49 153.363L546.615 153.276L586.15 194.884C590.293 190.482 593.108 186.887 595.584 183.421Z" fill="#8C2A00"/>
<path d="M635.611 139.549L643.393 137.066L637.026 146.794L635.611 139.549Z" fill="#482D1F"/>
<path d="M654.584 118.208C654.64 116.928 654.377 115.615 653.688 114.406C652.256 111.865 649.242 110.22 646.632 110.796C645.164 111.119 644.102 112.123 643.986 112.217C642.38 113.854 641.866 115.712 641.866 115.712L641.608 116.946C622.676 109.724 619.005 100.608 618.019 100.034C618.32 99.6935 618.616 99.4059 618.801 99.1598C623.49 93.9693 632.182 94.1394 636.078 94.9738C636.598 95.0815 638.257 95.4683 640.71 95.8855C642.065 96.1341 643.115 96.2445 643.74 96.3633C651.692 97.5178 654.944 96.9035 658.715 99.4245C659.412 99.8695 661.046 100.997 662.324 102.991C666.309 109.04 664.494 115.701 663.803 117.221C663.319 118.286 662.559 118.95 662.559 118.95C659.761 118.53 657.153 118.344 654.584 118.208ZM612.924 113.9C612.402 113.767 612.279 113.073 612.668 112.723C613.165 112.326 614.031 111.948 615.086 112.004C617.249 112.117 619.495 113.663 617.036 114.169C615.592 114.463 613.915 114.164 612.924 113.9ZM623.771 114.839C623.249 114.706 623.127 114.012 623.568 113.665C624.065 113.268 624.931 112.89 626.039 112.948C628.202 113.061 630.445 114.66 627.988 115.113C626.437 115.455 624.762 115.103 623.771 114.839Z" fill="#482D1F"/>
<path d="M616.845 117.809C616.745 118.703 616.509 120.171 615.954 120.671C615.016 121.415 613.994 118.717 614.765 117.118C615.065 116.446 615.44 116.36 615.859 116.435C616.486 116.573 616.878 117.176 616.845 117.809ZM626.293 118.198C626.299 119.097 626.221 120.574 625.66 121.18C624.822 122.035 623.478 119.426 624.094 117.765C624.341 117.091 624.718 116.952 625.14 116.974C625.773 117.007 626.273 117.562 626.293 118.198Z" fill="#482D1F"/>
<path d="M621.4 128.785C621.775 128.699 622.686 128.482 622.874 127.91C622.88 127.805 622.941 127.649 622.894 127.541C622.702 127.161 622.058 127.339 621.106 127.342C619.412 127.359 618.049 127.128 618.049 127.128C618.049 127.128 618.363 128.203 618.61 128.533C619.096 129.352 620.812 128.913 621.4 128.785Z" fill="#482D1F"/>
<path d="M618.369 117.994L618.378 117.921L618.371 117.957L618.369 117.994ZM617.291 123.524C617.16 124.114 617.591 124.722 618.187 124.854C618.318 124.873 618.318 124.873 618.403 124.884C619.289 124.999 619.845 125.054 620.8 125.104C621.091 125.119 621.34 124.895 621.355 124.604C621.37 124.313 621.147 124.064 620.855 124.049C619.93 124 619.401 123.948 618.539 123.836L618.369 123.814C618.368 123.812 618.323 123.749 618.325 123.739L619.415 118.122L619.424 118.05L619.587 114.937C619.602 114.646 619.379 114.397 619.087 114.382C618.796 114.367 618.547 114.591 618.532 114.882L618.371 117.957L617.291 123.524Z" fill="#482D1F"/>
<path d="M654.549 117.393C654.628 118.958 654.175 120.604 653.334 121.879C652.307 123.488 651.014 124.288 649.395 124.839C649.119 124.932 648.971 125.232 649.065 125.509C649.159 125.785 649.459 125.933 649.735 125.839C650.447 125.597 651.018 125.351 651.692 124.933C652.686 124.318 653.549 123.505 654.221 122.454C655.18 120.999 655.695 119.13 655.604 117.34C655.59 117.049 655.342 116.824 655.05 116.839C654.759 116.854 654.535 117.102 654.549 117.393Z" fill="#482D1F"/>
<path d="M694.912 304.959C694.995 304.529 695.412 304.249 695.841 304.333C696.271 304.417 696.551 304.833 696.467 305.262C695.941 307.96 695.466 310.043 694.356 314.671C693.251 319.278 692.779 321.346 692.259 324.014C692.176 324.444 691.76 324.724 691.33 324.64C690.9 324.557 690.62 324.141 690.704 323.711C691.23 321.013 691.705 318.93 692.815 314.302C693.92 309.695 694.392 307.627 694.912 304.959ZM705.626 302.634C705.736 302.211 706.168 301.957 706.592 302.067C707.016 302.177 707.27 302.61 707.159 303.033C706.405 305.935 705.871 308.196 704.721 313.244C703.568 318.306 703.031 320.579 702.271 323.501C702.161 323.924 701.729 324.178 701.305 324.068C700.882 323.958 700.628 323.525 700.738 323.102C701.492 320.201 702.026 317.939 703.176 312.892C704.329 307.829 704.866 305.556 705.626 302.634Z" fill="#482D1F"/>
</g>
<path d="M166.306 454.569V454.668C166.306 455.936 167.416 456.992 168.684 456.992H208.566L194.514 482.77C184.478 501.153 174.494 519.482 164.51 537.865L147.977 568.186C147.396 569.242 147.871 570.616 148.98 571.249L149.192 571.355C150.301 571.989 151.727 571.619 152.255 570.616L214.112 456.992H255.314L317.17 570.616C317.699 571.619 319.125 571.936 320.234 571.355L320.446 571.249C321.555 570.616 322.03 569.242 321.449 568.186L304.915 537.865C294.879 519.482 284.895 501.153 274.912 482.77L260.86 456.992H313.737C315.058 456.992 316.114 455.936 316.114 454.668V454.404C316.114 453.136 315.005 452.079 313.737 452.079H277.817C254.416 452.079 230.962 452.079 207.509 452.079H170.97L166.518 416.054C163.454 391.544 160.443 366.981 157.379 342.418L152.361 301.849C152.203 300.423 150.988 299.367 149.667 299.525L149.403 299.578C148.135 299.736 147.237 301.057 147.396 302.378L166.254 454.298C166.267 454.391 166.285 454.481 166.306 454.569Z" fill="#D8DEED"/>
<g clip-path="url(#clip2)">
<path d="M281.407 567.531C281.083 567.368 280.719 567.276 280.338 567.276H251.775L199.355 528.222L219.218 500.397L251.017 523.481C252.761 529.397 254.557 535.314 256.353 541.283C257.303 544.399 258.254 547.463 259.205 550.527C262.163 551.689 264.699 552.745 266.495 553.538C269.928 555.017 272.833 556.39 276.003 558.45C276.003 558.45 278.75 560.141 280.282 562.571C280.757 563.363 281.18 564.261 281.444 565.212C281.549 565.634 281.549 566.057 281.602 566.427C281.586 566.773 281.507 567.162 281.407 567.531ZM380.346 567.443C380.172 567.403 379.991 567.381 379.805 567.381H294.759C294.6 567.381 294.444 567.397 294.294 567.427L293.468 534.497L333.407 534.381C338.288 537.571 341.463 539.875 342.931 541.294C345.135 543.421 347.494 545.388 350.059 547.087C356.259 551.152 359.48 551.096 368.909 555.528C371.465 556.698 373.919 558.029 376.322 559.519C378.726 561.009 379.547 562.685 380.225 565.21C380.338 565.63 380.346 566.053 380.405 566.422C380.412 566.839 380.391 567.172 380.346 567.443Z" fill="#474961"/>
<path d="M249.851 571.604C249.798 571.571 249.747 571.535 249.697 571.498L196.662 531.986C195.605 531.193 195.394 529.661 196.187 528.605C196.979 527.548 198.511 527.337 199.567 528.13L252.035 567.219H280.599C281.919 567.219 283.028 568.328 283.028 569.649C283.028 570.969 281.919 572.079 280.599 572.079H251.281C250.744 572.079 250.251 571.904 249.851 571.604ZM295.019 567.325H380.065C381.378 567.325 382.442 568.389 382.442 569.702C382.442 571.014 381.378 572.079 380.065 572.079H295.019C293.707 572.079 292.642 571.014 292.642 569.702C292.642 568.389 293.707 567.325 295.019 567.325Z" fill="#FF5645"/>
<path d="M351.285 433.004C347.349 453.693 345.739 484.016 349.599 503.104C349.599 503.104 353.608 535.907 350.799 536.119C350.119 536.171 342.876 536.488 342.111 536.541C323.049 537.809 289.947 540.344 285.011 540.344C281.721 540.344 280.075 538.232 280.075 534.006L279.002 522.659V522.566C275.361 526.91 271.582 531.414 267.665 536.078C261.836 537.808 253.02 535.33 241.217 528.644C229.413 521.958 220.277 515.367 213.808 508.87C210.691 506.863 203.106 495.761 205.114 492.856L218.372 473.523L226.296 461.954C228.515 458.679 230.189 456.508 232.566 453.075C232.566 453.022 232.992 452.393 232.992 452.34C232.147 452.34 233.11 451.654 227.088 451.601C221.066 451.548 188.633 450.861 176.219 432.954C171.267 425.811 170.884 417.9 170.514 414.36C169.141 400.591 172.773 389.432 181.412 380.884C183.725 379.184 185.428 378.176 186.52 377.859C188.263 377.331 197.454 377.067 199.25 376.961L236.121 376.486C253.667 376.253 268.315 376.054 280.068 375.891L280.075 375.799L280.068 375.891C303.816 375.56 315.738 375.371 315.832 375.324C316.043 375.218 338.832 376.169 344.959 379.708C356.696 386.585 362.868 408.253 351.285 433.004Z" fill="#FFCB3D"/>
<path opacity="0.176986" d="M351.17 433.211C347.25 453.897 345.653 484.143 349.505 503.195C349.505 503.195 353.514 535.998 350.706 536.21C350.025 536.263 342.783 536.579 342.017 536.632C322.955 537.9 289.853 540.436 284.917 540.436C281.627 540.436 279.982 538.323 279.982 534.097L278.91 522.768C324.417 468.463 348.236 439.166 350.367 434.877C350.643 434.32 350.911 433.765 351.17 433.211ZM279.96 376.149L279.982 375.89L279.96 376.149ZM299.911 375.864C299.901 375.864 299.891 375.864 299.88 375.864L299.129 375.732H299.214C299.447 375.776 299.679 375.82 299.911 375.864Z" fill="#8C2A00"/>
<path d="M256.95 417.106C254.344 421.048 251.599 424.878 244.935 433.995C238.248 443.142 235.495 446.984 232.863 450.965C232.541 451.452 232.675 452.108 233.161 452.429C233.648 452.751 234.304 452.617 234.625 452.131C237.232 448.188 239.976 444.358 246.641 435.242C253.328 426.094 256.081 422.252 258.713 418.271C259.035 417.784 258.901 417.129 258.414 416.807C257.928 416.485 257.272 416.619 256.95 417.106Z" fill="#482D1F"/>
<path d="M345.372 281.715C347.165 283.116 347.483 285.705 346.082 287.498C346.061 287.526 346.039 287.553 346.017 287.58L324.192 314.103C323.071 315.465 321.07 315.685 319.68 314.599C318.291 313.514 318.02 311.518 319.07 310.102L339.526 282.508C340.881 280.68 343.461 280.297 345.289 281.652C345.317 281.672 345.345 281.694 345.372 281.715Z" fill="#474961"/>
<path d="M340.855 287.201C345.453 290.793 352.034 290.052 355.555 285.546C357.248 283.379 354.893 278.865 355.477 272.169C355.614 270.604 356.699 268.076 358.735 264.584L358.735 264.584C358.882 264.332 358.797 264.009 358.545 263.862C358.421 263.79 358.275 263.771 358.137 263.809C347.574 266.737 341.163 269.646 338.905 272.537C335.384 277.043 336.257 283.609 340.855 287.201Z" fill="white"/>
<path d="M345.853 280.862C346.936 281.708 350.486 279.519 351.005 280.665C352.743 284.506 352.689 289.701 355.54 286.052C357.319 283.775 354.94 279.104 355.63 272.123C355.792 270.488 356.954 267.831 359.117 264.153L359.117 264.153C359.265 263.901 359.181 263.577 358.929 263.429C358.804 263.356 358.654 263.337 358.514 263.377C347.53 266.563 340.85 269.677 338.474 272.718C336.345 275.444 338.053 276.858 341.298 277.303C342.432 277.459 343.2 276.124 344.799 275.816C346.577 275.473 344.799 280.039 345.853 280.862Z" fill="#474BFF"/>
<path d="M242.846 281.741C255.977 286.299 264.293 299.777 261.839 314.029L250.813 376.291L189.81 377.384C186.318 376.757 183.855 375.296 182.422 373C180.273 369.555 180.858 365.19 181.151 363.509L192.161 301.945C194.882 286.323 209.614 275.806 225.22 278.279L226.288 273.257C226.409 272.686 226.97 272.322 227.541 272.443L243.042 275.738C243.612 275.859 243.977 276.42 243.855 276.991L242.846 281.741Z" fill="#FF5645"/>
<path d="M230.208 255.514C229.098 266.784 228.502 272.475 228.421 272.588C228.337 272.704 233.124 273.738 242.78 275.688L243.638 271.329C243.863 271.413 244.095 271.499 244.334 271.586C248.801 273.305 248.535 273.151 248.853 273.251C252.196 274.091 255.047 273.988 255.575 273.926C260.006 273.532 265.041 265.361 267.161 253.648C267.355 252.693 267.392 251.742 267.481 250.789L267.738 241.328C267.807 239.213 267.347 237.108 266.312 235.277C265.875 234.492 265.44 233.76 264.954 233.188C259.387 225.994 249.375 227.49 247.583 227.732C247.372 227.736 247.162 227.792 246.95 227.796C244.952 228.306 243.15 227.968 241.247 227.948C240.402 227.963 239.728 228.662 239.69 229.508L239.661 243.033C239.631 244.302 235.971 241.409 234.543 241.328C232.005 241.161 229.237 245.117 228.332 247.722C227.324 250.539 228.219 253.376 229.889 255.196C229.994 255.307 230.1 255.413 230.208 255.514ZM265.141 349.032C266.263 348.651 267.382 348.268 268.498 347.883C277.037 344.937 285.441 341.934 294.561 338.597C297.633 337.505 298.952 336.958 301.157 336.082C308.342 333.201 335.38 322.134 336.675 321.103C341.23 319.151 338.24 302.926 338.24 296.999C330.693 300.318 320.319 304.569 307.117 309.751C304.453 311.123 302.532 312.906 301.157 314.392C298.912 314.561 280.96 317.685 264.42 320.451C264.873 320.374 265.327 320.296 265.781 320.219C265.674 315.997 264.895 309.555 261.542 302.559C262.377 306.209 262.517 310.09 261.839 314.029L260.588 321.089C250.913 322.694 242.215 324.081 238.13 324.545C237.899 323.877 236.081 315.993 232.675 300.893L201.191 309.751C201.913 314.089 203.647 321.043 206.392 330.611C210.509 344.964 212.099 355.683 222.869 358.823C225.38 359.558 228.634 359.444 235.859 357.698C242.659 356.053 248.977 354.244 255.053 352.338L250.823 376.22L250.8 376.22L250.813 376.291L308.757 375.484C311.816 375.389 308.252 373.3 298.066 369.215C287.88 365.131 277.498 361.658 266.919 358.796L266.601 348.538C266.115 348.703 265.628 348.868 265.141 349.032ZM194.317 295.09C202.058 298.441 209.552 298.831 216.799 296.26C224.046 293.689 227.729 287.916 227.846 278.941C221.519 277.015 214.876 277.539 207.918 280.513C200.959 283.487 196.425 288.346 194.317 295.09Z" fill="#DB9E75"/>
<path d="M242.818 275.371L238.373 269.025L243.643 271.331L242.818 275.371Z" fill="#482D1F"/>
<path d="M264.187 251.525C264.248 250.886 264.742 250.374 265.374 250.33C265.796 250.301 266.18 250.486 266.389 251.212C266.876 252.873 265.412 255.411 264.661 254.51C264.089 253.915 264.144 252.428 264.187 251.525ZM254.785 251.865C254.847 251.225 255.34 250.714 255.973 250.67C256.394 250.64 256.778 250.825 256.987 251.552C257.474 253.213 256.01 255.751 255.259 254.85C254.688 254.255 254.69 252.772 254.785 251.865Z" fill="#482D1F"/>
<path d="M258.164 262.325C257.788 262.245 256.87 261.992 256.672 261.423C256.664 261.318 256.601 261.164 256.646 261.054C256.835 260.724 257.531 260.834 258.487 260.873C260.184 260.913 261.543 260.659 261.543 260.659C261.543 260.659 261.195 261.742 260.95 262.024C260.482 262.904 258.755 262.443 258.164 262.325Z" fill="#482D1F"/>
<path d="M267.856 247.191C268.375 247.049 268.542 246.402 268.147 246.059C267.643 245.671 266.816 245.199 265.758 245.22C263.591 245.266 261.308 246.696 263.678 247.272C265.19 247.695 266.865 247.419 267.856 247.191ZM257.633 247.906C258.152 247.764 258.319 247.117 257.872 246.778C257.368 246.389 256.541 245.917 255.43 245.942C253.262 245.988 250.983 247.471 253.35 247.994C254.915 248.414 256.59 248.138 257.633 247.906ZM230.239 263.305C232.194 261.996 233.521 259.941 234.222 257.139C233.259 256.866 231.775 256.277 230.571 254.92C228.954 253.1 228.06 250.315 229.069 247.603C229.975 244.998 232.58 242.945 235.119 243.112C236.547 243.193 237.67 243.966 237.83 244.069C239.596 245.359 240.365 247.036 240.365 247.036L241.507 249.935C243.324 248.659 246.979 243.818 252.472 235.413C255.524 235.046 257.88 234.791 259.541 234.65C262.033 234.437 264.707 234.688 265.713 234.284C265.641 234.462 265.568 234.642 265.496 234.822C265.676 234.51 265.767 234.336 265.767 234.336C265.817 234.176 264.958 233.399 264.956 233.293C259.711 226.358 250.054 227.002 248.262 227.245C248.05 227.249 247.84 227.305 247.628 227.256C244.676 227.624 242.194 227.721 240.505 227.803C232.48 228.101 229.345 227.1 225.314 229.178C224.581 229.56 222.853 230.488 221.354 232.364C220.487 233.414 219.836 234.529 219.352 235.657C214.747 235.507 211.478 237.796 209.543 242.524C206.96 248.837 210.921 254.556 215.854 256.894C217.934 262.075 223.637 265.807 228.231 264.315C229.058 264.047 229.727 263.71 230.239 263.305Z" fill="#482D1F"/>
<path d="M261.477 252.156L261.469 252.08L261.476 252.118L261.477 252.156ZM262.496 257.674L262.503 257.733C262.543 258.308 262.187 258.869 261.62 259.005C261.516 259.023 261.457 259.031 261.398 259.039C260.844 259.114 260.444 259.147 259.008 259.248C258.717 259.268 258.465 259.049 258.445 258.758C258.424 258.467 258.644 258.214 258.935 258.194C260.345 258.095 260.733 258.063 261.256 257.992C261.311 257.984 261.365 257.977 261.42 257.969C261.408 257.97 261.448 257.905 261.45 257.827L260.43 252.271L260.422 252.194L260.31 249.078C260.299 248.786 260.527 248.541 260.819 248.531C261.11 248.521 261.355 248.748 261.365 249.04L261.476 252.118L262.496 257.674Z" fill="#482D1F"/>
<path d="M232.121 300.528L232.121 296.269C232.121 295.832 232.476 295.477 232.914 295.477C233.351 295.477 233.706 295.832 233.706 296.269L233.706 300.528C233.706 300.966 233.351 301.32 232.914 301.32C232.476 301.32 232.121 300.966 232.121 300.528Z" fill="#482D1F"/>
<path opacity="0.2" d="M261.559 302.559C262.466 304.408 263.36 306.812 264.241 309.772C265.121 312.732 265.628 316.215 265.761 320.222L260.583 321.068C261.053 318.507 261.379 316.672 261.559 315.564C261.899 313.476 262.268 311.631 262.268 310.183C262.268 307.588 262.031 305.046 261.559 302.559ZM255.051 352.337L266.598 348.539L266.919 358.796C285.774 364.447 298.983 369.147 306.546 372.896C308.069 373.651 309.015 374.191 309.384 374.516C309.539 374.66 309.661 374.785 309.75 374.891C309.966 375.149 309.75 375.415 309.062 375.464C308.604 375.496 289.184 375.755 250.8 376.239L255.051 352.337Z" fill="#8C2A00"/>
</g>
<g clip-path="url(#clip3)">
<path d="M526.122 152.857C542.168 152.857 555.175 139.949 555.175 124.027C555.175 108.105 542.168 95.1979 526.122 95.1979C510.077 95.1979 497.069 108.105 497.069 124.027C497.069 139.949 510.077 152.857 526.122 152.857Z" fill="#474BFF"/>
<path d="M526.201 123.355C522.996 123.355 520.397 120.828 520.397 117.711C520.397 114.594 522.996 112.067 526.201 112.067C529.407 112.067 532.005 114.594 532.005 117.711C532.005 120.828 529.407 123.355 526.201 123.355ZM526.201 126.177C532.011 126.177 536.721 130.757 536.721 136.406H515.681C515.681 130.757 520.391 126.177 526.201 126.177Z" fill="#F2F6FB"/>
</g>
<defs>
<clipPath id="clip0">
<rect width="345.466" height="444.246" fill="white" transform="translate(276.267 55.9929)"/>
</clipPath>
<clipPath id="clip1">
<rect width="536.687" height="500.239" fill="white" transform="translate(361.313 72.8965)"/>
</clipPath>
<clipPath id="clip2">
<rect width="275.739" height="399.346" fill="white" transform="translate(125.72 172.733)"/>
</clipPath>
<clipPath id="clip3">
<rect width="58.1059" height="58.1059" fill="white" transform="translate(497.069 95.0823)"/>
</clipPath>
</defs>
</svg>
