<svg width="130" height="130" viewBox="0 0 130 130" fill="none" xmlns="http://www.w3.org/2000/svg">
<path fill-rule="evenodd" clip-rule="evenodd" d="M124.733 116.246C124.733 120.959 120.913 124.779 116.2 124.779H13.8C9.0872 124.779 5.26667 120.959 5.26667 116.246V114.113C5.26667 112.934 6.22187 111.979 7.4 111.979H47.9333V114.113C47.9333 117.647 50.7987 120.513 54.3333 120.513H75.6667C79.2013 120.513 82.0667 117.647 82.0667 114.113V111.979H122.6C123.778 111.979 124.733 112.934 124.733 114.113V116.246ZM52.2 111.979H77.8V114.113C77.8 115.291 76.8448 116.246 75.6667 116.246H54.3333C53.1552 116.246 52.2 115.291 52.2 114.113V111.979ZM88.4667 46.0826V39.32C90.7752 39.0602 93.0165 38.3797 95.08 37.3125H118.333C119.545 37.3496 120.499 38.3597 120.467 39.5717V107.713H9.53254V39.5717C9.50107 38.3597 10.4549 37.3496 11.6667 37.3125H77.5867C79.6501 38.3797 81.8915 39.0602 84.2 39.32V62.9125H75.6667C74.4885 62.9125 73.5333 63.8677 73.5333 65.0458V71.4458H54.3333C53.1552 71.4458 52.2 72.401 52.2 73.5792V82.1125H33C31.8219 82.1125 30.8667 83.0677 30.8667 84.2458V99.1792H22.3333V103.446H109.8V99.1792H99.1333V65.0458C99.1333 63.8677 98.1781 62.9125 97 62.9125H88.4667V58.6458V46.0826ZM35.1333 99.1792H52.2V86.3792H35.1333V99.1792ZM56.4667 99.1792H73.5333V75.7125H56.4667V99.1792ZM77.8 99.1792H94.8667V67.1792H77.8V99.1792ZM86.3333 5.3125C94.5808 5.3125 101.267 11.9984 101.267 20.2458C101.267 28.4933 94.5808 35.1792 86.3333 35.1792C78.0859 35.1792 71.4 28.4933 71.4 20.2458C71.4107 12.0026 78.0904 5.32317 86.3333 5.3125ZM124.733 108.105V39.5717C124.764 36.004 121.901 33.0845 118.333 33.0458H100.603C107.698 25.1648 107.06 13.0248 99.1789 5.93037C91.2979 -1.1643 79.1579 -0.526433 72.0635 7.35463C65.4899 14.657 65.4899 25.7434 72.0635 33.0458H11.6667C8.09893 33.0845 5.23573 36.004 5.26667 39.5717V108.105C2.71867 109.006 1.0112 111.41 1 114.113V116.246C1.00693 123.312 6.7336 129.039 13.8 129.046H116.2C123.266 129.039 128.993 123.312 129 116.246V114.113C128.989 111.41 127.281 109.006 124.733 108.105Z" fill="#161514" stroke="white" stroke-width="0.5"/>
<path fill-rule="evenodd" clip-rule="evenodd" d="M88.4667 26.6458H84.2C83.0219 26.6458 82.0667 25.6906 82.0667 24.5125H77.8C77.8 28.0471 80.6654 30.9125 84.2 30.9125V33.0458H88.4667V30.9125C92.0014 30.9125 94.8667 28.0471 94.8667 24.5125C94.8667 20.9778 92.0014 18.1125 88.4667 18.1125H84.2C83.0219 18.1125 82.0667 17.1573 82.0667 15.9791C82.0667 14.801 83.0219 13.8458 84.2 13.8458H88.4667C89.6448 13.8458 90.6 14.801 90.6 15.9791H94.8667C94.8667 12.4445 92.0014 9.57914 88.4667 9.57914H88.4262L88.4667 7.48847L84.2 7.40314L84.1574 9.57914C80.6227 9.59087 77.767 12.4658 77.7787 16.0005C77.7904 19.5351 80.6654 22.3909 84.2 22.3791H88.4667C89.6448 22.3791 90.6 23.3343 90.6 24.5125C90.6 25.6906 89.6448 26.6458 88.4667 26.6458Z" fill="#FF3602"/>
<path fill-rule="evenodd" clip-rule="evenodd" d="M24.4667 41.5792H15.9333C14.7552 41.5792 13.8 42.5344 13.8 43.7125V52.2458H18.0667V45.8458H24.4667V41.5792Z" fill="#006DF0"/>
</svg>
