<svg width="547" height="505" viewBox="0 0 547 505" fill="none" xmlns="http://www.w3.org/2000/svg">
<g clip-path="url(#clip0)">
<g clip-path="url(#clip1)">
<g clip-path="url(#clip2)">
<path d="M164.918 73.0909C182.194 68.4617 199.952 78.7143 204.582 95.9908C209.211 113.267 198.958 131.025 181.682 135.655C164.405 140.284 146.647 130.031 142.018 112.755C137.389 95.4782 147.641 77.7201 164.918 73.0909Z" fill="#E1E5F0"/>
<path d="M74.0956 167.927L150.793 271.907L184.979 246.995L138.889 161.347L74.0956 167.927ZM17.5096 84.909L55.5589 140.898L76.9417 77.5837L17.5096 84.909ZM65.0245 147.708L128.201 144.607L108.498 71.0747L89.2757 76.2253L65.0245 147.708ZM147.479 158.546L197.667 236.973L221.557 218.978L185.108 156.091L147.479 158.546ZM205.172 153.675L237.259 211.128L270.774 185.948L263.954 145.985L205.172 153.675ZM285.968 206.711L326.765 205.258L327.889 179.171L279.886 183.376L285.968 206.711ZM336.402 204.48L372.804 206.711L376.377 180.853L336.402 179.171L336.402 204.48ZM278.767 175.718L333.079 170.046L383.106 173.435L395.139 135.514L275.087 144.734L278.767 175.718ZM220.956 128.581L265.327 126.795L256.225 92.8258L218.945 96.9865L220.956 128.581ZM219.625 87.3879L253.429 83.3084L254.649 54.4751L210.658 60.9253L219.625 87.3879ZM280.54 122.865L332.636 116.8L325.302 41.2889L274.638 49.61L280.54 122.865ZM341.532 115.001L400.035 110.979L409 59.4929L336.099 40.2125L341.532 115.001ZM166.632 78.5744C152.496 82.3619 144.108 96.8912 147.895 111.027C151.683 125.162 166.212 133.55 180.348 129.763C194.483 125.975 202.871 111.446 199.084 97.3106C195.296 83.1754 180.767 74.7868 166.632 78.5744ZM384.902 205.501L429.288 192.935C430.522 192.586 431.387 191.478 431.429 190.197C431.482 188.572 430.207 187.212 428.582 187.159L386.187 185.784L384.902 205.501Z" fill="#F2F6FB"/>
<path d="M225.243 201.165C226.104 202.68 225.574 204.605 224.059 205.466C222.545 206.327 220.619 205.797 219.758 204.282L214.147 194.409C213.287 192.895 213.817 190.969 215.331 190.108C216.846 189.247 218.772 189.777 219.632 191.292L225.243 201.165ZM214.022 181.419C214.882 182.934 214.352 184.859 212.838 185.72C211.323 186.581 209.397 186.051 208.537 184.536L202.926 174.663C202.065 173.149 202.595 171.223 204.11 170.362C205.624 169.502 207.55 170.032 208.411 171.546L214.022 181.419ZM202.761 161.675C203.63 163.185 203.111 165.113 201.601 165.983C200.092 166.852 198.163 166.333 197.294 164.823L191.626 154.983C190.757 153.473 191.276 151.545 192.785 150.675C194.295 149.806 196.224 150.325 197.093 151.834L202.761 161.675ZM189.68 147.053C187.946 147.226 186.401 145.961 186.228 144.227C186.055 142.494 187.321 140.948 189.054 140.776L200.354 139.65C202.088 139.477 203.633 140.742 203.806 142.476C203.979 144.209 202.713 145.755 200.98 145.928L189.68 147.053ZM212.28 144.802C210.546 144.974 209.001 143.709 208.828 141.976C208.655 140.242 209.921 138.697 211.654 138.524L222.954 137.398C224.688 137.225 226.233 138.491 226.406 140.224C226.578 141.958 225.313 143.503 223.58 143.676L212.28 144.802ZM234.88 142.55C233.146 142.723 231.601 141.457 231.428 139.724C231.255 137.99 232.52 136.445 234.254 136.272L245.554 135.146C247.288 134.974 248.833 136.239 249.006 137.973C249.178 139.706 247.913 141.251 246.179 141.424L234.88 142.55ZM257.479 140.298C255.746 140.471 254.2 139.206 254.028 137.472C253.855 135.739 255.12 134.193 256.854 134.021L268.154 132.895C269.887 132.722 271.433 133.987 271.605 135.721C271.778 137.454 270.513 139 268.779 139.172L257.479 140.298ZM280.079 138.047C278.346 138.219 276.8 136.954 276.628 135.22C276.455 133.487 277.72 131.942 279.454 131.769L290.754 130.643C292.487 130.47 294.033 131.736 294.205 133.469C294.378 135.203 293.113 136.748 291.379 136.921L280.079 138.047ZM302.679 135.795C300.946 135.968 299.4 134.702 299.228 132.969C299.055 131.235 300.32 129.69 302.054 129.517L313.354 128.391C315.087 128.219 316.632 129.484 316.805 131.217C316.978 132.951 315.713 134.496 313.979 134.669L302.679 135.795ZM325.279 133.543C323.545 133.716 322 132.451 321.827 130.717C321.655 128.983 322.92 127.438 324.654 127.265L335.953 126.14C337.687 125.967 339.232 127.232 339.405 128.966C339.578 130.699 338.313 132.245 336.579 132.417L325.279 133.543ZM347.818 131.507C346.08 131.636 344.567 130.332 344.438 128.594C344.31 126.857 345.614 125.344 347.351 125.215L358.676 124.375C360.413 124.246 361.926 125.55 362.055 127.288C362.184 129.025 360.88 130.538 359.142 130.667L347.818 131.507ZM370.467 129.827C368.73 129.956 367.217 128.652 367.088 126.914C366.959 125.177 368.263 123.664 370 123.535L381.325 122.695C383.063 122.566 384.575 123.87 384.704 125.608C384.833 127.345 383.529 128.858 381.792 128.987L370.467 129.827ZM393.117 128.147C391.379 128.276 389.866 126.972 389.738 125.234C389.609 123.497 390.913 121.984 392.65 121.855L396.13 121.597L396.206 121.592L404.062 121.199C405.802 121.112 407.283 122.452 407.37 124.192C407.457 125.932 406.117 127.413 404.377 127.5L396.521 127.893L396.596 127.889L393.117 128.147ZM410.51 115.052C410.197 116.766 408.554 117.901 406.84 117.588C405.126 117.274 403.991 115.631 404.305 113.917L406.348 102.747C406.661 101.033 408.304 99.8977 410.018 100.211C411.732 100.524 412.867 102.168 412.553 103.882L410.51 115.052ZM414.596 92.7109C414.283 94.4246 412.64 95.5598 410.926 95.2464C409.212 94.9329 408.077 93.2896 408.391 91.5759L410.434 80.4053C410.747 78.6916 412.39 77.5565 414.104 77.8699C415.818 78.1833 416.953 79.8266 416.639 81.5403L414.596 92.7109ZM219.918 228.379C215.04 228.379 211.086 224.425 211.086 219.547C211.086 214.669 215.04 210.715 219.918 210.715C224.796 210.715 228.75 214.669 228.75 219.547C228.75 224.425 224.796 228.379 219.918 228.379ZM408.762 71.0794C403.884 71.0794 399.93 67.125 399.93 62.247C399.93 57.3691 403.884 53.4147 408.762 53.4147C413.64 53.4147 417.595 57.3691 417.595 62.247C417.595 67.125 413.64 71.0794 408.762 71.0794Z" fill="#D8DEED"/>
<path d="M176.754 107.928C189.828 85.9951 196.365 71.1948 196.365 63.5265C196.365 51.2057 186.291 41.2176 173.864 41.2176C161.437 41.2176 151.362 51.2057 151.362 63.5265C151.362 71.1948 157.899 85.9951 170.974 107.928H170.974C171.925 109.524 173.99 110.046 175.587 109.095C176.067 108.809 176.468 108.408 176.754 107.928Z" fill="#474BFF"/>
<path d="M174.074 79.0706C181.275 79.0706 187.112 73.139 187.112 65.822C187.112 58.5051 181.275 52.5735 174.074 52.5735C166.873 52.5735 161.036 58.5051 161.036 65.822C161.036 73.139 166.873 79.0706 174.074 79.0706Z" fill="white"/>
</g>
<path d="M362.823 425.056C361.662 425.022 360.749 424.053 360.783 422.892C360.817 421.731 361.786 420.818 362.947 420.852L402.148 422.009C403.309 422.043 404.222 423.012 404.188 424.173C404.154 425.334 403.185 426.248 402.024 426.213L362.823 425.056ZM304.247 390.327C303.495 389.442 303.604 388.115 304.489 387.363C305.375 386.611 306.702 386.72 307.454 387.606L331.37 415.785C332.122 416.67 332.013 417.998 331.128 418.749C330.242 419.501 328.915 419.392 328.164 418.507L304.247 390.327ZM279.338 329.76L265.929 360.979C288.652 371.291 304.455 394.178 304.455 420.756C304.455 456.993 275.08 486.368 238.844 486.368C202.607 486.368 173.232 456.993 173.232 420.756C173.232 384.52 202.607 355.145 238.844 355.145C247.012 355.145 254.832 356.637 262.045 359.365L285.784 304.096C286.242 303.029 287.479 302.536 288.546 302.994C289.613 303.453 290.107 304.689 289.648 305.756L281.677 324.315H431.192L416.145 293.806C415.418 293.873 414.681 293.907 413.935 293.907C412.773 293.907 411.832 292.965 411.832 291.804C411.832 290.643 412.773 289.701 413.935 289.701C413.996 289.701 414.058 289.701 414.12 289.7L408.978 279.275C408.465 278.234 408.892 276.973 409.934 276.459C410.976 275.945 412.237 276.373 412.75 277.415L418.544 289.161C425.262 287.546 430.127 282.502 430.127 276.705C430.127 269.676 422.9 263.709 413.935 263.709H374.862C373.701 263.709 372.759 262.767 372.759 261.606C372.759 260.444 373.701 259.503 374.862 259.503H413.935C425.064 259.503 434.333 267.156 434.333 276.705C434.333 284.334 428.463 290.724 420.441 293.008L453.974 360.998C462.242 357.239 471.428 355.145 481.103 355.145C517.339 355.145 546.714 384.52 546.714 420.756C546.714 456.993 517.339 486.368 481.103 486.368C444.866 486.368 415.491 456.993 415.491 420.756C415.491 395.692 429.545 373.91 450.203 362.861L433.857 329.718L356.84 415.307C355.995 416.247 354.518 416.234 353.69 415.281L279.338 329.76ZM455.836 364.773L482.989 419.826C483.502 420.868 483.074 422.129 482.033 422.642C480.991 423.156 479.73 422.728 479.217 421.687L452.065 366.636C432.796 376.996 419.697 397.347 419.697 420.756C419.697 454.67 447.189 482.162 481.103 482.162C515.016 482.162 542.508 454.67 542.508 420.756C542.508 386.843 515.016 359.351 481.103 359.351C472.096 359.351 463.542 361.29 455.836 364.773ZM283.835 328.521L355.304 410.727L429.275 328.521H283.835ZM264.269 364.845L240.776 419.54C240.318 420.607 239.081 421.1 238.014 420.642C236.947 420.184 236.453 418.947 236.911 417.88L260.383 363.234C253.681 360.723 246.422 359.351 238.844 359.351C204.93 359.351 177.438 386.843 177.438 420.756C177.438 454.67 204.93 482.162 238.844 482.162C272.757 482.162 300.25 454.67 300.25 420.756C300.25 395.911 285.494 374.512 264.269 364.845Z" fill="#E1E5F0"/>
<path d="M480.892 433.542C473.807 433.542 468.064 427.893 468.064 420.925C468.064 413.956 473.807 408.307 480.892 408.307C487.977 408.307 493.72 413.956 493.72 420.925C493.72 427.893 487.977 433.542 480.892 433.542ZM238.843 433.795C231.643 433.795 225.805 427.957 225.805 420.756C225.805 413.556 231.643 407.718 238.843 407.718C246.044 407.718 251.882 413.556 251.882 420.756C251.882 427.957 246.044 433.795 238.843 433.795ZM353.243 435.225C341.397 435.225 331.793 425.621 331.793 413.775C331.793 401.928 341.397 392.325 353.243 392.325C365.09 392.325 374.693 401.928 374.693 413.775C374.693 425.621 365.09 435.225 353.243 435.225ZM278.589 300.636H314.339C319.333 300.636 323.382 304.685 323.382 309.679C323.382 314.673 319.333 318.722 314.339 318.722H278.589C273.595 318.722 269.546 314.673 269.546 309.679C269.546 304.685 273.595 300.636 278.589 300.636Z" fill="#D8DEED"/>
<path d="M373.418 421.172C373.842 419.965 374.167 418.705 374.382 417.404L407.134 418.295C408.014 418.303 408.729 419.118 408.723 420.128L408.731 420.38C408.685 421.35 407.943 422.094 407.063 422.085L373.418 421.172ZM333.158 417.843L299.006 378.224C298.375 377.509 298.417 376.373 299.174 375.742L299.343 375.574C299.805 375.196 300.394 375.07 300.983 375.238C301.319 375.28 301.572 375.49 301.824 375.742L335.439 414.523L357.973 419.526C358.94 419.736 359.487 420.661 359.361 421.587L359.319 421.839C359.066 422.764 358.141 423.353 357.216 423.185L333.158 417.843Z" fill="#DE3190"/>
<path d="M407.863 418.502C407.644 418.372 407.396 418.297 407.133 418.295L374.421 417.405C374.327 418.018 374.21 418.622 374.07 419.216L374.019 419.213C374.459 417.502 374.693 415.708 374.693 413.859C374.693 408.843 372.972 404.23 370.087 400.577L375.461 394.596C377.163 396.346 391.65 404.834 399.06 408.532C401.072 409.513 403.005 410.624 404.898 411.821C405.812 412.673 407.429 414.384 407.921 416.429C408.017 416.762 407.987 417.1 408.039 417.392C408.032 417.789 407.966 418.16 407.863 418.502ZM301.059 375.25L320.456 357.4L341.485 381.247L341.738 383.855L342.369 390.542C342.284 392.981 342.327 395.379 342.663 397.818C342.831 398.912 342.999 399.921 343.21 400.804C343.386 401.526 343.582 402.197 343.797 402.855C345.854 404.209 348.211 405.612 351.706 408.333C353.514 409.679 355.154 411.151 356.795 412.707C357.552 413.716 358.772 415.735 358.856 417.796C358.856 418.133 358.814 418.469 358.772 418.764C358.7 419.103 358.587 419.416 358.447 419.702C358.303 419.623 358.144 419.563 357.972 419.526L335.439 414.523L301.824 375.742C301.591 375.509 301.358 375.312 301.059 375.25ZM363.609 394.983L369.67 394.752L367.205 397.489C366.644 397.009 366.085 396.574 365.528 396.184C364.972 395.794 364.332 395.394 363.609 394.983Z" fill="#474961"/>
<path d="M383.314 328.479H393.982C393.871 330.069 393.743 331.747 393.619 333.565C393.104 340.407 395.511 352.095 398.158 363.061L369.641 394.753L363.475 395.001C360.434 393.348 356.949 392.409 353.244 392.409C350.988 392.409 348.814 392.757 346.772 393.402C346.264 392.621 345.983 391.681 346.03 390.678L346.404 382.854C345.352 382.689 344.208 382.174 343.104 381.568C330.907 376.476 321.939 372.016 316.199 368.188C312.042 365.415 306.164 359.975 298.567 351.865C296.237 348.803 295.555 346.475 296.522 344.881L342.71 308.991C328.02 309.466 316.427 309.529 307.93 309.18C290.49 308.463 280.646 303.123 275.894 290.464C273.496 284.071 275.033 277.879 275.641 275.07C279.595 256.817 300.515 255.429 304.223 255.303C306.694 255.218 318.158 256.07 338.615 257.858C371.59 260.621 389.559 262.544 392.521 263.63C393.938 264.149 395.739 265.036 396.031 265.416C411.953 274.453 403.721 291.347 402.922 292.567L402.697 292.649C401.012 297.428 398.415 302.718 396.006 307.189C395.186 313.204 394.62 318.68 394.249 324.273H385.845C385.022 325.633 384.177 327.037 383.314 328.479ZM399.374 367.998C401.956 378.314 404.38 387.15 404.189 389.404C404.021 391.847 401.909 393.735 399.468 393.693L396.986 393.652L375.511 394.517L399.374 367.998Z" fill="#3ABF7C"/>
<path opacity="0.176986" d="M383.365 328.394H394.05C393.939 329.984 393.812 331.661 393.687 333.479C393.172 340.322 395.579 352.009 398.226 362.976L369.709 394.668L363.543 394.916C360.502 393.262 357.017 392.323 353.312 392.323C351.057 392.323 348.882 392.671 346.841 393.317C346.332 392.536 346.051 391.595 346.098 390.593L346.467 382.864C347.674 383.038 348.755 382.739 349.503 381.568C352.356 377.102 354.659 374.904 359.086 368.188C367.406 355.515 376.053 340.607 383.365 328.394ZM396.082 307.047C395.257 313.085 394.689 318.577 394.317 324.188H385.897C387.404 321.701 388.839 319.367 390.186 317.236C390.892 316.103 393.376 312.082 396.082 307.047V307.047ZM399.442 367.913C402.024 378.228 404.449 387.064 404.257 389.319C404.089 391.761 401.977 393.649 399.536 393.608L397.054 393.567L375.579 394.431L399.442 367.913Z" fill="#444444"/>
<path d="M344.228 309.421L353.085 298.3C353.375 297.937 353.315 297.408 352.952 297.118C352.588 296.829 352.059 296.889 351.77 297.252L342.912 308.372C342.622 308.736 342.682 309.265 343.046 309.554C343.409 309.844 343.938 309.784 344.228 309.421Z" fill="#482D1F"/>
<path d="M358.352 209.118C363.461 215.706 360.09 223.249 357.715 227.06C358.222 227.128 358.648 227.524 358.726 228.049L358.804 228.575C358.943 229.24 358.487 229.886 357.83 229.983L354.114 230.622L352.29 238.467L352.176 238.874L347.469 259.27L346.554 263.251C346.495 263.582 346.403 263.445 346.303 263.769C346.196 264.134 295.972 266.248 295.572 265.366C295.58 265.324 295.538 265.317 295.546 265.276C295.39 264.949 295.241 264.581 295.092 264.213C293.54 260.181 293.064 255.613 294.116 251.101L300.301 224.421L289.55 219.634C288.489 219.161 288.011 217.918 288.484 216.857C288.956 215.796 290.199 215.319 291.26 215.791L291.319 215.817C290.379 211.061 289.905 201.877 298.843 197.898C302.5 192.912 306.017 189.048 311.481 186.804C316.459 184.804 321.381 185.003 325.226 185.767C327.355 185.619 329.54 185.779 331.725 186.282L341.156 188.501C351.213 190.773 358.027 199.423 358.352 209.118Z" fill="#DE3190"/>
<path opacity="0.176986" d="M358.238 208.956C360.647 211.951 361.273 215.138 361.011 218.081C360.684 221.743 358.983 225.025 357.635 227.08C358.171 227.091 358.62 227.432 358.702 227.986L358.792 228.717C358.931 229.382 358.419 229.912 357.761 230.01C356.166 230.23 354.907 230.41 353.984 230.55L357.481 215.513L357.653 214.775C358.118 212.821 358.304 210.868 358.238 208.956Z" fill="#444444"/>
<path d="M341.846 181.742L339.89 189.217C339.621 190.245 338.627 190.911 337.574 190.768C335.197 190.446 333.546 190.115 332.621 189.775C330.787 189.101 329.384 188.33 328.412 187.463C327.938 187.041 327.742 186.388 327.905 185.775L330.263 176.908L331.22 173.254L332.018 169.635C331.686 169.403 331.353 169.122 331.044 168.785C329.74 167.313 329.306 161.341 330.063 159.153C330.82 157.093 338.867 160.163 338.867 159.153C338.867 158.481 338.909 154.891 338.993 148.386C338.993 147.713 339.54 147.167 340.213 147.167C341.727 147.167 343.157 147.041 344.755 146.662C344.924 146.662 345.092 146.62 345.26 146.62C346.69 146.41 354.681 145.695 359.055 151.499C359.476 152.003 359.813 152.55 360.149 153.181C360.948 154.653 361.327 156.336 361.242 158.018L360.948 165.546C360.906 166.303 360.822 167.061 360.696 167.818C358.929 177.113 354.85 183.59 351.317 183.884C350.896 183.926 348.625 184.01 345.975 183.295C345.765 183.211 345.933 183.337 342.4 181.949C342.21 181.879 342.026 181.81 341.846 181.742ZM350.951 243.899L352.128 238.798L352.242 238.391L354.069 230.534L357.006 230.111L359.768 243.133C370.275 246.988 378.256 249.974 383.71 252.092C386.172 253.048 387.701 253.813 388.298 254.386C392.174 255.355 396.417 257.009 401.026 259.347C401.294 259.483 401.469 259.752 401.485 260.053C401.51 260.517 401.154 260.913 400.69 260.937L382.723 261.889L346.246 263.969C322.048 265.229 306.54 265.961 299.724 266.165C297.862 266.487 291.576 266.71 285.147 263.505C284.339 263.102 282.787 261.913 281.41 260.409C280.491 259.406 279.887 257.295 279.597 254.075C279.179 248.854 283.225 240.748 290.113 227.102C291.19 224.985 292.233 222.962 293.243 221.04L322.889 234.24C321.937 235.805 321.027 237.297 320.228 238.596C328.545 239.95 340.54 241.854 350.951 243.899Z" fill="#F2A98A"/>
<path d="M360.896 166.141C361.172 167.188 361.436 168.057 361.807 168.978C362.24 170.114 362.926 172.088 363.864 174.901C364.493 176.827 364.561 178.134 364.07 178.823C363.547 179.579 356.759 180.512 356.134 180.469C356.02 180.461 355.907 180.454 355.795 180.447C357.838 177.612 359.662 173.14 360.695 167.705C360.782 167.184 360.849 166.662 360.896 166.141ZM362.247 163.365C361.409 163.548 360.064 163.656 358.965 163.338C357.062 162.74 358.936 161.698 360.662 161.752C361.504 161.78 362.141 162.147 362.526 162.477C362.825 162.766 362.666 163.274 362.247 163.365ZM353.147 163.095C352.309 163.277 350.966 163.427 349.781 163.069C347.879 162.513 349.753 161.429 351.478 161.483C352.362 161.51 353 161.877 353.384 162.207C353.726 162.496 353.566 163.003 353.147 163.095ZM334.854 171.443L335.564 179.043C335.529 179.042 335.494 179.04 335.458 179.039C335.459 179.047 335.46 179.052 335.46 179.052C335.46 179.052 335.454 179.047 335.441 179.038C326.92 178.686 321.166 175.89 317.243 174.185C316.559 173.889 315.765 173.453 315.32 172.593C314.701 171.415 315.121 170.069 315.66 168.44C315.992 167.463 316.547 166.048 317.582 164.523C318.567 163.135 319.88 161.056 321.574 158.239C321.657 155.951 322.23 153.036 324.292 150.572C325.512 149.142 326.9 148.385 327.489 148.09C330.727 146.45 333.209 147.249 339.602 147.081C340.905 147.039 346.354 146.516 346.523 146.516C347.953 146.306 354.933 145.905 359.055 151.499C359.269 151.777 359.485 152.075 359.702 152.391C358.415 153.085 357.392 153.502 356.635 153.642C353.481 154.273 350.747 153.768 349.065 153.264C348.602 154.273 347.929 155.409 347.046 156.502C344.62 159.696 341.651 161.335 339.706 162.167C339.198 161.648 338.326 160.798 337.432 160.121C337.306 160.037 336.423 159.448 335.287 159.364C333.268 159.196 331.165 160.836 330.408 162.897C329.609 165.042 330.282 167.313 331.544 168.743C332.664 170.012 334.148 170.453 334.82 170.625C334.83 170.893 334.841 171.167 334.854 171.443Z" fill="#482D1F"/>
<path d="M358.44 166.061C358.516 165.554 358.929 165.127 359.434 165.16C359.771 165.154 360.068 165.317 360.204 165.904C360.564 167.243 359.295 169.243 358.693 168.496C358.305 167.956 358.327 166.778 358.44 166.061ZM351.658 165.877C351.734 165.371 352.147 164.943 352.652 164.976C352.988 164.97 353.286 165.133 353.422 165.72C353.782 167.059 352.513 169.059 351.911 168.312C351.481 167.773 351.545 166.594 351.658 165.877Z" fill="#482D1F"/>
<path d="M354.5 174.679C354.204 174.6 353.486 174.402 353.351 173.9C353.349 173.815 353.305 173.69 353.346 173.605C353.509 173.308 354.059 173.467 354.817 173.537C356.164 173.598 357.256 173.495 357.256 173.495C357.256 173.495 356.934 174.342 356.728 174.598C356.319 175.236 354.965 174.797 354.5 174.679Z" fill="#482D1F"/>
<path d="M356.668 170.762C356.661 170.761 356.617 170.765 356.574 170.769C356.155 170.804 355.845 170.813 354.719 170.833C354.487 170.837 354.302 171.028 354.306 171.261C354.31 171.493 354.502 171.678 354.734 171.674C355.88 171.654 356.199 171.644 356.643 171.607C356.69 171.603 356.737 171.599 356.784 171.595C357.277 171.505 357.584 171.074 357.576 170.615L357.572 170.564L356.951 166.103L356.949 163.65C356.949 163.418 356.761 163.229 356.529 163.23C356.296 163.23 356.108 163.418 356.108 163.65L356.109 166.132L356.113 166.19L356.734 170.647C356.729 170.709 356.692 170.758 356.668 170.762Z" fill="#482D1F"/>
<path d="M340.735 186.152L337.261 180.432L342.14 181.82L340.735 186.152Z" fill="#482D1F"/>
<path opacity="0.2" d="M351.171 242.941L352.127 238.798L352.242 238.391L354.069 230.534L357.006 230.111L359.768 243.133C370.275 246.988 378.256 249.974 383.71 252.092C386.891 253.328 388.647 254.236 388.187 254.646C385.523 253.963 383.031 253.601 380.711 253.56C375.121 251.374 370.456 249.665 366.715 248.431C363.547 247.386 359.941 246.322 355.897 245.239C355.642 245.166 355.387 245.093 355.13 245.02C355.04 245.001 354.95 244.982 354.859 244.963C353.616 244.635 352.332 244.305 351.008 243.973L351.171 242.941Z" fill="#8C2A00"/>
<path d="M327.048 230.637C328.161 231.594 328.556 233.16 327.892 234.464C327.103 236.012 325.137 236.568 323.53 235.75L322.159 235.114C321.842 234.967 321.705 234.592 321.852 234.276C321.998 233.96 322.373 233.822 322.689 233.969L324.082 234.615C325.107 235.137 326.305 234.798 326.768 233.891C327.23 232.983 326.8 231.815 325.775 231.292C325.465 231.134 325.341 230.754 325.499 230.444C325.57 230.305 325.685 230.204 325.818 230.148C325.827 229.888 325.997 229.65 326.26 229.567C328.746 228.788 330.997 227.447 332.721 224.98C334.823 222.012 335.22 218.537 334.515 215.024C334.404 214.47 334.271 213.956 334.126 213.486C334.034 213.185 333.983 213.041 333.877 212.754C333.757 212.427 333.924 212.065 334.251 211.944C334.578 211.823 334.941 211.991 335.061 212.317C335.174 212.624 335.231 212.786 335.332 213.114C335.489 213.623 335.632 214.178 335.752 214.776C336.52 218.598 336.083 222.416 333.753 225.706C331.938 228.303 329.614 229.764 327.048 230.637ZM312.51 243.361C312.203 243.526 311.82 243.41 311.656 243.103C311.492 242.795 311.608 242.413 311.915 242.249L319.887 237.985C320.194 237.821 320.577 237.937 320.741 238.244C320.905 238.551 320.789 238.933 320.482 239.098L312.51 243.361Z" fill="#482D1F"/>
<g clip-path="url(#clip3)">
<g clip-path="url(#clip4)">
<g clip-path="url(#clip5)">
<path d="M70.398 480.312C71.4433 480.312 72.2906 481.159 72.2906 482.204C72.2906 483.25 71.4433 484.097 70.398 484.097H1.84211C0.79683 484.097 -0.0505371 483.25 -0.0505371 482.204C-0.0505371 481.159 0.79683 480.312 1.84211 480.312H70.398ZM207.299 484.097H164.189C163.18 484.097 162.297 483.369 162.297 482.495V481.913C162.297 481.04 163.138 480.312 164.189 480.312H207.299C208.309 480.312 209.192 481.04 209.192 481.913V482.495C209.192 483.369 208.351 484.097 207.299 484.097Z" fill="#FF5645"/>
<path d="M70.8334 480.362C70.6935 480.329 70.5476 480.312 70.3976 480.312H2.13961C2.09439 480.081 2.07145 479.791 2.07801 479.415C2.1252 479.122 2.13107 478.785 2.22105 478.45C2.76091 476.441 3.41519 475.106 5.32883 473.919C7.24248 472.733 9.19597 471.673 11.2314 470.741C18.7385 467.213 21.3037 467.257 26.2398 464.021C28.2825 462.668 30.1607 461.102 31.915 459.408C33.0845 458.279 35.4722 456.444 39.0781 453.904L75.655 454.5L70.8334 480.362ZM207.529 480.324C207.453 480.316 207.377 480.312 207.299 480.312H164.333L167.733 458.856L197.847 454.776L207.529 480.324Z" fill="#444444"/>
<path d="M119.687 317.833C109.863 348.205 102.401 371.305 92.0775 403.215L85.7516 428.987C85.2907 431.547 82.6514 433.268 79.9284 432.806L47.9218 427.392C45.1987 426.93 43.3554 424.454 43.8581 421.894C45.073 415.807 46.1203 410.435 47.0001 405.902C48.5083 398.263 49.2205 394.569 50.0583 389.868C50.561 387.014 50.98 384.621 51.2313 383.026C60.9506 330.77 69.9158 290.644 74.7755 268.818C76.8283 259.458 80.7662 241.787 94.2978 223.865C95.1776 222.731 95.8898 221.85 96.3087 221.304C96.9347 220.664 97.5965 220.105 98.2794 219.618C98.2638 219.467 98.2484 219.317 98.233 219.166C101.64 216.727 104.507 213.827 118.134 213.028C118.471 213.028 118.849 212.986 119.186 212.986C132.392 212.523 144.631 219.463 150.604 230.524L160.824 249.409C162.296 252.1 163.348 254.96 163.936 257.905L198.964 424.304C199.422 426.48 198.108 428.636 195.964 429.226L163.011 438.295C160.319 439.01 157.501 437.538 156.744 435.056L154.179 426.813C146.356 404.732 138.701 381.642 131.341 357.668C127.212 344.18 123.334 330.896 119.687 317.833Z" fill="#FFCB3D"/>
<path d="M153.372 256.052C153.372 256.052 143.531 284.345 150.025 284.97C150.025 284.97 153.617 282.525 155.693 275.724L157.389 263.254L153.372 256.052Z" fill="#482D1F"/>
<path opacity="0.2" d="M100.25 218.285C100.15 218.358 100.049 218.431 99.9485 218.503C101.294 231.661 103.194 243.686 104.581 256.844C104.604 256.922 104.626 257.001 104.648 257.079C104.653 257.233 104.662 257.373 104.676 257.499C105.067 261.081 110.105 281.297 119.789 318.147C108.478 353.111 103.304 368.156 91.993 403.119L85.6671 428.891C85.2063 431.451 82.567 433.172 79.8439 432.71L47.8373 427.296C45.1142 426.834 43.2709 424.358 43.7736 421.797C44.9885 415.711 46.0359 410.339 46.9156 405.806C48.4238 398.167 49.136 394.473 49.9738 389.772C50.4766 386.918 50.8955 384.525 51.1469 382.93C60.8661 330.674 69.8314 290.548 74.691 268.722C76.7438 259.362 80.6818 241.691 94.2133 223.769C95.0931 222.635 95.8053 221.754 96.2242 221.208C97.4639 219.94 98.844 218.991 100.25 218.285V218.285Z" fill="#8C2A00"/>
<path d="M106.813 152.04C108.304 151.61 109.864 151.283 111.488 151.073L113.867 150.781C116.817 150.401 119.574 150.549 122.114 151.115C122.415 151.074 122.726 151.036 123.046 151.001C127.378 150.54 133.351 150.707 138.945 153.687C139.702 154.107 141.405 155.508 142.949 156.879C147.553 160.968 146.557 160.192 152.193 169.801C153.581 172.152 155.323 174.773 156.626 177.626C156.636 177.551 156.648 177.702 156.626 177.626C156.833 178.197 156.946 178.812 156.946 179.453C156.946 182.42 154.544 185.059 151.571 185.059C149.04 185.059 146.679 183.412 146.103 181.063C146.221 181.504 146.263 181.703 146.263 182.181C146.263 184.507 145.022 186.625 142.949 187.372L144.325 200.399C144.34 200.862 144.349 201.284 144.405 201.742C144.619 203.83 144.622 206.958 143.103 209.428C140.987 212.901 137.834 217.939 122.325 220.012C105.648 222.229 101.078 218.14 98.0905 215.209C96.0244 213.221 95.2379 210.612 94.9302 208.451C94.8739 207.993 94.7811 207.582 94.6831 207.129L90.5306 188.203C90.0523 190.681 87.8674 192.553 85.2444 192.553C82.2711 192.553 79.8608 190.148 79.8608 187.181C79.8608 185.877 80.3272 184.68 81.1028 183.75C81.4459 181.65 81.7889 179.745 82.132 178.033C84.5294 166.535 87.2632 162.8 87.2632 162.8C88.6511 160.87 89.997 159.611 90.6279 159.023C95.2544 154.659 100.974 152.938 105.264 152.267C105.805 152.173 106.323 152.099 106.813 152.04Z" fill="#FF5645"/>
<path d="M39.0785 453.909L48.2147 427.446L80.249 432.887L75.361 456.049L39.0785 453.909ZM165.873 437.513L192.493 430.13L197.848 454.782L167.734 458.862L165.873 437.513ZM105.486 145.084C105.372 145.121 105.257 145.158 105.139 145.196C101.522 146.371 101.732 146.287 101.48 146.371C98.7878 146.959 96.5166 146.749 96.096 146.665C92.6051 146.204 88.8619 139.531 87.6001 130.173C87.4739 129.418 87.4739 128.662 87.4319 127.907L87.5581 120.395C87.5581 118.717 88.0207 117.08 88.8619 115.653C88.946 115.485 89.0301 115.359 89.1142 115.233C89.4086 114.814 89.7031 114.394 89.9975 114.058C91.1331 112.716 92.4789 111.75 93.8669 111.079C97.1475 109.736 100.849 109.61 102.91 109.904C103.204 109.946 104.129 110.072 105.433 110.24C106.653 110.533 107.83 110.701 109.05 110.743C109.723 110.785 110.228 111.373 110.228 112.044C109.975 118.535 109.835 122.116 109.807 122.787C109.765 123.794 112.331 121.612 113.466 121.57C115.485 121.528 118.009 124.801 118.64 126.9C119.312 129.082 118.513 131.306 117.167 132.691C116.2 133.656 115.065 134.076 114.307 134.286C113.971 134.286 113.592 134.621 113.466 135.041C113.466 135.041 113.466 135.083 113.424 135.125L116.032 140.119C116.074 140.245 116.116 140.286 116.116 140.286C116.116 140.286 116.077 140.308 116.006 140.346L117.504 140.035L118.724 150.704C118.724 150.704 115.94 151.485 112.759 151.816C110.638 152.037 108.505 152.161 106.359 152.189L105.486 145.084ZM79.867 187.438C79.9982 190.288 82.3558 192.558 85.2448 192.558C87.8678 192.558 90.0527 190.687 90.531 188.209L94.6835 207.134C94.7815 207.587 94.8744 207.999 94.9306 208.457C95.1438 209.954 95.587 211.667 96.5264 213.238C90.2609 223.27 80.991 232.463 69.5408 227.288C55.0755 220.751 39.015 208.836 21.3592 191.545C20.4916 191.072 19.4725 190.457 18.4316 189.674C15.746 187.66 14.5253 185.688 10.5213 178.176C6.56614 170.706 4.47403 159.601 5.10881 156.832C5.2553 156.412 6.67861 154.694 8.33879 156.289C10.1455 158.009 15.9413 167.517 18.5293 171.923C18.5622 171.979 18.5977 172.034 18.6354 172.088C17.983 169.304 18.2307 166.693 20.8944 165.762C20.8944 165.762 23.8329 171.027 27.1395 176.891C27.7636 177.261 28.3686 177.665 28.934 178.115C35.2822 181.237 68.1664 197.415 72.4573 199.688L79.867 187.438ZM128.813 190.088C129.292 190.227 129.799 190.302 130.323 190.302C133.296 190.302 135.706 187.897 135.706 184.931C135.706 184.525 135.662 184.131 135.576 183.751L135.591 183.747C136.2 186.047 138.299 187.742 140.796 187.742C143.769 187.742 146.179 185.337 146.179 182.371C146.179 181.893 146.117 181.43 145.999 180.989L146.249 180.923C146.824 183.272 148.947 185.014 151.479 185.014C152.353 185.014 153.178 184.807 153.908 184.438C166.288 222.905 173.287 247.853 174.906 259.282C174.999 259.661 175.067 260.07 175.112 260.508C175.834 267.533 174.242 278.473 170.336 293.328C170.303 293.416 157.946 300.58 148.574 295.911L154.504 262.047L128.813 190.088Z" fill="#DB9E75"/>
<path opacity="0.176986" d="M106.358 152.184C96.3179 155.26 89.5331 163.049 88.0773 171.371C87.6753 173.619 87.8365 175.967 88.3631 178.186L90.5101 187.971C90.2087 190.652 87.9286 192.737 85.1604 192.737C82.1871 192.737 79.7769 190.332 79.7769 187.366C79.7769 186.044 80.2555 184.815 81.0492 183.859C81.4654 181.116 81.5803 180.551 82.048 178.217C84.4454 166.719 87.1792 162.984 87.1792 162.984C88.5671 161.054 89.9696 159.692 90.6005 159.105C95.227 154.74 100.625 153.021 104.915 152.35C105.397 152.266 105.883 152.214 106.358 152.184Z" fill="#444444"/>
<path opacity="0.2" d="M79.867 187.432C79.9982 190.282 82.3558 192.553 85.2448 192.553C87.8678 192.553 90.0527 190.681 90.531 188.203L94.6835 207.129C94.7815 207.582 94.8744 207.993 94.9306 208.451C95.1438 209.948 95.587 211.661 96.5264 213.233C90.2609 223.265 80.991 232.458 69.5408 227.283C55.0755 220.745 39.015 208.83 21.3592 191.539C20.4916 191.067 19.4725 190.452 18.4316 189.669C15.746 187.655 14.5253 185.682 10.5213 178.171C6.56614 170.701 4.47403 159.596 5.10881 156.826C5.2553 156.406 6.67861 154.688 8.33879 156.283C10.1455 158.004 15.9413 167.511 18.5293 171.918C18.5622 171.974 18.5977 172.029 18.6354 172.083C17.983 169.299 18.2307 166.688 20.8944 165.757C20.8944 165.757 23.8329 171.022 27.1395 176.885C27.7636 177.255 28.3686 177.659 28.934 178.109C35.2822 181.231 68.1664 197.409 72.4573 199.683L79.867 187.432Z" fill="#8C2A00"/>
<path d="M5.2531 147.564C6.43074 146.934 7.69251 146.976 8.07104 147.69L26.0722 179.961C26.4507 180.674 25.8619 181.765 24.6843 182.437C23.5066 183.066 22.2449 183.024 21.8663 182.311L3.86516 150.04C3.44457 149.284 4.07545 148.193 5.2531 147.564Z" fill="#474961"/>
<path d="M112.915 134.008L113.129 134.028C113.676 133.902 115.4 133.65 116.746 132.266C118.092 130.923 118.891 128.699 118.176 126.516C117.545 124.418 115.527 122.698 113.508 122.74C112.372 122.782 111.447 123.327 111.321 123.411C109.849 124.376 109.176 125.719 109.176 125.719L108.758 126.661C108.611 126.43 108.47 126.213 108.335 126.013C105.39 122.74 102.446 119.508 99.4601 116.235C97.7778 116.655 95.0019 117.032 91.8475 116.277C90.838 116.025 89.9548 115.522 89.1978 115.102C89.4922 114.682 89.7866 114.263 90.081 113.927C91.2166 112.584 92.5625 111.619 93.9504 110.948C97.231 109.605 100.932 109.479 102.993 109.773C103.287 109.814 104.213 109.94 105.517 110.108C105.895 110.15 106.274 110.192 106.736 110.234C107.83 110.318 108.671 110.402 109.176 110.444C115.569 110.864 118.05 110.15 121.247 111.913C121.835 112.248 123.181 113.046 124.317 114.515C126.083 116.819 126.618 119.427 126.696 121.593L126.714 121.565C126.714 121.565 129.869 132.475 125.663 137.973C124.407 139.614 123.571 140.927 123.016 141.96C123.976 142.61 125.081 143.399 126.252 144.31C129.28 146.744 126.84 151.569 123.097 150.562L118.546 149.327L117.991 144.384C113.013 141.495 113.015 135.543 113.073 134.301C113.02 134.203 112.968 134.106 112.915 134.008V134.008Z" fill="#482D1F"/>
<path d="M105.932 148.976L110.396 143.841L105.469 145.08L105.932 148.976Z" fill="#482D1F"/>
<path d="M90.333 129.496C90.4172 130.209 90.5854 131.468 90.2489 132.014C89.7022 132.895 88.2301 130.881 88.4824 129.454C88.6086 128.867 88.903 128.615 89.2395 128.615C89.7863 128.573 90.2489 128.95 90.333 129.496ZM99.3757 128.699C99.4598 129.412 99.628 130.671 99.2916 131.217C98.7448 132.098 97.2727 130.084 97.5251 128.657C97.6513 128.069 97.9457 127.817 98.2822 127.817C98.8289 127.775 99.2916 128.153 99.3757 128.699ZM92.3956 129.584C92.4165 129.353 92.6209 129.182 92.8523 129.203C93.0836 129.224 93.2543 129.428 93.2334 129.66L92.8566 133.818C92.8566 133.872 92.9141 133.943 92.9308 133.945C93.2157 133.966 93.3905 133.966 94.1088 133.953C94.4483 133.946 94.6824 133.943 94.9595 133.943C95.1918 133.943 95.3801 134.132 95.3801 134.364C95.3801 134.596 95.1918 134.785 94.9595 134.785C94.6888 134.785 94.4595 134.787 94.1248 134.794C93.3756 134.808 93.1891 134.808 92.8986 134.785C92.4036 134.785 92.0154 134.3 92.0171 133.781L92.3956 129.584ZM95.5904 137.176C95.1698 137.343 93.8239 137.847 93.3192 137.343C93.1089 137.134 92.7304 136.42 92.7304 136.42C92.7304 136.42 93.866 136.42 95.2119 136.21C95.9689 136.084 96.5157 135.917 96.6839 136.126C96.726 136.168 96.6839 136.294 96.6839 136.378C96.5998 136.798 95.8848 137.092 95.5904 137.176Z" fill="#482D1F"/>
<path d="M105.557 126.451L108.149 125.774C108.469 125.69 108.79 125.909 108.866 126.262C108.941 126.616 108.743 126.97 108.423 127.054L105.973 127.693C106.06 128.099 106.106 128.519 106.106 128.95C106.106 132.243 103.431 134.911 100.133 134.911C97.2495 134.911 94.8427 132.871 94.2835 130.158L92.9361 130.25C92.8044 133.426 90.1829 135.96 86.9689 135.96C83.6708 135.96 80.9966 133.292 80.9966 130C80.9966 126.707 83.6708 124.039 86.9689 124.039C89.9227 124.039 92.376 126.179 92.8562 128.991L94.1612 128.901C94.1877 125.632 96.8517 122.99 100.133 122.99C102.537 122.99 104.609 124.407 105.557 126.451ZM91.6549 129.516C91.4122 127.148 89.4071 125.301 86.9689 125.301C84.367 125.301 82.2583 127.405 82.2583 130C82.2583 132.594 84.367 134.698 86.9689 134.698C89.5708 134.698 91.6795 132.594 91.6795 130C91.6795 129.962 91.6791 129.925 91.6782 129.887C91.6569 129.831 91.6433 129.77 91.639 129.707C91.6344 129.641 91.6402 129.577 91.6549 129.516ZM100.133 133.649C102.735 133.649 104.844 131.545 104.844 128.95C104.844 126.356 102.735 124.252 100.133 124.252C97.5314 124.252 95.4228 126.356 95.4228 128.95C95.4228 131.545 97.5314 133.649 100.133 133.649Z" fill="#482D1F"/>
<path d="M157.025 281.984C157.068 281.638 157.383 281.392 157.729 281.435C158.075 281.478 158.32 281.793 158.278 282.139C158.009 284.306 157.747 285.983 157.122 289.713C156.499 293.425 156.239 295.09 155.973 297.234C155.931 297.58 155.616 297.825 155.27 297.782C154.924 297.74 154.678 297.425 154.721 297.079C154.99 294.911 155.252 293.234 155.877 289.504C156.5 285.792 156.76 284.127 157.025 281.984ZM165.407 279.546C165.471 279.203 165.8 278.977 166.143 279.042C166.485 279.106 166.711 279.435 166.647 279.778C166.208 282.119 165.909 283.941 165.275 288.005C164.64 292.081 164.339 293.912 163.897 296.27C163.833 296.613 163.503 296.838 163.161 296.774C162.819 296.71 162.593 296.38 162.657 296.038C163.096 293.697 163.395 291.874 164.029 287.811C164.664 283.734 164.965 281.903 165.407 279.546ZM124.276 185.193C124.267 185.184 124.258 185.173 124.249 185.163C122.66 183.219 121.182 180.844 119.996 178.134C119.856 177.815 120.002 177.443 120.321 177.303C120.64 177.164 121.012 177.309 121.152 177.628C122.29 180.23 123.707 182.506 125.226 184.364C125.329 184.49 125.375 184.645 125.368 184.795C125.473 184.908 125.537 185.059 125.537 185.225C125.537 185.36 125.551 185.497 125.58 185.661C125.593 185.733 125.608 185.81 125.629 185.905C125.641 185.959 125.684 186.151 125.685 186.158C126.083 187.67 127.241 188.876 128.722 189.369C129.053 189.479 129.232 189.836 129.122 190.166C129.012 190.497 128.655 190.676 128.324 190.566C126.442 189.94 124.971 188.408 124.458 186.453C124.46 186.462 124.41 186.237 124.396 186.174C124.372 186.064 124.353 185.971 124.337 185.881C124.296 185.649 124.275 185.44 124.275 185.225C124.275 185.215 124.275 185.204 124.276 185.193Z" fill="#482D1F"/>
</g>
</g>
</g>
<g clip-path="url(#clip6)">
<path d="M397.826 29.0239C397.826 27.1637 399.336 25.6558 401.192 25.6558H492.457C494.316 25.6558 495.823 27.1624 495.823 29.0239V169.073C495.823 170.933 494.313 172.441 492.457 172.441H401.192C399.333 172.441 397.826 170.935 397.826 169.073V29.0239Z" fill="#E1E5F0"/>
<path d="M447.305 165.725C444.387 165.725 442.021 163.363 442.021 160.449C442.021 157.535 444.387 155.172 447.305 155.172C450.223 155.172 452.589 157.535 452.589 160.449C452.589 163.363 450.223 165.725 447.305 165.725ZM446.344 37.1684C445.548 37.1684 444.903 36.5241 444.903 35.7293C444.903 34.9345 445.548 34.2903 446.344 34.2903C447.14 34.2903 447.785 34.9345 447.785 35.7293C447.785 36.5241 447.14 37.1684 446.344 37.1684ZM402.453 42.9003C402.453 42.4355 402.828 42.0588 403.292 42.0588H490.003C490.466 42.0588 490.842 42.4327 490.842 42.9003V112.297C490.842 112.761 490.467 113.138 490.003 113.138H403.292C402.828 113.138 402.453 112.764 402.453 112.297V42.9003Z" fill="#F2F6FB"/>
<path fill-rule="evenodd" clip-rule="evenodd" d="M402.63 113.888C402.63 113.422 403.005 113.045 403.469 113.045H490.18C490.644 113.045 491.019 113.421 491.019 113.888V149.634C491.019 150.1 490.645 150.477 490.18 150.477H403.469C403.006 150.477 402.63 150.101 402.63 149.634V113.888ZM416.753 50.8911H477.317C480.569 50.8911 483.206 53.5274 483.206 56.7793C483.206 60.0313 480.569 62.6676 477.317 62.6676H416.753C413.501 62.6676 410.864 60.0313 410.864 56.7793C410.864 53.5274 413.501 50.8911 416.753 50.8911Z" fill="white"/>
<path d="M473.111 112.859V105.709H474.803C476.072 105.709 477.737 104.119 477.737 102.349C477.737 100.578 476.702 100.488 475.799 97.1596C475.322 95.3981 473.865 94.6119 471.429 94.8011C468.992 94.6119 467.535 95.3981 467.058 97.1596C466.155 100.488 465.12 100.578 465.12 102.349C465.12 104.119 466.785 105.709 468.054 105.709C468.9 105.709 470.724 105.709 473.526 105.709H469.331H470.587V112.859H442.829L445.838 91.7746C446.074 90.1168 447.494 88.8853 449.169 88.8853H475.117C476.889 88.8853 478.358 90.2608 478.474 92.0298L479.84 112.859H473.111ZM417.593 112.859L419.683 78.8641C419.792 77.0893 421.263 75.7058 423.041 75.7058H436.31C438.146 75.7058 439.643 77.1779 439.674 79.0138L440.245 112.859H417.593ZM434.417 82.9971C433.952 82.9971 433.576 83.3737 433.576 83.8383V88.0442C433.576 88.5087 433.952 88.8853 434.417 88.8853H436.52C436.984 88.8853 437.361 88.5087 437.361 88.0442V83.8383C437.361 83.3737 436.984 82.9971 436.52 82.9971H434.417ZM427.267 82.9971C426.802 82.9971 426.426 83.3737 426.426 83.8383V88.0442C426.426 88.5087 426.802 88.8853 427.267 88.8853H429.37C429.834 88.8853 430.211 88.5087 430.211 88.0442V83.8383C430.211 83.3737 429.834 82.9971 429.37 82.9971H427.267ZM434.417 92.6706C433.952 92.6706 433.576 93.0472 433.576 93.5118V97.7177C433.576 98.1823 433.952 98.5589 434.417 98.5589H436.52C436.984 98.5589 437.361 98.1823 437.361 97.7177V93.5118C437.361 93.0472 436.984 92.6706 436.52 92.6706H434.417ZM427.267 92.6706C426.802 92.6706 426.426 93.0472 426.426 93.5118V97.7177C426.426 98.1823 426.802 98.5589 427.267 98.5589H429.37C429.834 98.5589 430.211 98.1823 430.211 97.7177V93.5118C430.211 93.0472 429.834 92.6706 429.37 92.6706H427.267ZM434.417 102.344C433.952 102.344 433.576 102.721 433.576 103.185V107.391C433.576 107.856 433.952 108.232 434.417 108.232H436.52C436.984 108.232 437.361 107.856 437.361 107.391V103.185C437.361 102.721 436.984 102.344 436.52 102.344H434.417ZM427.267 102.344C426.802 102.344 426.426 102.721 426.426 103.185V107.391C426.426 107.856 426.802 108.232 427.267 108.232H429.37C429.834 108.232 430.211 107.856 430.211 107.391V103.185C430.211 102.721 429.834 102.344 429.37 102.344H427.267ZM457.129 92.6706C456.664 92.6706 456.287 93.0472 456.287 93.5118V97.7177C456.287 98.1823 456.664 98.5589 457.129 98.5589H459.231C459.696 98.5589 460.073 98.1823 460.073 97.7177V93.5118C460.073 93.0472 459.696 92.6706 459.231 92.6706H457.129ZM449.979 92.6706C449.514 92.6706 449.137 93.0472 449.137 93.5118V97.7177C449.137 98.1823 449.514 98.5589 449.979 98.5589H452.081C452.546 98.5589 452.923 98.1823 452.923 97.7177V93.5118C452.923 93.0472 452.546 92.6706 452.081 92.6706H449.979ZM457.129 102.344C456.664 102.344 456.287 102.721 456.287 103.185V107.391C456.287 107.856 456.664 108.232 457.129 108.232H459.231C459.696 108.232 460.073 107.856 460.073 107.391V103.185C460.073 102.721 459.696 102.344 459.231 102.344H457.129ZM449.979 102.344C449.514 102.344 449.137 102.721 449.137 103.185V107.391C449.137 107.856 449.514 108.232 449.979 108.232H452.081C452.546 108.232 452.923 107.856 452.923 107.391V103.185C452.923 102.721 452.546 102.344 452.081 102.344H449.979Z" fill="#A339FF"/>
<path d="M416.753 124.915H475.215C476.376 124.915 477.318 125.856 477.318 127.018C477.318 128.179 476.376 129.121 475.215 129.121H416.753C415.591 129.121 414.65 128.179 414.65 127.018C414.65 125.856 415.591 124.915 416.753 124.915ZM416.753 133.326H475.215C476.376 133.326 477.318 134.268 477.318 135.429C477.318 136.591 476.376 137.532 475.215 137.532H416.753C415.591 137.532 414.65 136.591 414.65 135.429C414.65 134.268 415.591 133.326 416.753 133.326ZM415.491 53.8352H422.641V55.097H415.491V53.8352ZM415.491 56.3588H422.641V57.6205H415.491V56.3588ZM415.491 58.8823H422.641V60.144H415.491V58.8823ZM475.749 57.3445L478.159 59.7895L477.34 60.5646L474.939 58.1283C474.422 58.4712 473.79 58.672 473.112 58.672C471.381 58.672 469.957 57.3667 469.957 55.7279C469.957 54.089 471.381 52.7838 473.112 52.7838C474.842 52.7838 476.266 54.089 476.266 55.7279C476.266 56.3272 476.076 56.8819 475.749 57.3445ZM473.112 57.4102C474.169 57.4102 475.004 56.6442 475.004 55.7279C475.004 54.8116 474.169 54.0455 473.112 54.0455C472.055 54.0455 471.219 54.8116 471.219 55.7279C471.219 56.6442 472.055 57.4102 473.112 57.4102Z" fill="#E1E5F0"/>
</g>
</g>
</g>
<defs>
<clipPath id="clip0">
<rect width="547" height="505" fill="white"/>
</clipPath>
<clipPath id="clip1">
<rect width="715" height="504.706" fill="white" transform="translate(-93)"/>
</clipPath>
<clipPath id="clip2">
<rect width="431.944" height="283.056" fill="white" transform="translate(17.1938 14.2999)"/>
</clipPath>
<clipPath id="clip3">
<rect width="427.318" height="398.297" fill="white" transform="translate(-108.983 85.7999)"/>
</clipPath>
<clipPath id="clip4">
<rect width="427.318" height="398.297" fill="white" transform="translate(-108.983 85.7999)"/>
</clipPath>
<clipPath id="clip5">
<rect width="209.453" height="374.744" fill="white" transform="translate(-0.0500488 109.353)"/>
</clipPath>
<clipPath id="clip6">
<rect width="177.909" height="146.785" fill="white" transform="translate(357.871 25.6558)"/>
</clipPath>
</defs>
</svg>
