<svg width="589" height="416" viewBox="0 0 589 416" fill="none" xmlns="http://www.w3.org/2000/svg">
<g clip-path="url(#clip0)">
<g clip-path="url(#clip1)">
<path d="M212.466 60.2106C226.698 56.3972 241.327 64.843 245.14 79.075C248.954 93.3069 240.508 107.936 226.276 111.749C212.044 115.562 197.415 107.117 193.602 92.8846C189.788 78.6527 198.234 64.024 212.466 60.2106Z" fill="#E1E5F0"/>
<path d="M137.649 138.334L200.831 223.991L228.993 203.469L191.025 132.914L137.649 138.334ZM91.0351 69.9461L122.379 116.069L139.994 63.9117L91.0351 69.9461ZM130.177 121.679L182.22 119.124L165.989 58.5497L150.154 62.7927L130.177 121.679ZM198.101 130.607L239.444 195.213L259.124 180.389L229.099 128.584L198.101 130.607ZM245.627 126.594L272.059 173.922L299.669 153.179L294.051 120.259L245.627 126.594ZM312.185 170.284L345.793 169.086L346.718 147.596L307.175 151.061L312.185 170.284ZM353.731 168.446L383.718 170.284L386.661 148.982L353.731 147.596L353.731 168.446ZM306.253 144.752L350.994 140.08L392.205 142.872L402.117 111.633L303.221 119.228L306.253 144.752ZM258.63 105.922L295.181 104.451L287.683 76.4677L256.973 79.8952L258.63 105.922ZM257.533 71.9881L285.38 68.6275L286.385 44.8753L250.146 50.1889L257.533 71.9881ZM307.714 101.213L350.629 96.2172L344.587 34.0129L302.851 40.8676L307.714 101.213ZM357.957 94.7353L406.15 91.4215L413.536 49.0089L353.481 33.1261L357.957 94.7353ZM213.878 64.7278C202.234 67.8478 195.324 79.8168 198.444 91.4611C201.564 103.105 213.533 110.016 225.177 106.896C236.821 103.775 243.732 91.8066 240.612 80.1622C237.492 68.5179 225.523 61.6077 213.878 64.7278ZM393.684 169.287L430.249 158.935C431.265 158.647 431.978 157.735 432.012 156.68C432.056 155.341 431.005 154.221 429.667 154.177L394.743 153.045L393.684 169.287Z" fill="#F2F6FB"/>
<path d="M262.161 165.715C262.87 166.963 262.433 168.549 261.186 169.258C259.938 169.967 258.352 169.53 257.643 168.283L253.021 160.15C252.311 158.902 252.748 157.316 253.996 156.607C255.243 155.897 256.83 156.334 257.539 157.582L262.161 165.715ZM252.917 149.449C253.626 150.696 253.189 152.283 251.942 152.992C250.694 153.701 249.108 153.264 248.398 152.017L243.776 143.884C243.067 142.636 243.504 141.05 244.752 140.34C245.999 139.631 247.586 140.068 248.295 141.316L252.917 149.449ZM243.64 133.184C244.357 134.428 243.929 136.016 242.685 136.733C241.442 137.449 239.853 137.021 239.137 135.778L234.468 127.671C233.752 126.428 234.179 124.839 235.423 124.123C236.667 123.406 238.255 123.834 238.972 125.078L243.64 133.184ZM232.865 121.139C231.437 121.281 230.164 120.239 230.021 118.811C229.879 117.383 230.921 116.11 232.349 115.968L241.658 115.04C243.086 114.898 244.359 115.94 244.501 117.368C244.644 118.796 243.601 120.069 242.173 120.212L232.865 121.139ZM251.482 119.284C250.054 119.427 248.781 118.384 248.639 116.956C248.496 115.528 249.539 114.255 250.967 114.113L260.275 113.185C261.703 113.043 262.976 114.085 263.119 115.513C263.261 116.941 262.219 118.214 260.79 118.357L251.482 119.284ZM270.099 117.429C268.671 117.572 267.398 116.529 267.256 115.101C267.113 113.673 268.156 112.4 269.584 112.258L278.892 111.33C280.321 111.188 281.594 112.23 281.736 113.659C281.878 115.087 280.836 116.36 279.408 116.502L270.099 117.429ZM288.716 115.574C287.288 115.717 286.015 114.674 285.873 113.246C285.731 111.818 286.773 110.545 288.201 110.403L297.51 109.476C298.938 109.333 300.211 110.376 300.353 111.804C300.495 113.232 299.453 114.505 298.025 114.647L288.716 115.574ZM307.334 113.72C305.906 113.862 304.633 112.819 304.49 111.391C304.348 109.963 305.39 108.69 306.818 108.548L316.127 107.621C317.555 107.478 318.828 108.521 318.97 109.949C319.113 111.377 318.07 112.65 316.642 112.792L307.334 113.72ZM325.951 111.865C324.523 112.007 323.25 110.965 323.107 109.536C322.965 108.108 324.008 106.835 325.436 106.693L334.744 105.766C336.172 105.623 337.445 106.666 337.588 108.094C337.73 109.522 336.687 110.795 335.259 110.937L325.951 111.865ZM344.568 110.01C343.14 110.152 341.867 109.11 341.725 107.682C341.582 106.254 342.625 104.981 344.053 104.838L353.361 103.911C354.789 103.769 356.062 104.811 356.205 106.239C356.347 107.667 355.305 108.94 353.877 109.082L344.568 110.01ZM363.135 108.332C361.704 108.438 360.457 107.364 360.351 105.933C360.245 104.502 361.319 103.255 362.75 103.149L372.079 102.457C373.511 102.351 374.757 103.425 374.863 104.857C374.969 106.288 373.895 107.534 372.464 107.64L363.135 108.332ZM381.793 106.948C380.362 107.054 379.115 105.98 379.009 104.549C378.903 103.118 379.977 101.871 381.409 101.765L390.738 101.073C392.169 100.967 393.415 102.041 393.521 103.473C393.627 104.904 392.553 106.15 391.122 106.256L381.793 106.948ZM400.451 105.564C399.02 105.67 397.774 104.596 397.667 103.165C397.561 101.734 398.635 100.488 400.067 100.381L402.933 100.169L402.996 100.165L409.468 99.8412C410.901 99.7696 412.121 100.873 412.193 102.307C412.265 103.74 411.161 104.96 409.727 105.032L403.255 105.355L403.318 105.352L400.451 105.564ZM414.78 94.7772C414.522 96.1889 413.168 97.1241 411.756 96.8659C410.344 96.6077 409.409 95.254 409.667 93.8422L411.35 84.6402C411.609 83.2285 412.962 82.2933 414.374 82.5515C415.786 82.8097 416.721 84.1634 416.463 85.5752L414.78 94.7772ZM418.146 76.3731C417.887 77.7848 416.534 78.7199 415.122 78.4617C413.71 78.2035 412.775 76.8498 413.033 75.4381L414.716 66.236C414.975 64.8243 416.328 63.8892 417.74 64.1474C419.152 64.4056 420.087 65.7593 419.829 67.171L418.146 76.3731ZM257.774 188.134C253.756 188.134 250.498 184.876 250.498 180.858C250.498 176.839 253.756 173.582 257.774 173.582C261.793 173.582 265.05 176.839 265.05 180.858C265.05 184.876 261.793 188.134 257.774 188.134ZM413.34 58.5535C409.321 58.5535 406.064 55.296 406.064 51.2776C406.064 47.2593 409.321 44.0018 413.34 44.0018C417.358 44.0018 420.615 47.2593 420.615 51.2776C420.615 55.296 417.358 58.5535 413.34 58.5535Z" fill="#D8DEED"/>
<path d="M222.216 88.9082C232.987 70.8408 238.372 58.6486 238.372 52.3317C238.372 42.182 230.073 33.9541 219.836 33.9541C209.598 33.9541 201.299 42.182 201.299 52.3317C201.299 58.6486 206.685 70.8408 217.455 88.9082H217.455C218.239 90.2231 219.94 90.6536 221.255 89.8697C221.65 89.634 221.981 89.3036 222.216 88.9082Z" fill="#474BFF"/>
<path d="M220.009 65.1365C225.941 65.1365 230.749 60.2502 230.749 54.2227C230.749 48.1951 225.941 43.3088 220.009 43.3088C214.077 43.3088 209.268 48.1951 209.268 54.2227C209.268 60.2502 214.077 65.1365 220.009 65.1365Z" fill="white"/>
</g>
<path d="M375.497 350.151C374.54 350.123 373.788 349.325 373.816 348.369C373.844 347.412 374.642 346.66 375.599 346.688L407.891 347.641C408.848 347.669 409.6 348.468 409.572 349.424C409.544 350.38 408.745 351.133 407.789 351.104L375.497 350.151ZM327.243 321.542C326.624 320.813 326.713 319.72 327.443 319.101C328.172 318.481 329.265 318.571 329.884 319.3L349.586 342.514C350.205 343.243 350.116 344.336 349.387 344.956C348.657 345.575 347.564 345.485 346.945 344.756L327.243 321.542ZM306.724 271.648L295.678 297.366C314.396 305.86 327.415 324.715 327.415 346.609C327.415 376.46 303.216 400.659 273.365 400.659C243.515 400.659 219.316 376.46 219.316 346.609C219.316 316.759 243.515 292.56 273.365 292.56C280.094 292.56 286.536 293.789 292.478 296.036L312.033 250.507C312.411 249.628 313.43 249.222 314.309 249.599C315.188 249.977 315.594 250.996 315.217 251.875L308.65 267.163H431.817L419.422 242.031C418.823 242.086 418.215 242.114 417.601 242.114C416.644 242.114 415.869 241.338 415.869 240.381C415.869 239.425 416.644 238.649 417.601 238.649C417.652 238.649 417.703 238.649 417.754 238.648L413.518 230.061C413.095 229.202 413.447 228.164 414.305 227.741C415.163 227.317 416.202 227.67 416.625 228.528L421.398 238.204C426.932 236.873 430.94 232.718 430.94 227.943C430.94 222.153 424.987 217.237 417.601 217.237H385.414C384.457 217.237 383.681 216.461 383.681 215.505C383.681 214.548 384.457 213.772 385.414 213.772H417.601C426.769 213.772 434.405 220.077 434.405 227.943C434.405 234.228 429.569 239.491 422.961 241.373L450.584 297.382C457.396 294.285 464.962 292.56 472.932 292.56C502.783 292.56 526.982 316.759 526.982 346.609C526.982 376.46 502.783 400.659 472.932 400.659C443.082 400.659 418.883 376.46 418.883 346.609C418.883 325.962 430.461 308.018 447.478 298.917L434.012 271.614L370.568 342.12C369.872 342.894 368.655 342.884 367.973 342.098L306.724 271.648ZM452.118 300.491L474.486 345.843C474.909 346.701 474.557 347.74 473.699 348.163C472.84 348.586 471.802 348.234 471.379 347.375L449.012 302.026C433.139 310.561 422.348 327.325 422.348 346.609C422.348 374.546 444.995 397.194 472.932 397.194C500.869 397.194 523.517 374.546 523.517 346.609C523.517 318.672 500.869 296.024 472.932 296.024C465.513 296.024 458.466 297.622 452.118 300.491ZM310.428 270.628L369.302 338.347L430.238 270.628H310.428ZM294.31 300.551L274.957 345.607C274.579 346.486 273.561 346.893 272.682 346.515C271.802 346.137 271.396 345.119 271.773 344.24L291.109 299.224C285.587 297.155 279.608 296.024 273.365 296.024C245.428 296.024 222.781 318.672 222.781 346.609C222.781 374.546 245.428 397.194 273.365 397.194C301.302 397.194 323.95 374.546 323.95 346.609C323.95 326.142 311.795 308.514 294.31 300.551Z" fill="#E1E5F0"/>
<path d="M472.759 357.142C466.923 357.142 462.192 352.488 462.192 346.748C462.192 341.007 466.923 336.354 472.759 336.354C478.595 336.354 483.326 341.007 483.326 346.748C483.326 352.488 478.595 357.142 472.759 357.142ZM273.365 357.35C267.433 357.35 262.625 352.541 262.625 346.609C262.625 340.677 267.433 335.869 273.365 335.869C279.297 335.869 284.106 340.677 284.106 346.609C284.106 352.541 279.297 357.35 273.365 357.35ZM367.605 358.528C357.846 358.528 349.935 350.617 349.935 340.858C349.935 331.099 357.846 323.188 367.605 323.188C377.364 323.188 385.275 331.099 385.275 340.858C385.275 350.617 377.364 358.528 367.605 358.528ZM306.107 247.657H335.557C339.671 247.657 343.006 250.992 343.006 255.106C343.006 259.22 339.671 262.555 335.557 262.555H306.107C301.993 262.555 298.657 259.22 298.657 255.106C298.657 250.992 301.993 247.657 306.107 247.657Z" fill="#D8DEED"/>
<path d="M384.225 346.951C384.574 345.957 384.841 344.919 385.019 343.848L411.999 344.582C412.724 344.588 413.313 345.259 413.308 346.091L413.314 346.299C413.277 347.098 412.666 347.711 411.94 347.704L384.225 346.951ZM351.059 344.209L322.926 311.572C322.406 310.983 322.441 310.047 323.065 309.528L323.203 309.389C323.584 309.077 324.069 308.973 324.554 309.112C324.832 309.147 325.039 309.32 325.247 309.528L352.938 341.474L371.501 345.595C372.298 345.769 372.748 346.531 372.645 347.293L372.61 347.501C372.402 348.263 371.64 348.748 370.878 348.61L351.059 344.209Z" fill="#DE3190"/>
<path d="M412.6 344.752C412.42 344.645 412.215 344.584 411.999 344.582L385.051 343.848C384.974 344.353 384.877 344.851 384.762 345.34L384.72 345.338C385.083 343.928 385.275 342.45 385.275 340.927C385.275 336.795 383.857 332.995 381.481 329.986L385.908 325.059C387.31 326.5 399.244 333.493 405.348 336.539C407.006 337.348 408.598 338.263 410.158 339.248C410.91 339.95 412.242 341.36 412.648 343.044C412.727 343.319 412.702 343.597 412.745 343.838C412.739 344.164 412.685 344.47 412.6 344.752ZM324.617 309.122L340.596 294.417L357.92 314.062L358.127 316.21L358.647 321.719C358.578 323.729 358.612 325.704 358.89 327.713C359.028 328.614 359.167 329.446 359.34 330.173C359.485 330.767 359.647 331.32 359.824 331.862C361.518 332.978 363.46 334.133 366.339 336.375C367.829 337.484 369.18 338.696 370.531 339.978C371.155 340.81 372.159 342.473 372.229 344.171C372.229 344.448 372.194 344.725 372.159 344.968C372.101 345.247 372.007 345.505 371.892 345.74C371.774 345.676 371.643 345.626 371.501 345.595L352.938 341.474L325.247 309.528C325.055 309.336 324.863 309.173 324.617 309.122ZM376.145 325.378L381.138 325.187L379.107 327.442C378.644 327.047 378.184 326.689 377.726 326.367C377.267 326.046 376.74 325.716 376.145 325.378Z" fill="#474961"/>
<path d="M392.377 270.594H401.165C401.073 271.903 400.968 273.285 400.865 274.783C400.441 280.42 402.424 290.047 404.605 299.081L381.113 325.188L376.034 325.393C373.529 324.031 370.657 323.257 367.605 323.257C365.747 323.257 363.956 323.544 362.274 324.075C361.855 323.432 361.624 322.657 361.663 321.832L361.971 315.386C361.104 315.25 360.162 314.826 359.252 314.327C349.205 310.132 341.817 306.458 337.089 303.305C333.664 301.021 328.822 296.538 322.564 289.858C320.645 287.336 320.083 285.418 320.879 284.105L358.928 254.539C346.827 254.931 337.276 254.983 330.277 254.695C315.91 254.104 307.801 249.706 303.886 239.277C301.911 234.011 303.177 228.911 303.678 226.596C306.935 211.559 324.169 210.417 327.223 210.312C329.259 210.243 338.703 210.945 355.554 212.417C382.719 214.693 397.521 216.278 399.961 217.172C401.128 217.6 402.612 218.331 402.852 218.643C415.969 226.088 409.187 240.005 408.529 241.009L408.344 241.078C406.956 245.014 404.816 249.372 402.832 253.055C402.156 258.01 401.69 262.521 401.384 267.129H394.462C393.783 268.249 393.088 269.406 392.377 270.594ZM405.606 303.148C407.733 311.646 409.731 318.925 409.573 320.782C409.435 322.794 407.694 324.349 405.684 324.315L403.639 324.282L385.949 324.994L405.606 303.148Z" fill="#3ABF7C"/>
<path opacity="0.176986" d="M392.419 270.523H401.221C401.129 271.833 401.024 273.215 400.922 274.712C400.498 280.349 402.48 289.977 404.661 299.011L381.169 325.118L376.09 325.322C373.585 323.96 370.714 323.186 367.662 323.186C365.804 323.186 364.013 323.473 362.331 324.005C361.912 323.362 361.681 322.587 361.719 321.761L362.023 315.394C363.018 315.537 363.908 315.291 364.524 314.327C366.874 310.648 368.771 308.837 372.418 303.305C379.272 292.865 386.395 280.584 392.419 270.523ZM402.895 252.938C402.215 257.912 401.747 262.436 401.441 267.058H394.504C395.746 265.01 396.928 263.087 398.038 261.332C398.619 260.399 400.665 257.086 402.895 252.938V252.938ZM405.663 303.078C407.79 311.575 409.787 318.854 409.629 320.711C409.491 322.724 407.751 324.279 405.74 324.245L403.695 324.211L386.005 324.923L405.663 303.078Z" fill="#444444"/>
<path d="M360.178 254.893L367.475 245.733C367.714 245.434 367.664 244.998 367.365 244.759C367.066 244.521 366.63 244.57 366.391 244.869L359.094 254.03C358.856 254.329 358.905 254.765 359.205 255.004C359.504 255.242 359.94 255.193 360.178 254.893Z" fill="#482D1F"/>
<path d="M371.814 172.267C376.023 177.693 373.246 183.908 371.289 187.046C371.706 187.103 372.058 187.429 372.122 187.861L372.186 188.295C372.3 188.843 371.925 189.374 371.383 189.455L368.323 189.981L366.82 196.444L366.726 196.779L362.849 213.58L362.095 216.86C362.046 217.133 361.97 217.019 361.888 217.286C361.8 217.587 320.427 219.329 320.097 218.602C320.103 218.568 320.069 218.562 320.075 218.528C319.947 218.259 319.824 217.956 319.702 217.653C318.423 214.331 318.031 210.568 318.897 206.851L323.993 184.872L315.136 180.929C314.262 180.54 313.869 179.516 314.258 178.642C314.647 177.768 315.671 177.375 316.545 177.764L316.593 177.785C315.82 173.867 315.429 166.301 322.792 163.024C325.804 158.917 328.702 155.733 333.203 153.885C337.303 152.237 341.358 152.402 344.525 153.031C346.279 152.909 348.079 153.041 349.879 153.455L357.648 155.282C365.932 157.155 371.546 164.28 371.814 172.267Z" fill="#DE3190"/>
<path opacity="0.176986" d="M371.72 172.133C373.704 174.6 374.22 177.226 374.004 179.65C373.735 182.667 372.333 185.37 371.223 187.063C371.665 187.072 372.034 187.353 372.102 187.809L372.176 188.412C372.29 188.96 371.869 189.396 371.327 189.477C370.013 189.658 368.976 189.807 368.216 189.922L371.096 177.534L371.238 176.926C371.62 175.317 371.774 173.708 371.72 172.133Z" fill="#444444"/>
<path d="M358.216 149.715L356.605 155.872C356.383 156.719 355.564 157.268 354.697 157.15C352.739 156.885 351.379 156.613 350.617 156.332C349.106 155.777 347.95 155.142 347.149 154.428C346.759 154.08 346.597 153.542 346.732 153.037L348.675 145.733L349.463 142.723L350.12 139.741C349.846 139.55 349.572 139.319 349.318 139.041C348.244 137.828 347.886 132.909 348.51 131.107C349.133 129.409 355.762 131.938 355.762 131.107C355.762 130.553 355.797 127.596 355.866 122.237C355.866 121.683 356.317 121.232 356.871 121.232C358.118 121.232 359.296 121.129 360.613 120.817C360.751 120.817 360.89 120.782 361.029 120.782C362.207 120.609 368.789 120.02 372.393 124.801C372.739 125.217 373.016 125.667 373.294 126.187C373.952 127.4 374.264 128.786 374.194 130.171L373.952 136.373C373.917 136.997 373.848 137.621 373.744 138.244C372.289 145.901 368.928 151.237 366.018 151.479C365.671 151.514 363.8 151.583 361.618 150.994C361.444 150.925 361.583 151.029 358.673 149.886C358.516 149.828 358.364 149.771 358.216 149.715ZM365.716 200.918L366.686 196.716L366.78 196.381L368.285 189.908L370.704 189.56L372.98 200.288C381.636 203.463 388.21 205.923 392.702 207.668C394.73 208.455 395.99 209.085 396.482 209.557C399.675 210.356 403.17 211.718 406.967 213.644C407.188 213.756 407.332 213.978 407.345 214.225C407.366 214.608 407.072 214.934 406.69 214.954L391.89 215.738L361.841 217.451C341.907 218.489 329.132 219.092 323.517 219.26C321.983 219.526 316.804 219.709 311.508 217.069C310.843 216.737 309.565 215.758 308.43 214.519C307.674 213.693 307.176 211.953 306.937 209.301C306.592 205 309.925 198.323 315.599 187.081C316.487 185.337 317.346 183.671 318.178 182.088L342.6 192.962C341.816 194.251 341.066 195.48 340.408 196.55C347.259 197.665 357.14 199.234 365.716 200.918Z" fill="#F2A98A"/>
<path d="M373.909 136.863C374.137 137.725 374.354 138.442 374.66 139.2C375.017 140.136 375.581 141.762 376.355 144.079C376.872 145.666 376.929 146.743 376.524 147.31C376.093 147.933 370.502 148.701 369.986 148.666C369.893 148.66 369.8 148.654 369.707 148.648C371.39 146.312 372.893 142.629 373.744 138.152C373.815 137.722 373.87 137.292 373.909 136.863ZM375.022 134.576C374.332 134.727 373.224 134.816 372.319 134.554C370.751 134.062 372.295 133.203 373.717 133.248C374.41 133.27 374.935 133.573 375.252 133.845C375.499 134.083 375.367 134.501 375.022 134.576ZM367.526 134.353C366.836 134.504 365.729 134.627 364.753 134.333C363.186 133.875 364.73 132.982 366.151 133.026C366.88 133.048 367.405 133.351 367.721 133.622C368.003 133.86 367.871 134.278 367.526 134.353ZM352.457 141.231L353.042 147.491C353.013 147.49 352.984 147.489 352.954 147.488C352.955 147.495 352.956 147.499 352.956 147.499C352.956 147.499 352.95 147.495 352.94 147.487C345.92 147.197 341.181 144.894 337.949 143.49C337.385 143.246 336.731 142.886 336.365 142.178C335.855 141.208 336.201 140.099 336.645 138.757C336.918 137.953 337.376 136.787 338.228 135.53C339.039 134.387 340.121 132.674 341.517 130.353C341.585 128.469 342.057 126.068 343.756 124.038C344.761 122.86 345.904 122.236 346.389 121.993C349.057 120.642 351.101 121.3 356.367 121.162C357.442 121.127 361.93 120.696 362.069 120.696C363.247 120.523 368.997 120.193 372.393 124.801C372.569 125.031 372.747 125.276 372.926 125.536C371.865 126.108 371.023 126.451 370.4 126.567C367.801 127.087 365.549 126.671 364.163 126.255C363.782 127.087 363.228 128.022 362.5 128.923C360.502 131.554 358.056 132.904 356.453 133.59C356.035 133.162 355.316 132.462 354.58 131.904C354.476 131.835 353.749 131.35 352.813 131.281C351.15 131.142 349.418 132.493 348.794 134.191C348.136 135.958 348.69 137.829 349.73 139.007C350.652 140.052 351.875 140.416 352.429 140.557C352.437 140.778 352.446 141.003 352.457 141.231Z" fill="#482D1F"/>
<path d="M371.887 136.797C371.949 136.38 372.289 136.027 372.706 136.055C372.983 136.05 373.228 136.184 373.34 136.667C373.637 137.771 372.591 139.418 372.095 138.803C371.776 138.358 371.793 137.387 371.887 136.797ZM366.3 136.645C366.362 136.228 366.702 135.876 367.119 135.903C367.396 135.898 367.641 136.033 367.753 136.516C368.05 137.62 367.004 139.267 366.508 138.651C366.154 138.207 366.206 137.236 366.3 136.645Z" fill="#482D1F"/>
<path d="M368.641 143.896C368.397 143.831 367.805 143.668 367.694 143.254C367.693 143.185 367.656 143.082 367.69 143.012C367.824 142.767 368.277 142.898 368.901 142.956C370.011 143.006 370.911 142.921 370.911 142.921C370.911 142.921 370.646 143.619 370.476 143.83C370.139 144.355 369.023 143.994 368.641 143.896Z" fill="#482D1F"/>
<path d="M370.426 140.67C370.421 140.669 370.385 140.672 370.349 140.675C370.004 140.704 369.748 140.712 368.821 140.728C368.63 140.731 368.477 140.889 368.481 141.081C368.484 141.272 368.642 141.424 368.833 141.421C369.777 141.404 370.04 141.396 370.406 141.366C370.444 141.363 370.483 141.359 370.522 141.356C370.928 141.282 371.181 140.926 371.174 140.548L371.171 140.507L370.659 136.832L370.658 134.811C370.658 134.62 370.503 134.465 370.312 134.465C370.12 134.465 369.965 134.62 369.965 134.811L369.966 136.856L369.97 136.903L370.481 140.575C370.477 140.626 370.446 140.666 370.426 140.67Z" fill="#482D1F"/>
<path d="M357.301 153.347L354.44 148.636L358.459 149.779L357.301 153.347Z" fill="#482D1F"/>
<path opacity="0.2" d="M365.898 200.129L366.686 196.716L366.78 196.381L368.285 189.908L370.704 189.56L372.98 200.287C381.636 203.463 388.21 205.923 392.703 207.668C395.323 208.685 396.77 209.433 396.391 209.772C394.197 209.209 392.144 208.911 390.232 208.877C385.628 207.076 381.784 205.668 378.702 204.652C376.093 203.791 373.123 202.915 369.791 202.022C369.581 201.962 369.371 201.902 369.16 201.842C369.085 201.826 369.011 201.81 368.936 201.795C367.912 201.524 366.854 201.252 365.763 200.979L365.898 200.129Z" fill="#8C2A00"/>
<path d="M346.027 189.993C346.943 190.782 347.269 192.072 346.722 193.146C346.072 194.421 344.452 194.88 343.129 194.205L341.999 193.681C341.738 193.56 341.625 193.251 341.746 192.991C341.866 192.731 342.175 192.617 342.436 192.738L343.583 193.27C344.428 193.701 345.415 193.421 345.796 192.674C346.176 191.926 345.822 190.963 344.978 190.533C344.722 190.403 344.621 190.09 344.751 189.834C344.809 189.72 344.904 189.637 345.013 189.591C345.02 189.376 345.161 189.18 345.377 189.112C347.426 188.47 349.279 187.366 350.7 185.333C352.431 182.889 352.759 180.025 352.178 177.132C352.086 176.675 351.977 176.252 351.858 175.865C351.781 175.617 351.74 175.498 351.652 175.262C351.553 174.993 351.691 174.694 351.96 174.595C352.229 174.495 352.528 174.633 352.628 174.902C352.721 175.155 352.768 175.288 352.851 175.558C352.98 175.978 353.098 176.435 353.197 176.927C353.829 180.076 353.469 183.221 351.55 185.931C350.055 188.071 348.14 189.274 346.027 189.993ZM334.05 200.475C333.797 200.611 333.482 200.515 333.347 200.262C333.212 200.009 333.307 199.694 333.56 199.559L340.127 196.047C340.381 195.911 340.696 196.007 340.831 196.26C340.966 196.513 340.871 196.828 340.618 196.963L334.05 200.475Z" fill="#482D1F"/>
<g clip-path="url(#clip2)">
<g clip-path="url(#clip3)">
<g clip-path="url(#clip4)">
<path d="M134.604 395.669C135.465 395.669 136.163 396.367 136.163 397.229C136.163 398.09 135.465 398.788 134.604 398.788H78.1292C77.2681 398.788 76.5701 398.09 76.5701 397.229C76.5701 396.367 77.2681 395.669 78.1292 395.669H134.604ZM247.38 398.788H211.867C211.035 398.788 210.308 398.188 210.308 397.468V396.989C210.308 396.269 211.001 395.669 211.867 395.669H247.38C248.212 395.669 248.939 396.269 248.939 396.989V397.468C248.939 398.188 248.246 398.788 247.38 398.788Z" fill="#FF5645"/>
<path d="M134.963 395.711C134.848 395.684 134.727 395.669 134.604 395.669H78.3745C78.3373 395.48 78.3184 395.241 78.3238 394.931C78.3627 394.689 78.3675 394.412 78.4416 394.136C78.8863 392.48 79.4253 391.381 81.0017 390.404C82.5782 389.426 84.1874 388.553 85.8641 387.786C92.0483 384.879 94.1615 384.916 98.2277 382.249C99.9104 381.135 101.458 379.845 102.903 378.45C103.866 377.519 105.833 376.008 108.804 373.915L138.935 374.406L134.963 395.711ZM247.569 395.68C247.507 395.673 247.444 395.669 247.38 395.669H211.986L214.786 377.995L239.594 374.634L247.569 395.68Z" fill="#444444"/>
<path d="M175.207 261.824C167.115 286.843 160.968 305.872 152.463 332.159L147.252 353.389C146.873 355.498 144.698 356.916 142.455 356.536L116.089 352.075C113.846 351.695 112.327 349.655 112.741 347.546C113.742 342.532 114.605 338.107 115.33 334.372C116.572 328.079 117.159 325.037 117.849 321.164C118.263 318.813 118.608 316.842 118.815 315.528C126.822 272.481 134.207 239.426 138.21 221.446C139.901 213.735 143.145 199.179 154.292 184.415C155.017 183.481 155.604 182.755 155.949 182.305C156.465 181.778 157.01 181.317 157.572 180.916C157.559 180.792 157.547 180.668 157.534 180.544C160.34 178.534 162.703 176.146 173.928 175.487C174.205 175.487 174.517 175.453 174.794 175.453C185.674 175.072 195.756 180.788 200.676 189.901L209.095 205.457C210.308 207.674 211.174 210.03 211.659 212.456L240.514 349.532C240.891 351.324 239.809 353.1 238.043 353.586L210.897 361.057C208.679 361.646 206.358 360.433 205.734 358.389L203.621 351.598C197.176 333.409 190.871 314.387 184.807 294.639C181.407 283.528 178.212 272.584 175.207 261.824Z" fill="#FFCB3D"/>
<path d="M202.956 210.929C202.956 210.929 194.85 234.236 200.199 234.752C200.199 234.752 203.158 232.737 204.868 227.135L206.265 216.862L202.956 210.929Z" fill="#482D1F"/>
<path opacity="0.2" d="M159.195 179.818C159.112 179.878 159.03 179.938 158.947 179.998C160.055 190.837 161.62 200.743 162.763 211.582C162.781 211.647 162.8 211.711 162.818 211.776C162.822 211.902 162.83 212.018 162.841 212.122C163.163 215.072 167.313 231.726 175.291 262.082C165.973 290.884 161.711 303.278 152.393 332.08L147.182 353.31C146.802 355.419 144.628 356.837 142.385 356.457L116.019 351.996C113.775 351.616 112.257 349.576 112.671 347.467C113.672 342.453 114.535 338.027 115.259 334.293C116.502 328 117.088 324.957 117.779 321.085C118.193 318.734 118.538 316.763 118.745 315.449C126.751 272.401 134.137 239.346 138.14 221.367C139.831 213.656 143.075 199.099 154.222 184.335C154.947 183.402 155.534 182.676 155.879 182.226C156.9 181.181 158.037 180.4 159.195 179.818Z" fill="#8C2A00"/>
<path d="M164.602 125.247C165.83 124.893 167.116 124.624 168.453 124.451L170.413 124.21C172.843 123.897 175.114 124.019 177.207 124.485C177.455 124.451 177.711 124.42 177.975 124.391C181.543 124.011 186.463 124.149 191.071 126.604C191.695 126.949 193.098 128.104 194.37 129.234C198.163 132.602 197.342 131.962 201.985 139.878C203.128 141.814 204.563 143.974 205.637 146.324C205.645 146.262 205.655 146.387 205.637 146.324C205.807 146.794 205.9 147.301 205.9 147.829C205.9 150.273 203.922 152.447 201.473 152.447C199.388 152.447 197.443 151.09 196.969 149.156C197.065 149.519 197.1 149.683 197.1 150.077C197.1 151.992 196.078 153.737 194.37 154.353L195.504 165.084C195.516 165.466 195.523 165.813 195.57 166.191C195.746 167.91 195.748 170.487 194.497 172.522C192.754 175.383 190.157 179.533 177.381 181.241C163.642 183.067 159.877 179.698 157.417 177.284C155.715 175.647 155.067 173.497 154.813 171.717C154.767 171.34 154.69 171.001 154.61 170.628L151.189 155.038C150.795 157.079 148.995 158.621 146.834 158.621C144.385 158.621 142.4 156.64 142.4 154.196C142.4 153.121 142.784 152.135 143.423 151.369C143.705 149.639 143.988 148.069 144.27 146.66C146.245 137.187 148.497 134.111 148.497 134.111C149.641 132.521 150.749 131.483 151.269 130.999C155.08 127.404 159.792 125.987 163.326 125.434C163.772 125.356 164.199 125.295 164.602 125.247Z" fill="#FF5645"/>
<path d="M108.804 373.92L116.33 352.12L142.719 356.602L138.692 375.683L108.804 373.92ZM213.254 360.413L235.182 354.331L239.594 374.639L214.786 377.999L213.254 360.413ZM163.509 119.517C163.415 119.547 163.319 119.578 163.222 119.609C160.243 120.577 160.416 120.508 160.208 120.577C157.991 121.061 156.12 120.888 155.773 120.819C152.897 120.439 149.814 114.942 148.774 107.233C148.671 106.611 148.671 105.989 148.636 105.367L148.74 99.1787C148.74 97.7959 149.121 96.4477 149.814 95.2724C149.883 95.1341 149.952 95.0304 150.022 94.9267C150.264 94.581 150.507 94.2353 150.749 93.9587C151.685 92.8525 152.794 92.0574 153.937 91.5043C156.639 90.398 159.688 90.2943 161.386 90.5363C161.629 90.5709 162.391 90.6746 163.465 90.8129C164.47 91.0549 165.44 91.1931 166.444 91.2277C166.999 91.2623 167.415 91.7463 167.415 92.2994C167.207 97.6461 167.091 100.596 167.068 101.149C167.033 101.979 169.147 100.181 170.082 100.147C171.745 100.112 173.824 102.809 174.344 104.537C174.898 106.335 174.24 108.167 173.131 109.308C172.334 110.103 171.399 110.448 170.775 110.621C170.498 110.621 170.186 110.898 170.082 111.244C170.082 111.244 170.082 111.278 170.048 111.313L172.196 115.426C172.231 115.53 172.265 115.565 172.265 115.565C172.265 115.565 172.233 115.582 172.175 115.614L173.409 115.357L174.413 124.147C174.413 124.147 172.12 124.79 169.5 125.063C167.753 125.244 165.995 125.347 164.227 125.37L163.509 119.517ZM142.404 154.407C142.512 156.755 144.454 158.625 146.834 158.625C148.995 158.625 150.795 157.083 151.189 155.042L154.61 170.632C154.69 171.005 154.767 171.344 154.813 171.722C154.989 172.955 155.354 174.366 156.128 175.661C150.966 183.925 143.33 191.498 133.898 187.235C121.981 181.849 108.751 172.034 94.2068 157.79C93.4921 157.401 92.6525 156.894 91.7951 156.249C89.5828 154.59 88.5772 152.965 85.2788 146.777C82.0206 140.624 80.2972 131.476 80.8201 129.194C80.9408 128.848 82.1133 127.433 83.4809 128.747C84.9692 130.164 89.7437 137.997 91.8756 141.626C91.9027 141.672 91.9319 141.718 91.963 141.762C91.4255 139.469 91.6296 137.318 93.8239 136.551C93.8239 136.551 96.2446 140.888 98.9685 145.718C99.4826 146.023 99.981 146.356 100.447 146.727C105.676 149.299 132.765 162.626 136.3 164.499L142.404 154.407ZM182.724 156.59C183.119 156.705 183.537 156.766 183.969 156.766C186.418 156.766 188.403 154.785 188.403 152.341C188.403 152.008 188.366 151.683 188.296 151.37L188.308 151.367C188.81 153.261 190.539 154.658 192.596 154.658C195.045 154.658 197.03 152.676 197.03 150.233C197.03 149.839 196.979 149.458 196.882 149.095L197.088 149.04C197.562 150.975 199.311 152.411 201.396 152.411C202.116 152.411 202.796 152.239 203.397 151.935C213.596 183.624 219.362 204.176 220.695 213.591C220.771 213.903 220.828 214.239 220.865 214.6C221.459 220.387 220.148 229.399 216.93 241.637C216.903 241.709 206.723 247.611 199.003 243.764L203.888 215.868L182.724 156.59Z" fill="#DB9E75"/>
<path opacity="0.176986" d="M164.227 125.366C155.956 127.9 150.367 134.316 149.168 141.172C148.837 143.023 148.97 144.958 149.403 146.785L151.172 154.846C150.924 157.055 149.045 158.772 146.765 158.772C144.316 158.772 142.33 156.791 142.33 154.347C142.33 153.258 142.724 152.246 143.378 151.458C143.721 149.199 143.816 148.734 144.201 146.811C146.176 137.339 148.428 134.262 148.428 134.262C149.571 132.672 150.727 131.551 151.246 131.067C155.058 127.471 159.504 126.055 163.038 125.502C163.436 125.433 163.836 125.391 164.227 125.366Z" fill="#444444"/>
<path opacity="0.2" d="M142.404 154.402C142.512 156.75 144.454 158.621 146.834 158.621C148.995 158.621 150.795 157.079 151.189 155.038L154.61 170.628C154.69 171.001 154.767 171.34 154.813 171.717C154.989 172.951 155.354 174.361 156.128 175.656C150.966 183.92 143.33 191.493 133.898 187.23C121.981 181.845 108.751 172.03 94.2068 157.785C93.4921 157.396 92.6525 156.89 91.7951 156.245C89.5828 154.585 88.5772 152.961 85.2788 146.773C82.0206 140.619 80.2972 131.471 80.8201 129.19C80.9408 128.844 82.1133 127.429 83.4809 128.742C84.9692 130.16 89.7437 137.992 91.8756 141.622C91.9027 141.668 91.9319 141.713 91.963 141.758C91.4255 139.464 91.6296 137.314 93.8239 136.547C93.8239 136.547 96.2446 140.884 98.9685 145.714C99.4826 146.019 99.981 146.352 100.447 146.722C105.676 149.294 132.765 162.621 136.3 164.494L142.404 154.402Z" fill="#8C2A00"/>
<path d="M80.9391 121.56C81.9092 121.041 82.9486 121.076 83.2605 121.663L98.0894 148.247C98.4012 148.835 97.9162 149.734 96.9461 150.287C95.9759 150.806 94.9365 150.771 94.6247 150.183L79.7958 123.599C79.4493 122.977 79.969 122.078 80.9391 121.56Z" fill="#474961"/>
<path d="M169.629 110.392L169.805 110.409C170.256 110.306 171.676 110.098 172.785 108.957C173.894 107.851 174.552 106.019 173.963 104.221C173.443 102.493 171.78 101.076 170.117 101.11C169.182 101.145 168.419 101.594 168.315 101.663C167.103 102.458 166.548 103.565 166.548 103.565L166.204 104.341C166.083 104.15 165.967 103.971 165.855 103.807C163.43 101.11 161.005 98.4482 158.545 95.7518C157.159 96.0975 154.872 96.4086 152.274 95.7864C151.442 95.5789 150.715 95.1641 150.091 94.8184C150.334 94.4727 150.576 94.127 150.819 93.8505C151.754 92.7442 152.863 91.9491 154.006 91.396C156.709 90.2898 159.758 90.1861 161.455 90.4281C161.698 90.4626 162.46 90.5663 163.534 90.7046C163.846 90.7392 164.158 90.7738 164.539 90.8083C165.44 90.8775 166.133 90.9466 166.548 90.9812C171.815 91.3269 173.859 90.7392 176.492 92.1911C176.977 92.4677 178.086 93.1245 179.021 94.3344C180.476 96.2326 180.917 98.3813 180.981 100.166L180.996 100.142C180.996 100.142 183.595 109.13 180.13 113.659C179.096 115.011 178.407 116.092 177.95 116.943C178.741 117.479 179.651 118.129 180.615 118.879C183.11 120.884 181.1 124.859 178.017 124.03L174.268 123.012L173.811 118.94C169.71 116.56 169.711 111.657 169.759 110.634C169.716 110.554 169.672 110.473 169.629 110.392Z" fill="#482D1F"/>
<path d="M163.876 122.723L167.553 118.493L163.495 119.514L163.876 122.723Z" fill="#482D1F"/>
<path d="M151.026 106.676C151.096 107.263 151.234 108.301 150.957 108.75C150.507 109.476 149.294 107.817 149.502 106.641C149.606 106.157 149.848 105.95 150.126 105.95C150.576 105.915 150.957 106.226 151.026 106.676ZM158.476 106.019C158.545 106.607 158.683 107.644 158.406 108.093C157.956 108.819 156.743 107.16 156.951 105.984C157.055 105.5 157.298 105.293 157.575 105.293C158.025 105.258 158.406 105.57 158.476 106.019ZM152.726 106.748C152.743 106.558 152.911 106.417 153.102 106.434C153.292 106.452 153.433 106.62 153.416 106.811L153.105 110.236C153.105 110.28 153.153 110.339 153.166 110.34C153.401 110.358 153.545 110.358 154.137 110.347C154.417 110.342 154.609 110.339 154.838 110.339C155.029 110.339 155.184 110.495 155.184 110.686C155.184 110.877 155.029 111.032 154.838 111.032C154.615 111.032 154.426 111.035 154.15 111.04C153.533 111.052 153.379 111.052 153.14 111.032C152.732 111.032 152.412 110.633 152.414 110.205L152.726 106.748ZM155.357 113.002C155.011 113.14 153.902 113.555 153.486 113.14C153.313 112.967 153.001 112.38 153.001 112.38C153.001 112.38 153.937 112.38 155.046 112.207C155.669 112.103 156.12 111.965 156.258 112.138C156.293 112.172 156.258 112.276 156.258 112.345C156.189 112.691 155.6 112.933 155.357 113.002Z" fill="#482D1F"/>
<path d="M163.567 104.167L165.703 103.609C165.966 103.541 166.23 103.721 166.293 104.012C166.355 104.303 166.192 104.595 165.928 104.664L163.91 105.191C163.981 105.525 164.019 105.871 164.019 106.226C164.019 108.938 161.816 111.136 159.099 111.136C156.724 111.136 154.741 109.456 154.28 107.221L153.17 107.297C153.062 109.913 150.902 112.001 148.255 112.001C145.538 112.001 143.335 109.803 143.335 107.091C143.335 104.379 145.538 102.181 148.255 102.181C150.688 102.181 152.709 103.944 153.105 106.26L154.18 106.186C154.201 103.492 156.396 101.316 159.099 101.316C161.08 101.316 162.787 102.484 163.567 104.167ZM152.115 106.692C151.915 104.742 150.263 103.22 148.255 103.22C146.111 103.22 144.374 104.953 144.374 107.091C144.374 109.228 146.111 110.961 148.255 110.961C150.398 110.961 152.135 109.228 152.135 107.091C152.135 107.06 152.135 107.029 152.134 106.998C152.117 106.952 152.105 106.902 152.102 106.85C152.098 106.795 152.103 106.742 152.115 106.692ZM159.099 110.097C161.243 110.097 162.98 108.364 162.98 106.226C162.98 104.089 161.243 102.356 159.099 102.356C156.956 102.356 155.219 104.089 155.219 106.226C155.219 108.364 156.956 110.097 159.099 110.097Z" fill="#482D1F"/>
<path d="M205.966 232.291C206.001 232.007 206.26 231.804 206.545 231.84C206.83 231.875 207.033 232.134 206.997 232.419C206.776 234.205 206.56 235.586 206.045 238.659C205.532 241.717 205.318 243.088 205.099 244.854C205.064 245.139 204.804 245.341 204.519 245.306C204.235 245.271 204.032 245.011 204.068 244.726C204.289 242.941 204.505 241.559 205.02 238.487C205.533 235.429 205.747 234.057 205.966 232.291ZM212.87 230.283C212.923 230.001 213.194 229.815 213.476 229.868C213.758 229.921 213.944 230.192 213.891 230.475C213.53 232.403 213.284 233.904 212.762 237.252C212.238 240.61 211.991 242.118 211.627 244.06C211.574 244.343 211.302 244.528 211.02 244.476C210.738 244.423 210.552 244.151 210.605 243.869C210.966 241.94 211.213 240.439 211.735 237.092C212.258 233.734 212.506 232.225 212.87 230.283ZM178.987 152.558C178.98 152.55 178.973 152.542 178.966 152.533C177.656 150.931 176.439 148.975 175.462 146.743C175.347 146.48 175.467 146.174 175.729 146.058C175.992 145.943 176.299 146.063 176.414 146.326C177.352 148.469 178.519 150.345 179.77 151.875C179.855 151.979 179.893 152.106 179.887 152.23C179.973 152.323 180.026 152.447 180.026 152.584C180.026 152.695 180.038 152.808 180.062 152.943C180.072 153.002 180.085 153.066 180.102 153.144C180.112 153.189 180.147 153.347 180.148 153.353C180.476 154.598 181.43 155.592 182.65 155.997C182.922 156.088 183.07 156.382 182.979 156.655C182.889 156.927 182.594 157.074 182.322 156.984C180.772 156.468 179.56 155.206 179.138 153.596C179.139 153.603 179.098 153.418 179.086 153.366C179.067 153.275 179.051 153.199 179.038 153.124C179.004 152.933 178.987 152.761 178.987 152.584C178.987 152.575 178.987 152.567 178.987 152.558Z" fill="#482D1F"/>
</g>
</g>
</g>
<g clip-path="url(#clip5)">
<path d="M404.331 23.9092C404.331 22.3769 405.575 21.1347 407.104 21.1347H482.286C483.817 21.1347 485.059 22.3758 485.059 23.9092V139.278C485.059 140.811 483.815 142.053 482.286 142.053H407.104C405.573 142.053 404.331 140.812 404.331 139.278V23.9092Z" fill="#E1E5F0"/>
<path d="M445.091 136.521C442.687 136.521 440.738 134.575 440.738 132.174C440.738 129.773 442.687 127.827 445.091 127.827C447.495 127.827 449.444 129.773 449.444 132.174C449.444 134.575 447.495 136.521 445.091 136.521ZM444.299 30.6185C443.644 30.6185 443.112 30.0877 443.112 29.433C443.112 28.7783 443.644 28.2475 444.299 28.2475C444.955 28.2475 445.486 28.7783 445.486 29.433C445.486 30.0877 444.955 30.6185 444.299 30.6185ZM408.142 35.3403C408.142 34.9574 408.451 34.6471 408.834 34.6471H480.264C480.646 34.6471 480.956 34.9551 480.956 35.3403V92.5074C480.956 92.8902 480.647 93.2006 480.264 93.2006H408.834C408.452 93.2006 408.142 92.8926 408.142 92.5074V35.3403Z" fill="#F2F6FB"/>
<path fill-rule="evenodd" clip-rule="evenodd" d="M408.288 93.8182C408.288 93.4346 408.597 93.1236 408.98 93.1236H480.41C480.792 93.1236 481.102 93.4338 481.102 93.8182V123.265C481.102 123.648 480.793 123.959 480.41 123.959H408.98C408.598 123.959 408.288 123.649 408.288 123.265V93.8182ZM419.922 41.9229H469.814C472.493 41.9229 474.665 44.0946 474.665 46.7735C474.665 49.4524 472.493 51.6241 469.814 51.6241H419.922C417.243 51.6241 415.072 49.4524 415.072 46.7735C415.072 44.0946 417.243 41.9229 419.922 41.9229Z" fill="white"/>
<path d="M466.349 92.9705V87.0805H467.744C468.789 87.0805 470.161 85.7708 470.161 84.3124C470.161 82.8541 469.307 82.7799 468.564 80.0378C468.171 78.5867 466.97 77.9391 464.963 78.0949C462.957 77.9391 461.756 78.5867 461.363 80.0378C460.619 82.7799 459.766 82.8541 459.766 84.3124C459.766 85.7708 461.138 87.0805 462.183 87.0805C462.88 87.0805 464.383 87.0805 466.691 87.0805H463.236H464.271V92.9705H441.403L443.882 75.6018C444.077 74.2362 445.247 73.2217 446.626 73.2217H468.002C469.462 73.2217 470.672 74.3548 470.767 75.812L471.893 92.9705H466.349ZM420.615 92.9705L422.336 64.9664C422.426 63.5044 423.638 62.3647 425.103 62.3647H436.034C437.546 62.3647 438.78 63.5774 438.805 65.0898L439.275 92.9705H420.615ZM434.474 68.3711C434.091 68.3711 433.781 68.6813 433.781 69.064V72.5287C433.781 72.9114 434.091 73.2217 434.474 73.2217H436.206C436.589 73.2217 436.899 72.9114 436.899 72.5287V69.064C436.899 68.6813 436.589 68.3711 436.206 68.3711H434.474ZM428.584 68.3711C428.201 68.3711 427.891 68.6813 427.891 69.064V72.5287C427.891 72.9114 428.201 73.2217 428.584 73.2217H430.316C430.699 73.2217 431.009 72.9114 431.009 72.5287V69.064C431.009 68.6813 430.699 68.3711 430.316 68.3711H428.584ZM434.474 76.3399C434.091 76.3399 433.781 76.6502 433.781 77.0329V80.4976C433.781 80.8803 434.091 81.1905 434.474 81.1905H436.206C436.589 81.1905 436.899 80.8803 436.899 80.4976V77.0329C436.899 76.6502 436.589 76.3399 436.206 76.3399H434.474ZM428.584 76.3399C428.201 76.3399 427.891 76.6502 427.891 77.0329V80.4976C427.891 80.8803 428.201 81.1905 428.584 81.1905H430.316C430.699 81.1905 431.009 80.8803 431.009 80.4976V77.0329C431.009 76.6502 430.699 76.3399 430.316 76.3399H428.584ZM434.474 84.3087C434.091 84.3087 433.781 84.619 433.781 85.0017V88.4664C433.781 88.8491 434.091 89.1593 434.474 89.1593H436.206C436.589 89.1593 436.899 88.8491 436.899 88.4664V85.0017C436.899 84.619 436.589 84.3087 436.206 84.3087H434.474ZM428.584 84.3087C428.201 84.3087 427.891 84.619 427.891 85.0017V88.4664C427.891 88.8491 428.201 89.1593 428.584 89.1593H430.316C430.699 89.1593 431.009 88.8491 431.009 88.4664V85.0017C431.009 84.619 430.699 84.3087 430.316 84.3087H428.584ZM453.183 76.3399C452.801 76.3399 452.491 76.6502 452.491 77.0329V80.4976C452.491 80.8803 452.801 81.1905 453.183 81.1905H454.916C455.299 81.1905 455.609 80.8803 455.609 80.4976V77.0329C455.609 76.6502 455.299 76.3399 454.916 76.3399H453.183ZM447.293 76.3399C446.911 76.3399 446.601 76.6502 446.601 77.0329V80.4976C446.601 80.8803 446.911 81.1905 447.293 81.1905H449.026C449.409 81.1905 449.719 80.8803 449.719 80.4976V77.0329C449.719 76.6502 449.409 76.3399 449.026 76.3399H447.293ZM453.183 84.3087C452.801 84.3087 452.491 84.619 452.491 85.0017V88.4664C452.491 88.8491 452.801 89.1593 453.183 89.1593H454.916C455.299 89.1593 455.609 88.8491 455.609 88.4664V85.0017C455.609 84.619 455.299 84.3087 454.916 84.3087H453.183ZM447.293 84.3087C446.911 84.3087 446.601 84.619 446.601 85.0017V88.4664C446.601 88.8491 446.911 89.1593 447.293 89.1593H449.026C449.409 89.1593 449.719 88.8491 449.719 88.4664V85.0017C449.719 84.619 449.409 84.3087 449.026 84.3087H447.293Z" fill="#A339FF"/>
<path d="M419.922 102.902H468.082C469.038 102.902 469.814 103.677 469.814 104.634C469.814 105.591 469.038 106.366 468.082 106.366H419.922C418.966 106.366 418.19 105.591 418.19 104.634C418.19 103.677 418.966 102.902 419.922 102.902ZM419.922 109.831H468.082C469.038 109.831 469.814 110.607 469.814 111.564C469.814 112.52 469.038 113.296 468.082 113.296H419.922C418.966 113.296 418.19 112.52 418.19 111.564C418.19 110.607 418.966 109.831 419.922 109.831ZM418.883 44.3482H424.773V45.3876H418.883V44.3482ZM418.883 46.4271H424.773V47.4665H418.883V46.4271ZM418.883 48.5059H424.773V49.5453H418.883V48.5059ZM468.522 47.2391L470.507 49.2532L469.832 49.8918L467.855 47.8848C467.429 48.1673 466.908 48.3326 466.349 48.3326C464.924 48.3326 463.751 47.2574 463.751 45.9074C463.751 44.5573 464.924 43.4821 466.349 43.4821C467.775 43.4821 468.948 44.5573 468.948 45.9074C468.948 46.4011 468.791 46.858 468.522 47.2391ZM466.349 47.2932C467.22 47.2932 467.908 46.6622 467.908 45.9074C467.908 45.1525 467.22 44.5215 466.349 44.5215C465.479 44.5215 464.79 45.1525 464.79 45.9074C464.79 46.6622 465.479 47.2932 466.349 47.2932Z" fill="#E1E5F0"/>
</g>
</g>
<defs>
<clipPath id="clip0">
<rect width="589" height="415.765" fill="white"/>
</clipPath>
<clipPath id="clip1">
<rect width="355.825" height="233.175" fill="white" transform="translate(90.7753 11.78)"/>
</clipPath>
<clipPath id="clip2">
<rect width="352.014" height="328.108" fill="white" transform="translate(-13.1659 70.68)"/>
</clipPath>
<clipPath id="clip3">
<rect width="352.014" height="328.108" fill="white" transform="translate(-13.1659 70.68)"/>
</clipPath>
<clipPath id="clip4">
<rect width="172.542" height="308.705" fill="white" transform="translate(76.5701 90.0824)"/>
</clipPath>
<clipPath id="clip5">
<rect width="146.557" height="120.918" fill="white" transform="translate(371.417 21.1347)"/>
</clipPath>
</defs>
</svg>
