<svg width="356" height="366" viewBox="0 0 356 366" fill="none" xmlns="http://www.w3.org/2000/svg">
<path d="M262.257 206.178C267.708 216.79 282.462 249.719 295.633 316.751C296.717 322.312 297.759 327.726 298.758 332.983L298.858 332.862C316.908 400.874 329.438 448.488 336.446 475.702C343.644 503.653 333.662 503.217 339.12 526.732C342.267 540.289 352.811 551.191 352.72 565.308C352.706 567.538 352.76 571.997 352.882 578.685C353.1 590.629 344.37 600.857 332.541 602.52L284.758 609.235C271.832 611.052 259.881 602.046 258.065 589.12C258.048 589.001 258.032 588.882 258.017 588.763C256.728 578.452 256.076 572.322 256.059 570.374C256.025 566.336 255.974 562.66 255.896 559.311C253.144 548.044 250.275 536.319 247.966 526.866C244.851 522.054 241.186 515.401 238.297 504.638C236.397 497.558 232.077 469.998 225.338 421.959C225.209 421.314 224.963 419.328 224.6 416L215.166 381.28C214.772 385.336 214.372 389.438 213.966 393.576C214.798 451.117 214.776 483.442 213.9 490.551C211.145 512.922 202.901 519.082 202.66 526.112C202.424 532.999 203.47 543.034 205.46 558.118C205.715 560.05 205.922 566.211 206.08 576.601C206.082 576.721 206.083 576.841 206.083 576.961C206.083 587.423 199.286 596.296 189.868 599.408C183.942 604.802 174.402 600.698 149.351 600.868C149.351 600.868 145.496 600.902 140.406 600.595L134.197 600.595C130.521 600.595 127.023 599.752 123.9 598.238C120.938 597.408 118.489 596.317 117.123 594.884C115.983 593.653 115.264 592.256 115.264 592.256C114.925 591.494 114.68 590.744 114.505 590.035C112.524 587.055 111.196 583.587 110.737 579.823C109.927 573.183 109.359 568.76 109.035 566.554C106.98 552.587 115.904 540.324 117.133 526.46C119.266 502.415 109.442 504.236 112.68 475.556C115.803 447.89 121.713 415.956 130.409 379.753C135.439 322.734 142.058 258.667 149.351 237.139C149.472 236.754 154.021 221.494 160.597 210.722C160.798 210.938 161.007 211.146 161.222 211.345C162.045 212.118 162.865 212.677 163.682 213.092C165.318 214.067 166.673 214.401 166.673 214.401C166.673 214.401 166.74 214.4 166.809 214.47C166.809 214.47 210.717 225.451 254.284 212.943L254.417 212.869C254.417 212.869 255.76 212.488 257.361 211.457C258.095 211.015 258.961 210.355 259.758 209.625C260.756 208.649 261.58 207.473 262.257 206.178Z" fill="#FFCB3D"/>
<path opacity="0.176986" d="M169.991 215.171L192.917 299.701L215.144 381.508C214.757 385.489 214.364 389.515 213.966 393.577C214.798 451.117 214.776 483.442 213.9 490.551C211.145 512.922 202.901 519.082 202.66 526.112C202.424 532.999 203.47 543.034 205.46 558.118C205.715 560.05 205.922 566.211 206.08 576.601C206.082 576.721 206.083 576.841 206.083 576.961C206.083 587.423 199.286 596.296 189.868 599.408C183.942 604.802 174.402 600.698 149.351 600.868C149.351 600.868 145.496 600.902 140.406 600.595L134.197 600.595C130.521 600.595 127.023 599.752 123.9 598.238C120.938 597.408 118.489 596.317 117.123 594.884C115.983 593.653 115.264 592.256 115.264 592.256C114.925 591.494 114.68 590.744 114.505 590.035C112.524 587.055 111.196 583.587 110.737 579.823C109.927 573.183 109.359 568.76 109.035 566.554C106.98 552.587 115.904 540.324 117.133 526.461C119.266 502.415 109.442 504.236 112.68 475.556C115.803 447.89 121.713 415.956 130.409 379.753C135.439 322.734 142.058 258.667 149.351 237.139C149.472 236.754 154.021 221.494 160.597 210.722C160.798 210.938 161.007 211.146 161.222 211.345C162.045 212.118 162.865 212.677 163.682 213.092C165.318 214.067 166.673 214.401 166.673 214.401C166.673 214.401 166.74 214.4 166.809 214.47C166.809 214.47 167.93 214.751 169.991 215.171Z" fill="#444444"/>
<path d="M263.018 116.273C263.1 117.096 263.181 117.946 263.26 118.823L263.264 119.038L263.46 122.545C264.613 161.562 265.189 179.102 265.512 185.972C265.512 185.972 265.457 186.69 265.543 187.763C265.733 190.911 266.026 203.871 260.057 209.705C259.26 210.435 258.394 211.095 257.66 211.538C256.059 212.569 254.716 212.95 254.716 212.95L254.582 213.024C211.016 225.532 167.108 214.551 167.108 214.551C167.108 214.551 165.341 214.159 163.704 213.184C162.888 212.769 162.021 212.167 161.198 211.394C155.095 205.77 155.26 192.839 155.34 189.686C155.322 188.684 155.309 187.896 155.309 187.896C155.385 181.342 155.358 165.426 155.179 130.897C138.074 129.311 131.149 124.377 134.405 116.096C141.8 97.285 146.697 79.2352 176.015 77.1497C183.208 73.5632 191.063 72.3624 196.53 71.9967C199.698 71.7981 202.059 71.8285 203.005 71.8837C203.409 71.8766 203.95 71.9388 204.963 71.9927C205.976 72.0467 207.124 72.0983 208.407 72.1475C209.687 72.0535 210.832 71.9619 211.842 71.8726C212.853 71.7834 213.324 71.7035 213.796 71.6953C214.806 71.606 217.098 71.4944 220.27 71.5823C221.027 71.6064 221.829 71.6443 222.67 71.7005C223.094 71.6032 223.524 71.5074 223.96 71.4132C254.093 64.91 263.62 81.3744 275.854 97.9311C280.751 104.558 276.472 110.672 263.018 116.273Z" fill="#FF5645"/>
<path opacity="0.176986" d="M175.56 77.147C171.374 79.2571 167.42 82.1812 164.301 86.2262C162.915 88.0411 161.142 90.794 159.794 94.7571C159.602 95.3335 159.408 95.8383 159.216 96.4147C158.765 97.6402 157.799 100.236 156.971 103.044C156.081 106.211 155.377 112.24 154.916 120.629L154.92 120.844L154.846 124.355C154.858 126.566 154.87 128.709 154.88 130.784C138.197 129.14 131.465 124.224 134.683 116.037C142.016 97.3843 146.894 79.4797 175.56 77.147Z" fill="#444444"/>
<path d="M258.072 291.473C257.475 291.936 257.121 292.143 257.121 292.143C247.72 290.565 261.162 255.743 265.169 245.887L231.422 125.17C252.372 120.741 266.191 115.913 272.879 110.687C291.074 183.895 300.905 230.849 302.373 251.549C302.485 252.205 302.554 252.909 302.578 253.659C302.97 265.705 298.967 284.141 290.57 308.966C290.503 309.111 268.663 319.835 253.297 310.769L258.072 291.473ZM166.171 8.85709C166.202 8.81714 166.232 8.77668 166.261 8.73562C172.547 1.69087 184.119 1.89898 189.33 3.02276C189.963 3.16136 192.213 3.68582 195.467 4.24386C197.232 4.57347 198.657 4.72319 199.504 4.88425C210.072 6.42704 214.409 5.58666 219.451 8.99716C220.396 9.60055 222.541 11.1222 224.273 13.8247C229.159 21.4675 226.847 30.4422 226.207 33.1113C224.071 41.0963 218.846 45.5881 217.205 47.5039C215.983 48.9526 214.287 50.5697 212.638 52.0307L214.234 75.1453C214.252 75.6463 214.055 76.1548 213.633 76.3846C211.812 77.5947 209.209 78.9756 205.941 79.8063C200.048 81.3737 194.931 80.5491 192.038 79.7902C191.461 79.667 191.011 79.1094 190.991 78.5368L190.127 63.379C189.499 63.5428 188.83 63.7126 188.117 63.8902C181.824 65.5331 182.202 65.3568 181.76 65.4544C177.153 66.1223 173.322 65.5756 172.624 65.3583C170.083 64.8751 167.601 62.4539 165.561 58.5668C162.793 53.3791 160.667 45.5222 160.05 36.3118C159.9 34.9998 159.964 33.7103 160.027 32.4207L161.082 19.6413C161.311 16.7848 162.251 14.0031 163.945 11.5887C164.635 10.509 165.302 9.64295 166.097 8.93432C166.121 8.90848 166.146 8.88274 166.171 8.85709ZM134.466 123.112C136.743 127.225 143.648 129.816 155.18 130.886C155.305 155.042 155.356 170.089 155.349 179.193C138.15 200.374 126.643 197.07 126.643 197.07C118.628 197.417 112.499 193.772 110.186 192.372C90.0099 180.205 51.7084 112.486 45.1025 100.624C36.382 99.4292 28.2408 97.1378 20.6789 93.7496C8.6188 88.3458 3.75906 83.2189 6.09971 78.369L67.9051 82.3595L68.0745 82.242L121.676 138.654C127.293 132.686 131.109 127.811 134.466 123.112Z" fill="#F2A98A"/>
<path opacity="0.2" d="M134.697 123.112C136.975 127.225 143.879 129.816 155.412 130.886C155.537 155.042 155.587 170.089 155.58 179.193C138.382 200.375 126.874 197.07 126.874 197.07C118.859 197.417 112.73 193.772 110.417 192.373C90.2411 180.205 51.9396 112.487 45.3337 100.624C36.6132 99.4294 28.472 97.1381 20.9101 93.7498C8.84998 88.346 3.99024 83.2192 6.33088 78.3692L68.1362 82.3597L68.3057 82.2422L121.907 138.654C127.524 132.686 131.34 127.812 134.697 123.112Z" fill="#8C2A00"/>
<path d="M188.966 63.6304L199.517 60.2636L190.885 73.4527L188.966 63.6304Z" fill="#482D1F"/>
<path d="M214.69 34.6968C214.766 32.9615 214.409 31.1801 213.476 29.5409C211.533 26.0962 207.447 23.8664 203.908 24.6466C201.918 25.0855 200.479 26.4465 200.321 26.574C198.143 28.7936 197.447 31.3128 197.447 31.3128L197.097 32.985C171.429 23.1931 166.452 10.8348 165.115 10.0554C165.523 9.59425 165.924 9.20432 166.175 8.87065C172.532 1.83339 184.318 2.06395 189.6 3.19522C190.305 3.34131 192.554 3.86577 195.879 4.4313C197.716 4.76839 199.141 4.91811 199.988 5.07917C210.769 6.64443 215.178 5.81153 220.291 9.22951C221.236 9.8329 223.452 11.362 225.184 14.0645C230.587 22.2658 228.126 31.2967 227.189 33.3586C226.533 34.802 225.502 35.7018 225.502 35.7018C221.709 35.1332 218.172 34.8812 214.69 34.6968ZM158.207 28.8559C157.499 28.6754 157.333 27.7344 157.86 27.26C158.534 26.7216 159.708 26.2094 161.139 26.2843C164.071 26.438 167.117 28.534 163.782 29.2198C161.824 29.6192 159.551 29.2132 158.207 28.8559ZM172.914 30.1287C172.206 29.9482 172.04 29.0072 172.639 28.5365C173.312 27.9981 174.487 27.4859 175.989 27.5646C178.921 27.7183 181.963 29.8858 178.632 30.5001C176.528 30.9635 174.258 30.486 172.914 30.1287Z" fill="#482D1F"/>
<path d="M163.523 34.1546C163.388 35.3667 163.068 37.358 162.315 38.0357C161.043 39.0448 159.657 35.3863 160.703 33.2179C161.11 32.3069 161.618 32.1901 162.186 32.2916C163.037 32.4796 163.568 33.2963 163.523 34.1546ZM176.333 34.6825C176.34 35.9021 176.235 37.9046 175.475 38.7254C174.339 39.885 172.516 36.3471 173.351 34.0959C173.686 33.1811 174.198 32.9928 174.77 33.0228C175.628 33.0678 176.306 33.8205 176.333 34.6825Z" fill="#482D1F"/>
<path d="M169.7 49.0369C170.208 48.9201 171.442 48.6262 171.698 47.8508C171.706 47.7077 171.788 47.4969 171.724 47.3501C171.465 46.8345 170.591 47.0756 169.3 47.0796C167.004 47.1027 165.156 46.7907 165.156 46.7907C165.156 46.7907 165.581 48.2474 165.917 48.6952C166.576 49.8055 168.902 49.2103 169.7 49.0369Z" fill="#482D1F"/>
<path d="M165.589 34.4065L165.602 34.3076L165.592 34.3566L165.589 34.4065ZM164.128 41.904C163.951 42.7035 164.535 43.5284 165.343 43.707C165.52 43.7329 165.52 43.7329 165.636 43.7479C166.837 43.9039 167.59 43.9779 168.885 44.0458C169.28 44.0665 169.617 43.7631 169.638 43.3681C169.659 42.9731 169.355 42.6361 168.96 42.6154C167.706 42.5497 166.988 42.479 165.82 42.3274L165.59 42.2974C165.588 42.2942 165.527 42.2086 165.53 42.195L167.008 34.5804L167.02 34.4815L167.241 30.2618C167.262 29.8668 166.958 29.5298 166.563 29.5091C166.168 29.4884 165.831 29.7918 165.811 30.1868L165.592 34.3566L164.128 41.904Z" fill="#482D1F"/>
<path d="M214.643 33.5916C214.749 35.7129 214.135 37.9455 212.995 39.673C211.602 41.8546 209.849 42.94 207.654 43.6862C207.28 43.8135 207.079 44.2203 207.207 44.5948C207.334 44.9692 207.741 45.1696 208.115 45.0423C209.081 44.7142 209.854 44.3809 210.769 43.8144C212.117 42.98 213.287 41.8781 214.197 40.4529C215.498 38.4805 216.195 35.9466 216.073 33.5196C216.053 33.1246 215.717 32.8205 215.322 32.8404C214.927 32.8602 214.623 33.1966 214.643 33.5916Z" fill="#482D1F"/>
<path d="M269.366 287.894C269.48 287.312 270.044 286.932 270.626 287.045C271.209 287.159 271.589 287.723 271.475 288.305C270.762 291.963 270.118 294.787 268.613 301.062C267.115 307.308 266.475 310.112 265.77 313.729C265.657 314.312 265.093 314.692 264.51 314.578C263.928 314.465 263.548 313.901 263.661 313.318C264.374 309.661 265.019 306.836 266.524 300.561C268.021 294.316 268.661 291.512 269.366 287.894ZM283.892 284.743C284.042 284.168 284.628 283.824 285.202 283.973C285.777 284.123 286.121 284.709 285.972 285.283C284.949 289.217 284.225 292.283 282.666 299.126C281.102 305.99 280.375 309.072 279.345 313.033C279.195 313.607 278.609 313.952 278.035 313.802C277.46 313.653 277.116 313.066 277.265 312.492C278.288 308.559 279.012 305.492 280.571 298.649C282.135 291.785 282.862 288.704 283.892 284.743Z" fill="#482D1F"/>
<g clip-path="url(#clip0)">
<path d="M40.23 81.0479C62.0294 81.0479 79.7013 63.7947 79.7013 42.512C79.7013 21.2292 62.0294 3.97607 40.23 3.97607C18.4307 3.97607 0.758789 21.2292 0.758789 42.512C0.758789 63.7947 18.4307 81.0479 40.23 81.0479Z" fill="white"/>
<path d="M36.0933 51.3748V51.0112C36.106 48.6383 36.3357 46.7502 36.7822 45.3468C37.2414 43.9435 37.8921 42.8144 38.7341 41.9597C39.5888 41.0922 40.6095 40.2948 41.7959 39.5676C42.9313 38.8532 43.8882 37.9857 44.6664 36.9651C45.4574 35.9445 45.8528 34.7197 45.8528 33.2909C45.8528 31.5941 45.2787 30.2482 44.1306 29.2531C42.9824 28.2452 41.5918 27.7413 39.9588 27.7413C38.4917 27.7413 37.1458 28.207 35.921 29.1383C34.6963 30.0696 34.0265 31.5495 33.9117 33.5779H28.0942C28.1835 31.2816 28.764 29.3424 29.8357 27.7605C30.9073 26.1658 32.3234 24.9602 34.0839 24.1437C35.8572 23.3272 37.8155 22.9189 39.9588 22.9189C42.3062 22.9189 44.3538 23.3591 46.1016 24.2394C47.8622 25.1069 49.2336 26.3252 50.2159 27.8944C51.1983 29.4508 51.6894 31.2688 51.6894 33.3483C51.6894 35.5043 51.1919 37.3351 50.1968 38.8405C49.2145 40.3331 47.8685 41.5961 46.159 42.6295C44.5388 43.6373 43.3779 44.7345 42.6762 45.9209C41.9745 47.1074 41.6046 48.8041 41.5663 51.0112V51.3748H36.0933ZM38.9829 63.0098C37.9367 63.0098 37.0373 62.6398 36.2846 61.8998C35.5319 61.1471 35.1556 60.2413 35.1556 59.1825C35.1556 58.1363 35.5319 57.2433 36.2846 56.5034C37.0373 55.7507 37.9367 55.3743 38.9829 55.3743C40.029 55.3743 40.9284 55.7507 41.6811 56.5034C42.4338 57.2433 42.8101 58.1363 42.8101 59.1825C42.8101 60.2413 42.4338 61.1471 41.6811 61.8998C40.9284 62.6398 40.029 63.0098 38.9829 63.0098Z" fill="#474BFF"/>
</g>
<defs>
<clipPath id="clip0">
<rect width="78.9425" height="77.6692" fill="white" transform="translate(0.758789 3.81982)"/>
</clipPath>
</defs>
</svg>
