<svg width="130" height="125" viewBox="0 0 130 125" fill="none" xmlns="http://www.w3.org/2000/svg">
<path fill-rule="evenodd" clip-rule="evenodd" d="M65 5.58015L69.9558 12.3096C71.3302 14.201 72.3267 16.3257 72.8934 18.5735H57.1067C57.6742 16.3257 58.6712 14.201 60.0464 12.3096L65 5.58015ZM80.2726 35.4737C85.1832 39.5529 88.139 45.4184 88.4411 51.6828H77.8V33.4189L80.2726 35.4737ZM56.4667 55.8215H73.5334V51.6828H56.4667V55.8215ZM68.4411 62.0295H61.559L62.2715 59.9602H67.7286L68.4411 62.0295ZM73.5334 23.1364V47.5442H56.4667V23.1364C56.4667 22.9936 56.4966 22.8549 56.5008 22.7122H73.4992C73.5035 22.8549 73.5334 22.9936 73.5334 23.1364ZM41.623 51.6828C42.0958 46.3564 44.4995 41.3651 48.407 37.5948L52.2 33.9155V51.6828H41.623ZM45.3904 34.6688C40.1595 39.7195 37.2334 46.593 37.2664 53.7522C37.2664 54.8949 38.2219 55.8215 39.4 55.8215H52.2V57.8908C52.2 59.0336 53.1552 59.9602 54.3334 59.9602H57.7723L56.5755 63.4449C56.2032 64.5292 56.8075 65.701 57.9254 66.0621C58.143 66.1322 58.3707 66.1682 58.6 66.1682H71.4C72.5782 66.1682 73.5336 65.2421 73.5339 64.0993C73.5339 63.8769 73.4968 63.656 73.4246 63.4449L72.2278 59.9602H75.6667C76.8448 59.9602 77.8 59.0336 77.8 57.8908V55.8215H90.6C91.7782 55.8215 92.7334 54.8949 92.7334 53.7522V52.7568C92.7374 44.9029 89.1984 37.4404 83.048 32.3325L77.8 27.9683V23.1364C77.8091 18.3904 76.28 13.7618 73.4288 9.90505L66.7366 0.816543C65.9798 -0.113881 64.5886 -0.272702 63.6294 0.461652C63.4936 0.565636 63.3707 0.684623 63.2635 0.816543L56.5712 9.90505C53.72 13.7618 52.191 18.3904 52.2 23.1364V28.0635L45.3904 34.6688Z" fill="#FF6237"/>
<path fill-rule="evenodd" clip-rule="evenodd" d="M65 30.9895C66.1781 30.9895 67.1333 31.916 67.1333 33.0588C67.1333 34.2016 66.1781 35.1282 65 35.1282C63.8219 35.1282 62.8667 34.2016 62.8667 33.0588C62.8667 31.916 63.8219 30.9895 65 30.9895ZM65 39.2668C68.5347 39.2668 71.4 36.4875 71.4 33.0588C71.4 29.6302 68.5347 26.8508 65 26.8508C61.4653 26.8508 58.6 29.6302 58.6 33.0588C58.6 36.4875 61.4653 39.2668 65 39.2668Z" fill="#FB6A43"/>
<path fill-rule="evenodd" clip-rule="evenodd" d="M122.6 101.347H7.4C6.22187 101.347 5.26667 100.42 5.26667 99.2775V93.0695H124.733V99.2775C124.733 100.42 123.778 101.347 122.6 101.347ZM58.6 111.693H71.4V105.485H58.6V111.693ZM47.9333 119.971H82.0667V115.832H47.9333V119.971ZM20.1403 75.3477C20.5776 75.8038 21.2072 76.0389 21.8469 75.9851C22.4891 75.9346 23.0731 75.6051 23.4363 75.0891C25.42 72.2515 29.3997 71.5107 32.3251 73.4349C34.0848 74.5922 35.1371 76.5218 35.1333 78.5842C35.1285 78.7104 35.1149 78.8364 35.0928 78.9608L35.0501 79.2774C34.9216 80.4135 35.7667 81.4354 36.9381 81.5601C37.3128 81.6 37.692 81.5428 38.0368 81.3943C42.3067 79.5029 47.3488 81.3271 49.2987 85.4686C49.8101 86.555 50.0723 87.7366 50.0668 88.9308H5.26667V68.341C10.9421 68.8301 16.2347 71.3234 20.1403 75.3477ZM84.2 84.7922C85.7237 84.8025 87.1923 85.3455 88.3365 86.3214C89.2307 87.0653 90.5776 86.9652 91.3448 86.0979C91.4928 85.9303 91.6123 85.7412 91.6987 85.5371C94.7869 78.1426 103.47 74.5764 111.094 77.572C111.308 77.6561 111.521 77.7453 111.731 77.8392C112.556 78.2037 113.529 78.0218 114.156 77.386C117.046 74.4393 120.699 72.2993 124.733 71.1904V88.9308H78.1925C79.0933 86.4593 81.4973 84.803 84.2 84.7922ZM122.6 26.8508H84.2V30.9895H122.6C123.778 30.9895 124.733 31.916 124.733 33.0588V66.9049C119.998 67.9915 115.645 70.2763 112.117 73.5267C103.346 70.3917 93.5227 73.8591 88.8805 81.7295C87.4288 81.02 85.8256 80.6512 84.2 80.6535C79.1331 80.6597 74.7672 84.1168 73.7467 88.9308H54.3333C54.3264 82.0764 48.5997 76.5216 41.5333 76.5148C40.7597 76.5141 39.9877 76.5836 39.2272 76.7218C38.1645 71.1012 32.6059 67.3805 26.8115 68.4111C24.8552 68.7592 23.0381 69.6307 21.5653 70.9276C17.0528 66.9918 11.3192 64.6218 5.26667 64.1919V33.0588C5.26667 31.916 6.22187 30.9895 7.4 30.9895H45.8V26.8508H7.4C3.86533 26.8508 1 29.6302 1 33.0588V99.2775C1 102.706 3.86533 105.485 7.4 105.485H54.3333V111.693H45.8C44.6219 111.693 43.6667 112.62 43.6667 113.763V119.971H39.4V124.109H90.6V119.971H86.3333V113.763C86.3333 112.62 85.3781 111.693 84.2 111.693H75.6667V105.485H122.6C126.135 105.485 129 102.706 129 99.2775V33.0588C129 29.6302 126.135 26.8508 122.6 26.8508Z" fill="#161514" stroke="white" stroke-width="0.5"/>
<mask id="mask0" mask-type="alpha" maskUnits="userSpaceOnUse" x="1" y="0" width="128" height="125">
<path d="M1 124.11H129V0H1V124.11Z" fill="white"/>
</mask>
<g mask="url(#mask0)">
<path fill-rule="evenodd" clip-rule="evenodd" d="M79.9333 66.1682H84.2V57.8909H79.9333V66.1682Z" fill="#006DF0"/>
<path fill-rule="evenodd" clip-rule="evenodd" d="M86.3333 62.0295H90.6V57.8909H86.3333V62.0295Z" fill="#006DF0"/>
<path fill-rule="evenodd" clip-rule="evenodd" d="M45.8 66.1682H50.0667V57.8909H45.8V66.1682Z" fill="#006DF0"/>
<path fill-rule="evenodd" clip-rule="evenodd" d="M39.4 62.0295H43.6667V57.8909H39.4V62.0295Z" fill="#006DF0"/>
</g>
</svg>
