<svg width="249" height="31" viewBox="0 0 249 31" fill="none" xmlns="http://www.w3.org/2000/svg">
<path d="M15.0971 30.4487L10.6867 21.7551H5.93707V30.4487H0V8.65116H5.93707V16.7934H10.7715L14.9275 8.65116H20.9918L15.6484 19.1683L21.3311 30.4487H15.0971Z" fill="white"/>
<path d="M42.7608 18.3625V19.4651C43.8634 19.7478 44.754 20.3133 45.4325 21.1614C46.111 22.0096 46.4503 23.098 46.4503 24.4268C46.4503 28.4414 43.8776 30.4487 38.7321 30.4487H25.925V8.65116H38.3928C40.5698 8.65116 42.2519 9.14592 43.4394 10.1354C44.655 11.0967 45.2629 12.4396 45.2629 14.1642C45.2629 16.1432 44.4289 17.5426 42.7608 18.3625ZM31.7348 26.1655H37.3751C39.4389 26.1655 40.4708 25.3598 40.4708 23.7483C40.4708 22.1085 39.4389 21.2886 37.3751 21.2886H31.7348V26.1655ZM31.7348 12.9343V17.1327H36.7814C38.4777 17.1327 39.3258 16.44 39.3258 15.0547C39.3258 13.6411 38.4777 12.9343 36.7814 12.9343H31.7348Z" fill="white"/>
<path d="M71.8724 18.4473V20.2285H56.2663C56.436 24.13 58.203 26.0807 61.5673 26.0807C63.716 26.0807 65.073 25.3174 65.6384 23.7907H71.6603C71.208 26.0524 70.1195 27.8194 68.3949 29.0917C66.6704 30.3639 64.3662 31 61.4825 31C58.0616 31 55.3475 29.9539 53.3402 27.8618C51.3612 25.7697 50.3717 22.9708 50.3717 19.4651C50.3717 15.9877 51.3612 13.2312 53.3402 11.1956C55.3192 9.13178 57.9909 8.09986 61.3553 8.09986C64.5782 8.09986 67.1227 9.06111 68.9886 10.9836C70.8546 12.9061 71.8158 15.394 71.8724 18.4473ZM65.8081 16.2845C65.4123 13.7966 63.9139 12.5527 61.3129 12.5527C58.7119 12.5527 57.1004 13.7966 56.4784 16.2845H65.8081Z" fill="white"/>
<path d="M90.7726 23.1122H96.6248C96.3421 25.487 95.2819 27.3953 93.4443 28.8372C91.6349 30.2791 89.3731 31 86.659 31C83.2947 31 80.623 29.9681 78.644 27.9042C76.665 25.8121 75.6755 23.0274 75.6755 19.5499C75.6755 16.1008 76.665 13.3301 78.644 11.238C80.623 9.14592 83.2947 8.09986 86.659 8.09986C89.3731 8.09986 91.6066 8.79252 93.3595 10.1778C95.1406 11.5349 96.1725 13.3443 96.4552 15.606H90.5606C90.0799 13.9097 88.7936 13.0616 86.7015 13.0616C84.9486 13.0616 83.6622 13.6553 82.8424 14.8427C82.0225 16.0301 81.6125 17.585 81.6125 19.5075C81.6125 21.43 82.0225 23.0132 82.8424 24.2572C83.6905 25.4729 84.9769 26.0807 86.7015 26.0807C89.048 26.0807 90.4051 25.0912 90.7726 23.1122Z" fill="white"/>
<path d="M99.7633 13.6129V8.65116H119.992V13.6129H112.867V30.4487H106.93V13.6129H99.7633Z" fill="white"/>
<path d="M138.274 23.1122H144.126C143.844 25.487 142.783 27.3953 140.946 28.8372C139.136 30.2791 136.875 31 134.161 31C130.796 31 128.125 29.9681 126.146 27.9042C124.167 25.8121 123.177 23.0274 123.177 19.5499C123.177 16.1008 124.167 13.3301 126.146 11.238C128.125 9.14592 130.796 8.09986 134.161 8.09986C136.875 8.09986 139.108 8.79252 140.861 10.1778C142.642 11.5349 143.674 13.3443 143.957 15.606H138.062C137.581 13.9097 136.295 13.0616 134.203 13.0616C132.45 13.0616 131.164 13.6553 130.344 14.8427C129.524 16.0301 129.114 17.585 129.114 19.5075C129.114 21.43 129.524 23.0132 130.344 24.2572C131.192 25.4729 132.478 26.0807 134.203 26.0807C136.55 26.0807 137.907 25.0912 138.274 23.1122Z" fill="white"/>
<path d="M169.911 30.4487H163.974V13.6129H155.068V30.4487H149.131V8.65116H169.911V30.4487Z" fill="white"/>
<path d="M196.445 18.4473V20.2285H180.839C181.008 24.13 182.775 26.0807 186.14 26.0807C188.288 26.0807 189.646 25.3174 190.211 23.7907H196.233C195.78 26.0524 194.692 27.8194 192.967 29.0917C191.243 30.3639 188.939 31 186.055 31C182.634 31 179.92 29.9539 177.913 27.8618C175.934 25.7697 174.944 22.9708 174.944 19.4651C174.944 15.9877 175.934 13.2312 177.913 11.1956C179.892 9.13178 182.563 8.09986 185.928 8.09986C189.151 8.09986 191.695 9.06111 193.561 10.9836C195.427 12.9061 196.388 15.394 196.445 18.4473ZM190.381 16.2845C189.985 13.7966 188.486 12.5527 185.885 12.5527C183.284 12.5527 181.673 13.7966 181.051 16.2845H190.381Z" fill="white"/>
<path d="M207.245 30.4487H201.478V8.65116H207.245V20.9494H208.263L216.702 8.65116H222.554V30.4487H216.787V18.1929H215.769L207.245 30.4487ZM215.133 0H219.713C219.543 2.0073 218.794 3.57638 217.465 4.70725C216.165 5.80985 214.341 6.36115 211.995 6.36115C209.648 6.36115 207.825 5.80985 206.524 4.70725C205.224 3.57638 204.489 2.0073 204.319 0H208.899C208.984 0.763338 209.281 1.38532 209.79 1.86594C210.299 2.34656 211.034 2.58687 211.995 2.58687C213.889 2.58687 214.935 1.72458 215.133 0Z" fill="white"/>
<path d="M242.678 23.1122H248.53C248.248 25.487 247.187 27.3953 245.35 28.8372C243.54 30.2791 241.279 31 238.565 31C235.2 31 232.529 29.9681 230.55 27.9042C228.571 25.8121 227.581 23.0274 227.581 19.5499C227.581 16.1008 228.571 13.3301 230.55 11.238C232.529 9.14592 235.2 8.09986 238.565 8.09986C241.279 8.09986 243.512 8.79252 245.265 10.1778C247.046 11.5349 248.078 13.3443 248.361 15.606H242.466C241.985 13.9097 240.699 13.0616 238.607 13.0616C236.854 13.0616 235.568 13.6553 234.748 14.8427C233.928 16.0301 233.518 17.585 233.518 19.5075C233.518 21.43 233.928 23.0132 234.748 24.2572C235.596 25.4729 236.882 26.0807 238.607 26.0807C240.954 26.0807 242.311 25.0912 242.678 23.1122Z" fill="white"/>
</svg>
