<svg width="708" height="477" viewBox="0 0 708 477" fill="none" xmlns="http://www.w3.org/2000/svg">
<g clip-path="url(#clip0)">
<g clip-path="url(#clip1)">
<g clip-path="url(#clip2)">
<path d="M240.407 476.933C239.09 476.933 238.037 476.021 238.037 474.927V474.198C238.037 473.104 239.143 472.193 240.407 472.193H294.387C295.703 472.193 296.756 473.104 296.756 474.198V474.927C296.756 476.021 295.651 476.933 294.387 476.933H240.407ZM385.231 472.193H474.758C476.067 472.193 477.128 473.254 477.128 474.563C477.128 475.872 476.067 476.933 474.758 476.933H385.231C383.922 476.933 382.861 475.872 382.861 474.563C382.861 473.254 383.922 472.193 385.231 472.193Z" fill="#FF5645"/>
<path d="M475.039 472.21C474.947 472.199 474.853 472.193 474.758 472.193H385.231C385.081 472.193 384.934 472.207 384.791 472.234L389.022 438.489H428.625C432.433 441.201 435.575 443.518 438.052 445.44C438.781 446.007 439.5 446.575 440.208 447.146C443.705 449.966 447.549 452.327 451.645 454.171C455.716 456.004 459.786 457.903 463.857 459.87C466.384 461.081 468.807 462.398 471.229 463.925C472.388 464.978 474.442 467.085 475.074 469.613C475.179 470.034 475.179 470.455 475.232 470.824C475.232 471.318 475.159 471.782 475.039 472.21ZM295.252 472.332C294.984 472.242 294.693 472.193 294.387 472.193H241.084C243.218 467.567 247.978 456.342 255.363 438.516H297.124L295.252 472.332Z" fill="#474961"/>
<path d="M353.319 270.993L312.478 417.588C310.574 424.421 304.351 429.147 297.258 429.147H263.929C255.203 429.147 248.13 422.074 248.13 413.348C248.13 412.007 248.3 410.672 248.638 409.374L292.56 240.366C298.978 205.251 304.374 182.466 308.748 172.013C315.652 155.513 329.26 147.279 335.157 146.861C362.959 144.89 377.298 145.717 378.174 149.34C385.703 151.554 404.991 182.765 421.411 259.147C431.557 306.347 437.026 358.198 437.819 414.7C437.941 423.424 430.968 430.596 422.243 430.719C422.167 430.72 422.091 430.72 422.015 430.72L391.006 430.707C382.653 430.704 375.746 424.198 375.242 415.86L368.169 298.67L353.319 270.993Z" fill="#A339FF"/>
<path d="M448.129 66.7354L450.725 103.866C450.867 105.897 449.336 107.658 447.305 107.8L433.646 108.755C431.615 108.897 429.853 107.366 429.711 105.335L426.552 60.1552C426.532 59.8766 426.544 59.603 426.585 59.3381L426.294 59.2383L411.798 56.8256C406.733 55.9827 402.855 51.863 402.318 46.7572L402.317 46.7438C401.779 41.6291 404.677 36.7721 409.434 34.8169L424.06 28.8048L455.925 7.23721C456.467 6.8703 457.097 6.65434 457.75 6.61154C459.782 6.47841 461.536 8.01742 461.67 10.049L465.419 67.2705C465.451 67.7579 465.386 68.2468 465.227 68.7088C464.566 70.6344 462.469 71.6594 460.544 70.9982L448.129 66.7354Z" fill="#474961"/>
<path opacity="0.176986" d="M443.84 55.3468L430.181 56.3019C428.15 56.444 426.619 58.2055 426.761 60.2365L429.92 105.416C430.062 107.447 431.824 108.979 433.855 108.837L447.514 107.882C449.545 107.74 451.076 105.978 450.934 103.947L447.775 58.7671C447.633 56.7361 445.871 55.2048 443.84 55.3468Z" fill="#444444"/>
<path d="M463.856 7.87038C463.694 5.54925 461.681 3.79917 459.36 3.96148C457.038 4.12379 455.288 6.13702 455.451 8.45816L459.675 68.8732C459.838 71.1944 461.851 72.9444 464.172 72.7821C466.493 72.6198 468.243 70.6066 468.081 68.2854L463.856 7.87038Z" fill="#474BFF"/>
<path d="M371.159 64.3361C379.644 68.0817 385.779 75.194 388.064 83.2365C388.853 85.975 389.001 88.9242 388.705 91.768L385.451 128.79C385.402 129.369 385.353 129.896 385.353 130.475C385.303 133.214 384.761 136.584 382.641 139.375C379.585 143.483 374.852 149.276 355.134 149.065C336.796 148.855 332.408 143.062 329.45 139.059C327.331 136.216 326.887 132.319 326.838 129.685C326.838 129.106 326.788 128.579 326.739 128L325.332 109.917C323.993 111.017 322.746 111.864 321.612 112.366C317.281 114.285 314.369 110.472 312.875 100.927C308.114 94.7906 294.042 85.846 317.011 68.3727C325.62 61.8236 333.621 61.6261 339.725 64.3774C343.665 62.7432 348.152 61.7678 352.995 61.5742L353.093 60.173C353.194 58.7223 354.452 57.6285 355.903 57.7299L369.037 58.6483C370.488 58.7498 371.581 60.008 371.48 61.4587L371.333 63.5601C371.314 63.8333 371.254 64.0938 371.159 64.3361Z" fill="#FF5645"/>
<path d="M255.363 438.516L258.866 428.352L297.939 429.147L297.124 438.516H255.363ZM417.686 242.473C402.114 177.858 385.03 151.119 378.141 149.313C378.136 149.279 378.129 149.246 378.121 149.213C383.032 145.723 388.873 140.786 395.642 134.403C412.142 161.563 420.976 188.117 422.143 214.063C422.817 229.043 421.332 238.513 417.686 242.473ZM422.499 74.3309C422.799 74.1859 423.123 74.0794 423.467 74.0187L446.805 69.9035C448.81 69.55 450.722 70.8888 451.076 72.8938L451.35 74.4497C451.513 75.3749 451.316 76.2804 450.859 77.022C451.505 77.56 451.972 78.3206 452.129 79.2134L452.404 80.7693C452.64 82.1085 452.121 83.4062 451.153 84.2257C452.437 84.6179 453.46 85.6999 453.709 87.1128L453.983 88.6687C454.337 90.6738 452.998 92.5858 450.993 92.9393L432.009 96.2866C402.06 129.866 381.276 149.17 369.658 154.198C359.129 158.754 343.167 144.689 321.771 112C328.282 108.748 338.29 94.9515 348.24 86.7865C348.365 86.6839 348.485 86.5784 348.602 86.47L369.024 112.645C404.654 87.0576 422.47 74.2637 422.47 74.2637L422.499 74.3309ZM370.669 53.4804L370.346 59.2811C361.087 59 355.941 58.5669 354.909 57.9818L355.219 48.3467L354.91 44.6729L355.177 41.6979L359.454 42.1461L359.669 41.6531C359.613 41.6042 359.609 41.5517 359.609 41.5517C359.415 41.0373 358.913 40.6501 358.492 40.6795C357.528 40.483 356.073 40.0568 354.78 38.933C352.978 37.3169 351.785 34.6024 352.435 31.8118C353.039 29.1299 353.238 24.8918 355.763 24.768C357.185 24.7214 359.444 24.674 359.609 24.768C359.774 24.8621 363.248 27.1491 363.107 25.8919C363.013 25.0538 362.525 20.5831 361.641 12.4797C361.582 11.6392 362.161 10.8596 362.998 10.7483C364.518 10.5892 365.974 10.2762 367.472 9.80194C369.086 9.47792 370.231 9.23949 370.595 9.16124C373.143 8.61349 377.778 8.44782 381.993 9.84239C383.785 10.5617 385.551 11.6525 387.087 13.2344C387.484 13.629 387.888 14.1286 388.293 14.6282C388.409 14.7785 388.525 14.9287 388.645 15.1315C389.82 16.8442 390.542 18.8527 390.689 20.9541L391.504 30.3468C391.517 31.2961 391.583 32.2417 391.492 33.1984C390.735 45.0238 386.644 53.7038 382.324 54.5866C381.806 54.7284 378.987 55.1895 375.573 54.6891C375.251 54.6061 375.521 54.6928 370.9 53.5377C370.822 53.5185 370.745 53.4994 370.669 53.4804ZM388.828 441.51L389.974 430.72L425.377 430.31L428.81 438.944L388.828 441.51Z" fill="#F2A98A"/>
<path opacity="0.176986" d="M353.175 270.652L378.02 149.624C378.024 149.508 378.016 149.396 377.996 149.285C385.365 150.949 404.87 182.019 421.45 259.149C431.622 306.464 437.082 358.336 437.832 414.765C437.944 423.237 431.168 430.196 422.695 430.309C422.628 430.31 422.56 430.31 422.492 430.31C417.821 430.31 407.39 430.39 391.198 430.549C382.783 430.632 375.78 424.104 375.273 415.703L368.209 298.671L353.175 270.652Z" fill="#444444"/>
<path opacity="0.2" d="M417.686 242.473C402.114 177.858 385.03 151.119 378.141 149.313C378.136 149.279 378.129 149.246 378.121 149.213C383.033 145.723 388.873 140.786 395.642 134.403C412.142 161.563 420.976 188.117 422.143 214.063C422.817 229.043 421.332 238.513 417.686 242.473Z" fill="#8C2A00"/>
<path d="M370.401 58.6287L364.945 51.8573L370.841 53.5212L370.401 58.6287Z" fill="#482D1F"/>
<path d="M364.756 30.657L364.152 29.5142C364.152 29.5142 363.194 27.8919 361.271 26.8121C361.106 26.7181 359.902 26.116 358.48 26.1626C355.955 26.2864 353.584 28.6167 352.979 31.2985C352.277 34.0928 353.47 36.8073 355.269 38.3709C357.071 39.987 359.514 40.1679 360.208 40.2778L360.224 40.2763C361.279 42.4632 361.379 44.8019 360.524 47.2926C359.784 49.4489 357.724 51.4848 355.281 53.137L350.632 52.8241L355.052 47.0084C353.371 45.6538 350.8 43.4724 349.268 41.6413C348.058 40.1949 344.187 36.9285 342.665 31.0167C342.503 30.3125 342.186 29.0215 342.013 27.3957C339.064 29.02 335.506 29.6578 331.886 28.9543C323.892 27.4003 318.626 19.8915 320.124 12.1828C321.623 4.47417 329.318 -0.515257 337.312 1.03865C343.466 2.23488 348.003 6.96005 349.083 12.5887C352.436 10.9236 355.718 11.3592 362.815 10.3915C363.442 10.2949 364.485 10.1164 365.844 9.91579C366.418 9.82284 366.887 9.73724 367.356 9.65165C368.97 9.32763 370.115 9.0892 370.479 9.01095C373.027 8.4632 377.661 8.29753 381.877 9.6921C383.669 10.4114 385.435 11.5022 386.971 13.0841C387.368 13.4787 389.04 15.2957 389.445 15.7953C389.943 17.5009 388.144 18.1701 386.906 18.5734C383.032 19.7946 377.595 17.1711 375.457 16.7927C372.014 21.1513 368.619 25.4536 365.228 29.8085C365.077 30.0708 364.92 30.3546 364.756 30.657ZM392.681 28.1938C391.64 28.4593 390.021 28.7551 388.579 28.4087C386.177 27.8491 388.422 26.413 390.578 26.3C391.63 26.2449 392.444 26.6769 392.939 27.0728C393.376 27.3663 393.202 28.061 392.681 28.1938ZM382.55 28.9808C381.53 29.3183 379.935 29.7263 378.362 29.442C375.932 29.1035 378.065 27.4621 380.209 27.199C381.306 27.0642 382.148 27.4384 382.67 27.7988C383.185 28.1069 383.06 28.8121 382.55 28.9808Z" fill="#482D1F"/>
<path d="M389.064 32.4697C389.061 31.8356 389.54 31.2651 390.169 31.21C390.589 31.1733 390.975 31.351 391.192 32.0192C391.811 33.6567 390.453 36.2602 389.64 35.4326C389.113 34.8443 389.037 33.3708 389.064 32.4697ZM379.678 33.3438C379.675 32.7096 380.154 32.1391 380.783 32.084C381.203 32.0473 381.588 32.225 381.806 32.8933C382.425 34.5308 381.066 37.1342 380.254 36.3066C379.727 35.7184 379.651 34.2448 379.678 33.3438ZM384.412 43.501C384.038 43.4151 383.13 43.199 382.942 42.6287C382.936 42.5236 382.876 42.3685 382.923 42.2606C383.114 41.8814 383.756 42.0587 384.705 42.0617C386.391 42.0261 387.75 41.7967 387.75 41.7967C387.75 41.7967 387.437 42.8678 387.191 43.1971C386.709 44.0661 384.998 43.6284 384.412 43.501ZM386.459 33.257L386.457 33.2225L386.45 33.1885L386.459 33.257ZM387.586 38.7716C387.717 39.3642 387.288 39.9708 386.694 40.1021C386.627 40.116 386.567 40.1277 386.506 40.1389C386.137 40.2069 385.792 40.248 385.15 40.307C385.051 40.3161 384.675 40.35 384.67 40.3505C384.461 40.3694 384.291 40.3852 384.114 40.4022C383.825 40.43 383.567 40.2179 383.54 39.9283C383.512 39.6388 383.724 39.3816 384.013 39.3537C384.192 39.3365 384.365 39.3206 384.575 39.3015C384.58 39.301 384.956 39.2671 385.054 39.2581C385.666 39.2019 385.986 39.1638 386.316 39.1031C386.368 39.0934 386.421 39.0831 386.473 39.0723C386.513 39.0632 386.558 39.0003 386.556 38.9903L385.418 33.3985L385.408 33.33L385.193 30.2299C385.173 29.9397 385.392 29.6882 385.682 29.668C385.972 29.6479 386.224 29.8668 386.244 30.1569L386.457 33.2225L387.586 38.7716Z" fill="#482D1F"/>
<path d="M349.258 86.9266C348.91 80.4251 347.244 74.2084 344.263 68.2828C344.067 67.8931 343.592 67.736 343.203 67.9321C342.813 68.1281 342.656 68.603 342.852 68.9928C345.735 74.7245 347.344 80.7285 347.681 87.0112C347.704 87.4468 348.076 87.7811 348.512 87.7577C348.947 87.7344 349.282 87.3622 349.258 86.9266Z" fill="#482D1F"/>
</g>
</g>
<g clip-path="url(#clip3)">
<path d="M263.316 20.8704H10.5326C4.71562 20.8704 0 25.586 0 31.403V215.197C0 221.014 4.71562 225.73 10.5326 225.73H263.316C269.133 225.73 273.848 221.014 273.848 215.197V31.403C273.848 25.586 269.133 20.8704 263.316 20.8704Z" fill="#F2F6FB"/>
<path d="M13.501 60.7031H21.3526C21.9343 60.7031 22.4059 61.1747 22.4059 61.7564V64.6289C22.4059 65.2106 21.9343 65.6822 21.3526 65.6822H13.501C12.9193 65.6822 12.4478 65.2106 12.4478 64.6289V61.7564C12.4478 61.1747 12.9193 60.7031 13.501 60.7031ZM225.111 60.7031H260.347C260.929 60.7031 261.401 61.1747 261.401 61.7564V64.6289C261.401 65.2106 260.929 65.6822 260.347 65.6822H225.111C224.529 65.6822 224.058 65.2106 224.058 64.6289V61.7564C224.058 61.1747 224.529 60.7031 225.111 60.7031ZM157.894 60.7031H193.13C193.712 60.7031 194.183 61.1747 194.183 61.7564V64.6289C194.183 65.2106 193.712 65.6822 193.13 65.6822H157.894C157.312 65.6822 156.84 65.2106 156.84 64.6289V61.7564C156.84 61.1747 157.312 60.7031 157.894 60.7031ZM200.216 60.7031H218.025C218.607 60.7031 219.079 61.1747 219.079 61.7564V64.6289C219.079 65.2106 218.607 65.6822 218.025 65.6822H200.216C199.634 65.6822 199.162 65.2106 199.162 64.6289V61.7564C199.162 61.1747 199.634 60.7031 200.216 60.7031Z" fill="#E1E5F0"/>
<path d="M259.294 80.6191H14.5543C13.3909 80.6191 12.4478 81.5623 12.4478 82.7257V207.968C12.4478 209.132 13.3909 210.075 14.5543 210.075H259.294C260.458 210.075 261.401 209.132 261.401 207.968V82.7257C261.401 81.5623 260.458 80.6191 259.294 80.6191Z" fill="#E1E5F0"/>
<path d="M198.109 137.878H75.7391C75.1574 137.878 74.6858 138.35 74.6858 138.932V146.783C74.6858 147.365 75.1574 147.837 75.7391 147.837H198.109C198.691 147.837 199.162 147.365 199.162 146.783V138.932C199.162 138.35 198.691 137.878 198.109 137.878Z" fill="#F2F6FB"/>
<path d="M97.2602 166.508H176.588C180.109 166.508 181.386 166.874 182.674 167.563C183.961 168.251 184.971 169.262 185.66 170.549C186.348 171.836 186.715 173.113 186.715 176.634V181.276C186.715 184.798 186.348 186.075 185.66 187.362C184.971 188.649 183.961 189.66 182.674 190.348C181.386 191.036 180.109 191.403 176.588 191.403H97.2602C93.7389 191.403 92.4621 191.036 91.1747 190.348C89.8874 189.66 88.8771 188.649 88.1886 187.362C87.5002 186.075 87.1335 184.798 87.1335 181.276V176.634C87.1335 173.113 87.5002 171.836 88.1886 170.549C88.8771 169.262 89.8874 168.251 91.1747 167.563C92.4621 166.874 93.7389 166.508 97.2602 166.508Z" fill="#474BFF"/>
<path fill-rule="evenodd" clip-rule="evenodd" d="M147.05 107.577C148.828 107.577 150.269 106.134 150.269 104.353C150.269 102.573 148.828 101.129 147.05 101.129C145.272 101.129 143.831 102.573 143.831 104.353C143.831 106.134 145.272 107.577 147.05 107.577ZM147.24 127.101H146.186H139.176L137.639 127.12L137.651 127.101H118.183C117.601 127.101 117.38 126.701 117.691 126.204L131.372 104.391C131.683 103.896 132.195 103.886 132.515 104.368L142.445 119.441L146.172 113.486C146.481 112.993 146.998 112.979 147.329 113.457L155.932 125.863C156.262 126.34 156.057 126.741 155.478 126.758L147.811 126.994L147.18 127.002L147.24 127.101Z" fill="#F2F6FB"/>
<path d="M0 31.4053C0 25.587 4.71521 20.8704 10.5366 20.8704H262.785C268.604 20.8704 273.322 25.5874 273.322 31.4053V44.0421H0V31.4053Z" fill="#E1E5F0"/>
<path d="M15.5355 37.7228C18.2985 37.7228 20.5385 35.4829 20.5385 32.7198C20.5385 29.9567 18.2985 27.7168 15.5355 27.7168C12.7724 27.7168 10.5325 29.9567 10.5325 32.7198C10.5325 35.4829 12.7724 37.7228 15.5355 37.7228Z" fill="#FF5645"/>
<path d="M31.8611 37.7228C34.6242 37.7228 36.8641 35.4829 36.8641 32.7198C36.8641 29.9567 34.6242 27.7168 31.8611 27.7168C29.0981 27.7168 26.8582 29.9567 26.8582 32.7198C26.8582 35.4829 29.0981 37.7228 31.8611 37.7228Z" fill="#FFCB3D"/>
<path d="M48.7134 37.7228C51.4765 37.7228 53.7164 35.4829 53.7164 32.7198C53.7164 29.9567 51.4765 27.7168 48.7134 27.7168C45.9504 27.7168 43.7104 29.9567 43.7104 32.7198C43.7104 35.4829 45.9504 37.7228 48.7134 37.7228Z" fill="#3ABF7C"/>
</g>
<g clip-path="url(#clip4)">
<path d="M189.981 359.572H45.6469C45.2263 359.572 44.8853 359.912 44.8853 360.332V374.007C44.8853 374.426 45.2263 374.767 45.6469 374.767H189.981C190.401 374.767 190.742 374.426 190.742 374.007V360.332C190.742 359.912 190.401 359.572 189.981 359.572Z" fill="#E1E5F0"/>
<path d="M220.066 273.343H46.4086C45.5673 273.343 44.8853 274.023 44.8853 274.862V348.556C44.8853 349.395 45.5673 350.075 46.4086 350.075H220.066C220.908 350.075 221.59 349.395 221.59 348.556V274.862C221.59 274.023 220.908 273.343 220.066 273.343Z" fill="#F2F6FB"/>
<path d="M149.844 313.008L118.423 328.698C118.235 328.792 118.006 328.716 117.912 328.529C117.886 328.476 117.872 328.418 117.872 328.359V296.977C117.872 296.767 118.042 296.597 118.253 296.597C118.312 296.597 118.37 296.611 118.423 296.638L149.844 312.328C150.032 312.422 150.108 312.65 150.014 312.838C149.977 312.911 149.917 312.971 149.844 313.008Z" fill="#E1E5F0"/>
</g>
<g clip-path="url(#clip5)">
<path d="M661.994 41.4087H489.748C488.595 41.4087 487.66 42.3433 487.66 43.4963V174.665C487.66 175.818 488.595 176.753 489.748 176.753H661.994C663.147 176.753 664.082 175.818 664.082 174.665V43.4963C664.082 42.3433 663.147 41.4087 661.994 41.4087Z" fill="#F2F6FB"/>
<path d="M626.09 114.126H636.655C638.206 114.126 638.768 114.287 639.335 114.591C639.902 114.894 640.347 115.339 640.651 115.906C640.954 116.473 641.116 117.035 641.116 118.586V176.753H621.629V118.586C621.629 117.035 621.791 116.473 622.094 115.906C622.397 115.339 622.842 114.894 623.409 114.591C623.976 114.287 624.539 114.126 626.09 114.126Z" fill="#D8DEED"/>
<path d="M603.82 129.087H614.732C616.284 129.087 616.846 129.248 617.413 129.552C617.98 129.855 618.425 130.3 618.728 130.867C619.032 131.434 619.193 131.996 619.193 133.547V176.753H599.359V133.547C599.359 131.996 599.52 131.434 599.824 130.867C600.127 130.3 600.572 129.855 601.139 129.552C601.706 129.248 602.269 129.087 603.82 129.087Z" fill="#D8DEED"/>
<path d="M581.898 82.4644H592.463C594.014 82.4644 594.576 82.6258 595.143 82.9291C595.71 83.2323 596.155 83.6773 596.459 84.2443C596.762 84.8113 596.923 85.3737 596.923 86.9246V176.753H577.437V86.9246C577.437 85.3737 577.599 84.8113 577.902 84.2443C578.205 83.6773 578.65 83.2323 579.217 82.9291C579.784 82.6258 580.347 82.4644 581.898 82.4644Z" fill="#E1E5F0"/>
<path d="M559.628 94.6418H570.192C571.743 94.6418 572.306 94.8033 572.873 95.1066C573.44 95.4098 573.885 95.8548 574.188 96.4218C574.492 96.9888 574.653 97.5512 574.653 99.1021V176.753H555.167V99.1021C555.167 97.5512 555.328 96.9888 555.632 96.4218C555.935 95.8548 556.38 95.4098 556.947 95.1066C557.514 94.8033 558.076 94.6418 559.628 94.6418Z" fill="#D8DEED"/>
<path d="M537.705 123.172H548.27C549.821 123.172 550.384 123.333 550.951 123.637C551.518 123.94 551.963 124.385 552.266 124.952C552.569 125.519 552.731 126.081 552.731 127.632V176.753H533.244V127.632C533.244 126.081 533.406 125.519 533.709 124.952C534.012 124.385 534.457 123.94 535.025 123.637C535.592 123.333 536.154 123.172 537.705 123.172Z" fill="#D8DEED"/>
<path d="M515.435 108.907H526C527.551 108.907 528.114 109.068 528.681 109.372C529.248 109.675 529.693 110.12 529.996 110.687C530.299 111.254 530.461 111.816 530.461 113.367V176.753H510.974V113.367C510.974 111.816 511.136 111.254 511.439 110.687C511.742 110.12 512.187 109.675 512.755 109.372C513.322 109.068 513.884 108.907 515.435 108.907Z" fill="#D8DEED"/>
</g>
<g clip-path="url(#clip6)">
<mask id="mask0" mask-type="alpha" maskUnits="userSpaceOnUse" x="453" y="221" width="256" height="192">
<path d="M698.988 221.517H463.252C457.827 221.517 453.429 225.917 453.429 231.345V402.855C453.429 408.283 457.827 412.684 463.252 412.684H698.988C704.412 412.684 708.81 408.283 708.81 402.855V231.345C708.81 225.917 704.412 221.517 698.988 221.517Z" fill="white"/>
</mask>
<g mask="url(#mask0)">
<path d="M698.988 221.517H463.252C457.827 221.517 453.429 225.917 453.429 231.345V402.855C453.429 408.283 457.827 412.684 463.252 412.684H698.988C704.412 412.684 708.81 408.283 708.81 402.855V231.345C708.81 225.917 704.412 221.517 698.988 221.517Z" fill="#F2F6FB"/>
<path d="M666.753 279.014H586.031C583.319 279.014 581.12 281.214 581.12 283.928V448.826C581.12 451.54 583.319 453.741 586.031 453.741H666.753C669.465 453.741 671.664 451.54 671.664 448.826V283.928C671.664 281.214 669.465 279.014 666.753 279.014Z" fill="#E1E5F0"/>
<path d="M631.622 289.428H622.322C621.364 289.428 620.588 290.205 620.588 291.164C620.588 292.122 621.364 292.899 622.322 292.899H631.622C632.58 292.899 633.357 292.122 633.357 291.164C633.357 290.205 632.58 289.428 631.622 289.428Z" fill="#F2F6FB"/>
<path d="M664.699 298.685H588.085V432.912H664.699V298.685Z" fill="#F2F6FB"/>
<path d="M627.735 377.188L626.459 377.204L626.469 377.188H610.231C609.688 377.188 609.479 376.819 609.77 376.356L621.149 358.203C621.438 357.743 621.914 357.736 622.218 358.193L630.492 370.758L633.566 365.843C633.854 365.383 634.338 365.371 634.646 365.816L641.752 376.068C642.06 376.513 641.869 376.887 641.329 376.904L635.089 377.096L634.463 377.104L634.514 377.188C634.514 377.188 634.075 377.188 633.531 377.188H627.735ZM634.355 360.798C632.863 360.798 631.654 359.586 631.654 358.091C631.654 356.596 632.863 355.385 634.355 355.385C635.847 355.385 637.056 356.596 637.056 358.091C637.056 359.586 635.847 360.798 634.355 360.798Z" fill="#E1E5F0"/>
<path d="M466.068 250.508H473.39C473.933 250.508 474.373 250.948 474.373 251.491V254.154C474.373 254.697 473.933 255.137 473.39 255.137H466.068C465.526 255.137 465.086 254.697 465.086 254.154V251.491C465.086 250.948 465.526 250.508 466.068 250.508ZM663.408 250.508H696.268C696.81 250.508 697.25 250.948 697.25 251.491V254.154C697.25 254.697 696.81 255.137 696.268 255.137H663.408C662.865 255.137 662.425 254.697 662.425 254.154V251.491C662.425 250.948 662.865 250.508 663.408 250.508ZM600.723 250.508H633.584C634.126 250.508 634.566 250.948 634.566 251.491V254.154C634.566 254.697 634.126 255.137 633.584 255.137H600.723C600.181 255.137 599.741 254.697 599.741 254.154V251.491C599.741 250.948 600.181 250.508 600.723 250.508ZM640.191 250.508H656.8C657.342 250.508 657.782 250.948 657.782 251.491V254.154C657.782 254.697 657.342 255.137 656.8 255.137H640.191C639.649 255.137 639.209 254.697 639.209 254.154V251.491C639.209 250.948 639.649 250.508 640.191 250.508Z" fill="#E1E5F0"/>
</g>
<path d="M479.95 285.343H547.724C548.267 285.343 548.706 285.783 548.706 286.326V293.645C548.706 294.188 548.267 294.628 547.724 294.628H479.95C479.408 294.628 478.968 294.188 478.968 293.645V286.326C478.968 285.783 479.408 285.343 479.95 285.343ZM479.95 300.431H536.101C536.643 300.431 537.083 300.871 537.083 301.414V308.733C537.083 309.276 536.643 309.716 536.101 309.716H479.95C479.408 309.716 478.968 309.276 478.968 308.733V301.414C478.968 300.871 479.408 300.431 479.95 300.431ZM479.95 330.607H512.855C513.397 330.607 513.837 331.047 513.837 331.59V338.909C513.837 339.452 513.397 339.892 512.855 339.892H479.95C479.408 339.892 478.968 339.452 478.968 338.909V331.59C478.968 331.047 479.408 330.607 479.95 330.607ZM479.95 315.519H547.724C548.267 315.519 548.706 315.959 548.706 316.502V323.821C548.706 324.364 548.267 324.804 547.724 324.804H479.95C479.408 324.804 478.968 324.364 478.968 323.821V316.502C478.968 315.959 479.408 315.519 479.95 315.519Z" fill="#E1E5F0"/>
<path d="M487.83 351.195H532.968C535.555 351.195 536.862 351.537 538.062 352.18C539.263 352.822 540.205 353.765 540.847 354.966C541.489 356.167 541.831 357.475 541.831 360.063V362.475C541.831 365.064 541.489 366.371 540.847 367.573C540.205 368.774 539.263 369.717 538.062 370.359C536.862 371.002 535.555 371.344 532.968 371.344H487.83C485.244 371.344 483.937 371.002 482.736 370.359C481.536 369.717 480.594 368.774 479.952 367.573C479.31 366.371 478.968 365.064 478.968 362.475V360.063C478.968 357.475 479.31 356.167 479.952 354.966C480.594 353.765 481.536 352.822 482.736 352.18C483.937 351.537 485.244 351.195 487.83 351.195Z" fill="#474BFF"/>
</g>
</g>
<defs>
<clipPath id="clip0">
<rect width="708" height="477" fill="white"/>
</clipPath>
<clipPath id="clip1">
<rect width="535.057" height="502.933" fill="white" transform="translate(90.0537 -26)"/>
</clipPath>
<clipPath id="clip2">
<rect width="239.091" height="476.601" fill="white" transform="translate(238.037 0.331543)"/>
</clipPath>
<clipPath id="clip3">
<rect width="273.322" height="204.86" fill="white" transform="translate(0 20.8704)"/>
</clipPath>
<clipPath id="clip4">
<rect width="184.321" height="115.859" fill="white" transform="translate(41.0771 258.907)"/>
</clipPath>
<clipPath id="clip5">
<rect width="176.421" height="135.344" fill="white" transform="translate(487.66 41.4087)"/>
</clipPath>
<clipPath id="clip6">
<rect width="254.889" height="191.167" fill="white" transform="translate(453.429 221.517)"/>
</clipPath>
</defs>
</svg>
