<svg width="791" height="503" viewBox="0 0 791 503" fill="none" xmlns="http://www.w3.org/2000/svg">
<g clip-path="url(#clip0)">
<g clip-path="url(#clip1)">
<path d="M323.088 502.933C321.772 502.933 320.718 502.021 320.718 500.927V500.198C320.718 499.104 321.824 498.193 323.088 498.193H377.068C378.384 498.193 379.438 499.104 379.438 500.198V500.927C379.438 502.021 378.332 502.933 377.068 502.933H323.088ZM467.912 498.193H557.439C558.748 498.193 559.809 499.254 559.809 500.563C559.809 501.872 558.748 502.933 557.439 502.933H467.912C466.603 502.933 465.542 501.872 465.542 500.563C465.542 499.254 466.603 498.193 467.912 498.193Z" fill="#FF5645"/>
<path d="M557.72 498.21C557.628 498.199 557.534 498.193 557.439 498.193H467.912C467.762 498.193 467.615 498.207 467.473 498.234L471.703 464.489H511.306C515.114 467.201 518.256 469.518 520.733 471.44C521.462 472.007 522.181 472.575 522.889 473.146C526.386 475.966 530.23 478.327 534.326 480.171C538.397 482.004 542.467 483.903 546.538 485.87C549.066 487.081 551.488 488.398 553.911 489.925C555.069 490.978 557.123 493.085 557.755 495.613C557.86 496.034 557.86 496.455 557.913 496.824C557.913 497.318 557.84 497.782 557.72 498.21ZM377.933 498.332C377.665 498.242 377.374 498.193 377.068 498.193H323.766C325.899 493.567 330.659 482.342 338.045 464.516H379.805L377.933 498.332Z" fill="#474961"/>
<path d="M436 296.993L395.159 443.588C393.255 450.421 387.032 455.147 379.939 455.147H346.61C337.884 455.147 330.811 448.074 330.811 439.348C330.811 438.007 330.981 436.672 331.319 435.374L375.241 266.366C381.659 231.251 387.055 208.466 391.429 198.013C398.333 181.513 411.941 173.279 417.838 172.861C445.64 170.89 459.979 171.717 460.855 175.34C468.384 177.554 487.672 208.765 504.092 285.147C514.238 332.347 519.708 384.198 520.5 440.7C520.622 449.424 513.649 456.596 504.924 456.719C504.848 456.72 504.772 456.72 504.696 456.72L473.687 456.707C465.334 456.703 458.427 450.198 457.924 441.86L450.85 324.67L436 296.993Z" fill="#A339FF"/>
<path d="M530.81 92.7354L533.406 129.866C533.548 131.897 532.017 133.658 529.986 133.8L516.327 134.755C514.296 134.897 512.534 133.366 512.392 131.335L509.233 86.1552C509.214 85.8766 509.226 85.603 509.266 85.3381L508.975 85.2383L494.479 82.8256C489.415 81.9827 485.536 77.863 484.999 72.7572L484.998 72.7438C484.46 67.6291 487.359 62.7721 492.115 60.8169L506.741 54.8048L538.606 33.2372C539.148 32.8703 539.778 32.6543 540.431 32.6115C542.463 32.4784 544.218 34.0174 544.351 36.049L548.1 93.2705C548.132 93.7579 548.067 94.2468 547.909 94.7088C547.247 96.6344 545.15 97.6594 543.225 96.9982L530.81 92.7354Z" fill="#474961"/>
<path opacity="0.176986" d="M526.522 81.3468L512.862 82.3019C510.832 82.444 509.3 84.2055 509.442 86.2365L512.602 131.416C512.744 133.447 514.505 134.979 516.536 134.837L530.195 133.882C532.226 133.74 533.757 131.978 533.615 129.947L530.456 84.7671C530.314 82.7361 528.553 81.2048 526.522 81.3468Z" fill="#444444"/>
<path d="M546.537 33.8706C546.375 31.5495 544.362 29.7994 542.041 29.9617C539.72 30.124 537.969 32.1373 538.132 34.4584L542.356 94.8735C542.519 97.1946 544.532 98.9447 546.853 98.7824C549.174 98.6201 550.924 96.6068 550.762 94.2857L546.537 33.8706Z" fill="#474BFF"/>
<path d="M453.84 90.3363C462.325 94.0819 468.46 101.194 470.745 109.237C471.534 111.975 471.682 114.924 471.386 117.768L468.132 154.79C468.083 155.37 468.034 155.896 468.034 156.476C467.984 159.214 467.442 162.585 465.322 165.376C462.266 169.483 457.534 175.276 437.815 175.066C419.477 174.855 415.089 169.062 412.131 165.06C410.012 162.216 409.568 158.319 409.519 155.686C409.519 155.106 409.469 154.58 409.42 154L408.014 135.918C406.674 137.018 405.427 137.864 404.293 138.367C399.962 140.285 397.05 136.472 395.556 126.928C390.795 120.791 376.723 111.846 399.692 94.3729C408.301 87.8239 416.302 87.6263 422.407 90.3777C426.346 88.7435 430.833 87.768 435.676 87.5744L435.774 86.1732C435.875 84.7225 437.134 83.6287 438.584 83.7302L451.718 84.6486C453.169 84.75 454.262 86.0083 454.161 87.459L454.014 89.5604C453.995 89.8335 453.935 90.094 453.84 90.3363Z" fill="#FF5645"/>
<path d="M338.044 464.516L341.547 454.352L380.621 455.147L379.805 464.516H338.044ZM500.367 268.473C484.795 203.858 467.711 177.119 460.822 175.313C460.817 175.279 460.81 175.246 460.802 175.213C465.714 171.723 471.554 166.786 478.323 160.403C494.823 187.563 503.657 214.117 504.825 240.063C505.499 255.043 504.013 264.513 500.367 268.473ZM505.18 100.331C505.48 100.186 505.804 100.079 506.148 100.019L529.487 95.9035C531.492 95.55 533.404 96.8888 533.757 98.8938L534.031 100.45C534.195 101.375 533.997 102.28 533.541 103.022C534.187 103.56 534.653 104.321 534.81 105.213L535.085 106.769C535.321 108.108 534.802 109.406 533.834 110.226C535.118 110.618 536.141 111.7 536.39 113.113L536.665 114.669C537.018 116.674 535.679 118.586 533.674 118.939L514.691 122.287C484.741 155.866 463.957 175.17 452.339 180.198C441.81 184.754 425.848 170.689 404.453 138C410.963 134.748 420.971 120.951 430.921 112.786C431.046 112.684 431.167 112.578 431.283 112.47L451.705 138.645C487.336 113.058 505.151 100.264 505.151 100.264L505.18 100.331ZM453.35 79.4804L453.027 85.2811C443.768 85 438.622 84.5669 437.591 83.9818L437.901 74.3467L437.591 70.6729L437.858 67.6979L442.136 68.1461L442.35 67.6531C442.294 67.6042 442.29 67.5517 442.29 67.5517C442.096 67.0373 441.594 66.6501 441.174 66.6795C440.21 66.483 438.754 66.0568 437.462 64.933C435.659 63.3169 434.466 60.6024 435.116 57.8118C435.72 55.1299 435.919 50.8918 438.444 50.768C439.866 50.7214 442.125 50.674 442.29 50.768C442.455 50.8621 445.929 53.1491 445.788 51.8919C445.694 51.0538 445.206 46.5831 444.322 38.4797C444.264 37.6392 444.843 36.8596 445.679 36.7483C447.199 36.5892 448.656 36.2762 450.153 35.8019C451.767 35.4779 452.912 35.2395 453.276 35.1612C455.825 34.6135 460.459 34.4478 464.674 35.8424C466.466 36.5617 468.232 37.6525 469.768 39.2344C470.165 39.629 470.57 40.1286 470.974 40.6282C471.09 40.7785 471.206 40.9287 471.326 41.1315C472.502 42.8442 473.223 44.8527 473.37 46.9541L474.185 56.3468C474.199 57.2961 474.265 58.2417 474.173 59.1984C473.416 71.0238 469.325 79.7038 465.005 80.5866C464.487 80.7284 461.668 81.1895 458.255 80.6891C457.932 80.6061 458.202 80.6928 453.581 79.5377C453.503 79.5185 453.426 79.4994 453.35 79.4804ZM471.509 467.51L472.655 456.72L508.058 456.31L511.491 464.944L471.509 467.51Z" fill="#F2A98A"/>
<path opacity="0.176986" d="M435.856 296.652L460.702 175.624C460.706 175.509 460.698 175.396 460.678 175.286C468.046 176.949 487.551 208.019 504.132 285.149C514.303 332.465 519.763 384.337 520.513 440.765C520.626 449.237 513.849 456.196 505.377 456.309C505.309 456.31 505.241 456.31 505.173 456.31C500.502 456.31 490.071 456.39 473.88 456.549C465.464 456.632 458.461 450.104 457.954 441.703L450.89 324.672L435.856 296.652Z" fill="#444444"/>
<path opacity="0.2" d="M500.367 268.473C484.795 203.858 467.711 177.119 460.822 175.313C460.817 175.279 460.81 175.246 460.802 175.213C465.714 171.723 471.554 166.786 478.323 160.403C494.823 187.563 503.657 214.117 504.825 240.063C505.499 255.043 504.013 264.513 500.367 268.473Z" fill="#8C2A00"/>
<path d="M453.082 84.6289L447.626 77.8576L453.522 79.5214L453.082 84.6289Z" fill="#482D1F"/>
<path d="M447.438 56.6571L446.833 55.5143C446.833 55.5143 445.875 53.892 443.952 52.8123C443.787 52.7182 442.584 52.1161 441.161 52.1627C438.636 52.2865 436.265 54.6168 435.661 57.2986C434.959 60.0929 436.151 62.8074 437.95 64.371C439.752 65.9871 442.196 66.168 442.89 66.2779L442.905 66.2764C443.96 68.4633 444.06 70.8021 443.205 73.2927C442.465 75.4491 440.406 77.4849 437.962 79.1371L433.313 78.8242L437.734 73.0085C436.052 71.654 433.481 69.4725 431.949 67.6414C430.74 66.195 426.869 62.9287 425.347 57.0168C425.184 56.3127 424.867 55.0216 424.695 53.3958C421.745 55.0201 418.187 55.6579 414.567 54.9544C406.573 53.4005 401.307 45.8916 402.806 38.183C404.304 30.4743 411.999 25.4849 419.993 27.0388C426.148 28.235 430.685 32.9602 431.764 38.5888C435.118 36.9237 438.399 37.3593 445.496 36.3916C446.123 36.295 447.166 36.1165 448.525 35.9159C449.099 35.823 449.568 35.7374 450.037 35.6518C451.651 35.3277 452.796 35.0893 453.16 35.0111C455.708 34.4633 460.343 34.2977 464.558 35.6922C466.35 36.4116 468.116 37.5023 469.652 39.0842C470.049 39.4788 471.721 41.2958 472.126 41.7955C472.625 43.501 470.826 44.1702 469.587 44.5736C465.713 45.7947 460.277 43.1713 458.139 42.7929C454.695 47.1514 451.301 51.4537 447.91 55.8086C447.759 56.0709 447.601 56.3548 447.438 56.6571ZM475.362 54.1939C474.322 54.4594 472.702 54.7552 471.26 54.4089C468.858 53.8492 471.103 52.4132 473.259 52.3002C474.311 52.245 475.125 52.677 475.62 53.0729C476.057 53.3664 475.883 54.0611 475.362 54.1939ZM465.231 54.9809C464.211 55.3184 462.616 55.7264 461.043 55.4421C458.614 55.1037 460.747 53.4622 462.89 53.1991C463.987 53.0643 464.829 53.4385 465.351 53.7989C465.866 54.107 465.741 54.8122 465.231 54.9809Z" fill="#482D1F"/>
<path d="M471.745 58.4699C471.742 57.8357 472.221 57.2652 472.851 57.2101C473.27 57.1734 473.656 57.3511 473.873 58.0194C474.492 59.6569 473.134 62.2603 472.321 61.4327C471.794 60.8444 471.718 59.3709 471.745 58.4699ZM462.359 59.3439C462.356 58.7098 462.835 58.1392 463.464 58.0842C463.884 58.0474 464.27 58.2252 464.487 58.8934C465.106 60.5309 463.748 63.1344 462.935 62.3067C462.408 61.7185 462.332 60.245 462.359 59.3439ZM467.093 69.5011C466.719 69.4152 465.811 69.1991 465.623 68.6289C465.618 68.5237 465.557 68.3687 465.604 68.2607C465.795 67.8816 466.437 68.0589 467.387 68.0618C469.072 68.0262 470.431 67.7968 470.431 67.7968C470.431 67.7968 470.118 68.8679 469.872 69.1972C469.39 70.0663 467.68 69.6285 467.093 69.5011ZM469.14 59.2572L469.138 59.2226L469.131 59.1886L469.14 59.2572ZM470.267 64.7717C470.398 65.3644 469.969 65.9709 469.375 66.1022C469.308 66.1161 469.248 66.1279 469.188 66.139C468.819 66.207 468.473 66.2481 467.831 66.3071C467.732 66.3162 467.356 66.3501 467.351 66.3506C467.143 66.3695 466.972 66.3853 466.795 66.4023C466.506 66.4301 466.249 66.218 466.221 65.9285C466.193 65.6389 466.405 65.3817 466.695 65.3539C466.874 65.3367 467.046 65.3207 467.256 65.3016C467.262 65.3011 467.637 65.2672 467.735 65.2582C468.347 65.202 468.667 65.1639 468.997 65.1032C469.05 65.0935 469.102 65.0833 469.154 65.0724C469.195 65.0634 469.239 65.0004 469.237 64.9904L468.099 59.3987L468.09 59.3301L467.874 56.23C467.854 55.9398 468.073 55.6883 468.363 55.6682C468.653 55.648 468.905 55.8669 468.925 56.1571L469.138 59.2226L470.267 64.7717Z" fill="#482D1F"/>
<path d="M431.939 112.927C431.591 106.425 429.925 100.209 426.944 94.2831C426.748 93.8933 426.273 93.7363 425.884 93.9323C425.494 94.1284 425.337 94.6033 425.533 94.993C428.416 100.725 430.025 106.729 430.362 113.011C430.385 113.447 430.757 113.781 431.193 113.758C431.628 113.735 431.963 113.362 431.939 112.927Z" fill="#482D1F"/>
</g>
</g>
<g clip-path="url(#clip2)">
<path d="M345.997 46.8702H93.2137C87.3967 46.8702 82.6811 51.5859 82.6811 57.4029V241.197C82.6811 247.014 87.3967 251.73 93.2137 251.73H345.997C351.814 251.73 356.529 247.014 356.529 241.197V57.4029C356.529 51.5859 351.814 46.8702 345.997 46.8702Z" fill="#F2F6FB"/>
<path d="M96.182 86.703H104.034C104.615 86.703 105.087 87.1746 105.087 87.7563V90.6288C105.087 91.2105 104.615 91.6821 104.034 91.6821H96.182C95.6003 91.6821 95.1287 91.2105 95.1287 90.6288V87.7563C95.1287 87.1746 95.6003 86.703 96.182 86.703ZM307.792 86.703H343.028C343.61 86.703 344.082 87.1746 344.082 87.7563V90.6288C344.082 91.2105 343.61 91.6821 343.028 91.6821H307.792C307.21 91.6821 306.739 91.2105 306.739 90.6288V87.7563C306.739 87.1746 307.21 86.703 307.792 86.703ZM240.575 86.703H275.811C276.393 86.703 276.864 87.1746 276.864 87.7563V90.6288C276.864 91.2105 276.393 91.6821 275.811 91.6821H240.575C239.993 91.6821 239.521 91.2105 239.521 90.6288V87.7563C239.521 87.1746 239.993 86.703 240.575 86.703ZM282.897 86.703H300.706C301.288 86.703 301.76 87.1746 301.76 87.7563V90.6288C301.76 91.2105 301.288 91.6821 300.706 91.6821H282.897C282.315 91.6821 281.843 91.2105 281.843 90.6288V87.7563C281.843 87.1746 282.315 86.703 282.897 86.703Z" fill="#E1E5F0"/>
<path d="M341.975 106.619H97.2353C96.0719 106.619 95.1287 107.562 95.1287 108.726V233.968C95.1287 235.132 96.0719 236.075 97.2353 236.075H341.975C343.139 236.075 344.082 235.132 344.082 233.968V108.726C344.082 107.562 343.139 106.619 341.975 106.619Z" fill="#E1E5F0"/>
<path d="M280.79 163.878H158.42C157.838 163.878 157.367 164.35 157.367 164.931V172.783C157.367 173.365 157.838 173.836 158.42 173.836H280.79C281.372 173.836 281.843 173.365 281.843 172.783V164.931C281.843 164.35 281.372 163.878 280.79 163.878Z" fill="#F2F6FB"/>
<path d="M179.941 192.508H259.269C262.79 192.508 264.067 192.874 265.355 193.563C266.642 194.251 267.652 195.262 268.341 196.549C269.029 197.836 269.396 199.113 269.396 202.634V207.276C269.396 210.798 269.029 212.075 268.341 213.362C267.652 214.649 266.642 215.66 265.355 216.348C264.067 217.036 262.79 217.403 259.269 217.403H179.941C176.42 217.403 175.143 217.036 173.856 216.348C172.568 215.66 171.558 214.649 170.87 213.362C170.181 212.075 169.815 210.798 169.815 207.276V202.634C169.815 199.113 170.181 197.836 170.87 196.549C171.558 195.262 172.568 194.251 173.856 193.563C175.143 192.874 176.42 192.508 179.941 192.508Z" fill="#474BFF"/>
<path fill-rule="evenodd" clip-rule="evenodd" d="M229.731 133.577C231.509 133.577 232.95 132.134 232.95 130.353C232.95 128.573 231.509 127.129 229.731 127.129C227.953 127.129 226.512 128.573 226.512 130.353C226.512 132.134 227.953 133.577 229.731 133.577ZM229.921 153.101H228.867H221.857L220.32 153.12L220.332 153.101H200.864C200.282 153.101 200.061 152.701 200.372 152.204L214.054 130.391C214.364 129.896 214.876 129.886 215.196 130.368L225.126 145.441L228.854 139.486C229.162 138.993 229.679 138.979 230.01 139.457L238.613 151.863C238.944 152.34 238.739 152.741 238.159 152.758L230.492 152.994L229.861 153.002L229.921 153.101Z" fill="#F2F6FB"/>
<path d="M82.6811 57.4052C82.6811 51.5869 87.3963 46.8702 93.2177 46.8702H345.466C351.285 46.8702 356.003 51.5873 356.003 57.4052V70.042H82.6811V57.4052Z" fill="#E1E5F0"/>
<path d="M98.2166 63.7227C100.98 63.7227 103.22 61.4827 103.22 58.7197C103.22 55.9566 100.98 53.7167 98.2166 53.7167C95.4535 53.7167 93.2136 55.9566 93.2136 58.7197C93.2136 61.4827 95.4535 63.7227 98.2166 63.7227Z" fill="#FF5645"/>
<path d="M114.542 63.7227C117.305 63.7227 119.545 61.4827 119.545 58.7197C119.545 55.9566 117.305 53.7167 114.542 53.7167C111.779 53.7167 109.539 55.9566 109.539 58.7197C109.539 61.4827 111.779 63.7227 114.542 63.7227Z" fill="#FFCB3D"/>
<path d="M131.394 63.7227C134.157 63.7227 136.397 61.4827 136.397 58.7197C136.397 55.9566 134.157 53.7167 131.394 53.7167C128.631 53.7167 126.391 55.9566 126.391 58.7197C126.391 61.4827 128.631 63.7227 131.394 63.7227Z" fill="#3ABF7C"/>
</g>
<g clip-path="url(#clip3)">
<path d="M272.662 385.572H128.328C127.908 385.572 127.567 385.912 127.567 386.332V400.007C127.567 400.426 127.908 400.767 128.328 400.767H272.662C273.083 400.767 273.424 400.426 273.424 400.007V386.332C273.424 385.912 273.083 385.572 272.662 385.572Z" fill="#E1E5F0"/>
<path d="M302.748 299.343H129.09C128.249 299.343 127.566 300.023 127.566 300.862V374.556C127.566 375.395 128.249 376.075 129.09 376.075H302.748C303.589 376.075 304.271 375.395 304.271 374.556V300.862C304.271 300.023 303.589 299.343 302.748 299.343Z" fill="#F2F6FB"/>
<path d="M232.525 339.008L201.104 354.698C200.916 354.792 200.687 354.716 200.593 354.529C200.567 354.476 200.553 354.418 200.553 354.359V322.977C200.553 322.767 200.724 322.597 200.934 322.597C200.993 322.597 201.051 322.611 201.104 322.638L232.525 338.328C232.713 338.422 232.789 338.65 232.695 338.838C232.658 338.911 232.598 338.971 232.525 339.008Z" fill="#E1E5F0"/>
</g>
<g clip-path="url(#clip4)">
<path d="M744.675 67.4088H572.429C571.276 67.4088 570.342 68.3435 570.342 69.4964V200.665C570.342 201.818 571.276 202.753 572.429 202.753H744.675C745.828 202.753 746.763 201.818 746.763 200.665V69.4964C746.763 68.3435 745.828 67.4088 744.675 67.4088Z" fill="#F2F6FB"/>
<path d="M708.771 140.126H719.336C720.887 140.126 721.45 140.288 722.017 140.591C722.584 140.894 723.029 141.339 723.332 141.906C723.635 142.473 723.797 143.035 723.797 144.586V202.753H704.31V144.586C704.31 143.035 704.472 142.473 704.775 141.906C705.078 141.339 705.524 140.894 706.091 140.591C706.658 140.288 707.22 140.126 708.771 140.126Z" fill="#D8DEED"/>
<path d="M686.501 155.087H697.414C698.965 155.087 699.527 155.249 700.094 155.552C700.662 155.855 701.107 156.3 701.41 156.867C701.713 157.434 701.875 157.996 701.875 159.547V202.753H682.04V159.547C682.04 157.996 682.202 157.434 682.505 156.867C682.808 156.3 683.253 155.855 683.82 155.552C684.387 155.249 684.95 155.087 686.501 155.087Z" fill="#D8DEED"/>
<path d="M664.579 108.465H675.144C676.695 108.465 677.257 108.626 677.824 108.929C678.391 109.233 678.837 109.678 679.14 110.245C679.443 110.812 679.605 111.374 679.605 112.925V202.753H660.118V112.925C660.118 111.374 660.28 110.812 660.583 110.245C660.886 109.678 661.331 109.233 661.898 108.929C662.465 108.626 663.028 108.465 664.579 108.465Z" fill="#E1E5F0"/>
<path d="M642.309 120.642H652.874C654.425 120.642 654.987 120.804 655.554 121.107C656.121 121.41 656.566 121.855 656.87 122.422C657.173 122.989 657.334 123.551 657.334 125.102V202.753H637.848V125.102C637.848 123.551 638.009 122.989 638.313 122.422C638.616 121.855 639.061 121.41 639.628 121.107C640.195 120.804 640.758 120.642 642.309 120.642Z" fill="#D8DEED"/>
<path d="M620.386 149.172H630.951C632.502 149.172 633.065 149.334 633.632 149.637C634.199 149.94 634.644 150.385 634.947 150.952C635.251 151.519 635.412 152.082 635.412 153.632V202.753H615.926V153.632C615.926 152.082 616.087 151.519 616.39 150.952C616.694 150.385 617.139 149.94 617.706 149.637C618.273 149.334 618.835 149.172 620.386 149.172Z" fill="#D8DEED"/>
<path d="M598.116 134.907H608.681C610.232 134.907 610.795 135.069 611.362 135.372C611.929 135.675 612.374 136.12 612.677 136.687C612.98 137.254 613.142 137.817 613.142 139.367V202.753H593.656V139.367C593.656 137.817 593.817 137.254 594.12 136.687C594.424 136.12 594.869 135.675 595.436 135.372C596.003 135.069 596.565 134.907 598.116 134.907Z" fill="#D8DEED"/>
</g>
<g clip-path="url(#clip5)">
<mask id="mask0" mask-type="alpha" maskUnits="userSpaceOnUse" x="536" y="247" width="256" height="192">
<path d="M781.669 247.517H545.933C540.508 247.517 536.111 251.917 536.111 257.345V428.855C536.111 434.283 540.508 438.684 545.933 438.684H781.669C787.094 438.684 791.491 434.283 791.491 428.855V257.345C791.491 251.917 787.094 247.517 781.669 247.517Z" fill="white"/>
</mask>
<g mask="url(#mask0)">
<path d="M781.669 247.517H545.933C540.508 247.517 536.111 251.917 536.111 257.345V428.855C536.111 434.283 540.508 438.684 545.933 438.684H781.669C787.094 438.684 791.491 434.283 791.491 428.855V257.345C791.491 251.917 787.094 247.517 781.669 247.517Z" fill="#F2F6FB"/>
<path d="M749.434 305.014H668.712C666 305.014 663.801 307.214 663.801 309.928V474.827C663.801 477.541 666 479.741 668.712 479.741H749.434C752.146 479.741 754.345 477.541 754.345 474.827V309.928C754.345 307.214 752.146 305.014 749.434 305.014Z" fill="#E1E5F0"/>
<path d="M714.303 315.428H705.003C704.045 315.428 703.269 316.205 703.269 317.164C703.269 318.123 704.045 318.9 705.003 318.9H714.303C715.261 318.9 716.038 318.123 716.038 317.164C716.038 316.205 715.261 315.428 714.303 315.428Z" fill="#F2F6FB"/>
<path d="M747.38 324.685H670.766V458.912H747.38V324.685Z" fill="#F2F6FB"/>
<path d="M710.416 403.188L709.14 403.204L709.15 403.188H692.912C692.369 403.188 692.161 402.819 692.451 402.356L703.831 384.203C704.119 383.743 704.595 383.736 704.899 384.193L713.173 396.758L716.247 391.843C716.535 391.383 717.019 391.371 717.328 391.816L724.433 402.068C724.741 402.513 724.55 402.888 724.01 402.904L717.771 403.096L717.144 403.104L717.195 403.188C717.195 403.188 716.756 403.188 716.212 403.188H710.416ZM717.036 386.798C715.544 386.798 714.335 385.586 714.335 384.091C714.335 382.597 715.544 381.385 717.036 381.385C718.528 381.385 719.737 382.597 719.737 384.091C719.737 385.586 718.528 386.798 717.036 386.798Z" fill="#E1E5F0"/>
<path d="M548.749 276.508H556.071C556.614 276.508 557.054 276.948 557.054 277.491V280.154C557.054 280.697 556.614 281.137 556.071 281.137H548.749C548.207 281.137 547.767 280.697 547.767 280.154V277.491C547.767 276.948 548.207 276.508 548.749 276.508ZM746.089 276.508H778.949C779.491 276.508 779.931 276.948 779.931 277.491V280.154C779.931 280.697 779.491 281.137 778.949 281.137H746.089C745.546 281.137 745.107 280.697 745.107 280.154V277.491C745.107 276.948 745.546 276.508 746.089 276.508ZM683.404 276.508H716.265C716.807 276.508 717.247 276.948 717.247 277.491V280.154C717.247 280.697 716.807 281.137 716.265 281.137H683.404C682.862 281.137 682.422 280.697 682.422 280.154V277.491C682.422 276.948 682.862 276.508 683.404 276.508ZM722.872 276.508H739.481C740.023 276.508 740.463 276.948 740.463 277.491V280.154C740.463 280.697 740.023 281.137 739.481 281.137H722.872C722.33 281.137 721.89 280.697 721.89 280.154V277.491C721.89 276.948 722.33 276.508 722.872 276.508Z" fill="#E1E5F0"/>
</g>
<path d="M562.631 311.344H630.405C630.948 311.344 631.387 311.784 631.387 312.326V319.646C631.387 320.188 630.948 320.628 630.405 320.628H562.631C562.089 320.628 561.649 320.188 561.649 319.646V312.326C561.649 311.784 562.089 311.344 562.631 311.344ZM562.631 326.432H618.782C619.325 326.432 619.764 326.872 619.764 327.414V334.734C619.764 335.276 619.325 335.716 618.782 335.716H562.631C562.089 335.716 561.649 335.276 561.649 334.734V327.414C561.649 326.872 562.089 326.432 562.631 326.432ZM562.631 356.608H595.536C596.078 356.608 596.518 357.048 596.518 357.59V364.91C596.518 365.452 596.078 365.892 595.536 365.892H562.631C562.089 365.892 561.649 365.452 561.649 364.91V357.59C561.649 357.048 562.089 356.608 562.631 356.608ZM562.631 341.52H630.405C630.948 341.52 631.387 341.96 631.387 342.502V349.822C631.387 350.364 630.948 350.804 630.405 350.804H562.631C562.089 350.804 561.649 350.364 561.649 349.822V342.502C561.649 341.96 562.089 341.52 562.631 341.52Z" fill="#E1E5F0"/>
<path d="M570.512 377.195H615.649C618.236 377.195 619.543 377.537 620.743 378.18C621.944 378.822 622.886 379.765 623.528 380.966C624.17 382.168 624.512 383.476 624.512 386.064V388.476C624.512 391.064 624.17 392.372 623.528 393.573C622.886 394.774 621.944 395.717 620.743 396.359C619.543 397.002 618.236 397.344 615.649 397.344H570.512C567.925 397.344 566.618 397.002 565.417 396.359C564.217 395.717 563.275 394.774 562.633 393.573C561.991 392.372 561.649 391.064 561.649 388.476V386.064C561.649 383.476 561.991 382.168 562.633 380.966C563.275 379.765 564.217 378.822 565.417 378.18C566.618 377.537 567.925 377.195 570.512 377.195Z" fill="#474BFF"/>
</g>
<defs>
<clipPath id="clip0">
<rect width="535.057" height="502.933" fill="white" transform="translate(172.735)"/>
</clipPath>
<clipPath id="clip1">
<rect width="239.091" height="476.601" fill="white" transform="translate(320.718 26.3315)"/>
</clipPath>
<clipPath id="clip2">
<rect width="273.322" height="204.86" fill="white" transform="translate(82.6811 46.8702)"/>
</clipPath>
<clipPath id="clip3">
<rect width="184.321" height="115.859" fill="white" transform="translate(123.758 284.907)"/>
</clipPath>
<clipPath id="clip4">
<rect width="176.421" height="135.344" fill="white" transform="translate(570.342 67.4088)"/>
</clipPath>
<clipPath id="clip5">
<rect width="254.889" height="191.167" fill="white" transform="translate(536.111 247.517)"/>
</clipPath>
</defs>
</svg>
